%TF.GenerationSoftware,KiCad,Pcbnew,7.0.7*%
%TF.CreationDate,2023-10-16T17:07:58+03:00*%
%TF.ProjectId,custom_stm_design,63757374-6f6d-45f7-9374-6d5f64657369,rev?*%
%TF.SameCoordinates,Original*%
%TF.FileFunction,Copper,L2,Inr*%
%TF.FilePolarity,Positive*%
%FSLAX46Y46*%
G04 Gerber Fmt 4.6, Leading zero omitted, Abs format (unit mm)*
G04 Created by KiCad (PCBNEW 7.0.7) date 2023-10-16 17:07:58*
%MOMM*%
%LPD*%
G01*
G04 APERTURE LIST*
G04 Aperture macros list*
%AMRoundRect*
0 Rectangle with rounded corners*
0 $1 Rounding radius*
0 $2 $3 $4 $5 $6 $7 $8 $9 X,Y pos of 4 corners*
0 Add a 4 corners polygon primitive as box body*
4,1,4,$2,$3,$4,$5,$6,$7,$8,$9,$2,$3,0*
0 Add four circle primitives for the rounded corners*
1,1,$1+$1,$2,$3*
1,1,$1+$1,$4,$5*
1,1,$1+$1,$6,$7*
1,1,$1+$1,$8,$9*
0 Add four rect primitives between the rounded corners*
20,1,$1+$1,$2,$3,$4,$5,0*
20,1,$1+$1,$4,$5,$6,$7,0*
20,1,$1+$1,$6,$7,$8,$9,0*
20,1,$1+$1,$8,$9,$2,$3,0*%
G04 Aperture macros list end*
%TA.AperFunction,ComponentPad*%
%ADD10C,0.900000*%
%TD*%
%TA.AperFunction,ComponentPad*%
%ADD11C,8.600000*%
%TD*%
%TA.AperFunction,ComponentPad*%
%ADD12RoundRect,0.200000X-0.200000X-0.450000X0.200000X-0.450000X0.200000X0.450000X-0.200000X0.450000X0*%
%TD*%
%TA.AperFunction,ComponentPad*%
%ADD13O,0.800000X1.300000*%
%TD*%
%TA.AperFunction,ComponentPad*%
%ADD14R,2.400000X2.400000*%
%TD*%
%TA.AperFunction,ComponentPad*%
%ADD15C,2.400000*%
%TD*%
%TA.AperFunction,ComponentPad*%
%ADD16RoundRect,0.200000X0.200000X0.450000X-0.200000X0.450000X-0.200000X-0.450000X0.200000X-0.450000X0*%
%TD*%
%TA.AperFunction,ViaPad*%
%ADD17C,0.800000*%
%TD*%
G04 APERTURE END LIST*
D10*
%TO.N,GND*%
%TO.C,H4*%
X81775000Y-106000000D03*
X82719581Y-103719581D03*
X82719581Y-108280419D03*
X85000000Y-102775000D03*
D11*
X85000000Y-106000000D03*
D10*
X85000000Y-109225000D03*
X87280419Y-103719581D03*
X87280419Y-108280419D03*
X88225000Y-106000000D03*
%TD*%
%TO.N,GND*%
%TO.C,H2*%
X124775000Y-106000000D03*
X125719581Y-103719581D03*
X125719581Y-108280419D03*
X128000000Y-102775000D03*
D11*
X128000000Y-106000000D03*
D10*
X128000000Y-109225000D03*
X130280419Y-103719581D03*
X130280419Y-108280419D03*
X131225000Y-106000000D03*
%TD*%
D12*
%TO.N,+3.3V*%
%TO.C,J5*%
X95125000Y-104050000D03*
D13*
%TO.N,USART3_TX*%
X96375000Y-104050000D03*
%TO.N,USART3_RX*%
X97625000Y-104050000D03*
%TO.N,GND*%
X98875000Y-104050000D03*
%TD*%
D10*
%TO.N,GND*%
%TO.C,H1*%
X124775000Y-71000000D03*
X125719581Y-68719581D03*
X125719581Y-73280419D03*
X128000000Y-67775000D03*
D11*
X128000000Y-71000000D03*
D10*
X128000000Y-74225000D03*
X130280419Y-68719581D03*
X130280419Y-73280419D03*
X131225000Y-71000000D03*
%TD*%
%TO.N,GND*%
%TO.C,H3*%
X81775000Y-71000000D03*
X82719581Y-68719581D03*
X82719581Y-73280419D03*
X85000000Y-67775000D03*
D11*
X85000000Y-71000000D03*
D10*
X85000000Y-74225000D03*
X87280419Y-68719581D03*
X87280419Y-73280419D03*
X88225000Y-71000000D03*
%TD*%
D14*
%TO.N,+12V*%
%TO.C,J1*%
X127300000Y-83700000D03*
D15*
%TO.N,GND*%
X127300000Y-80200000D03*
%TD*%
D16*
%TO.N,+3.3V*%
%TO.C,J3*%
X98875000Y-72950000D03*
D13*
%TO.N,I2C1_SCL*%
X97625000Y-72950000D03*
%TO.N,I2C1_SDA*%
X96375000Y-72950000D03*
%TO.N,GND*%
X95125000Y-72950000D03*
%TD*%
D17*
%TO.N,GND*%
X106300000Y-67675000D03*
X105000000Y-67675000D03*
X102450000Y-67675000D03*
%TO.N,+3.3V*%
X107525000Y-67675000D03*
%TO.N,NRST*%
X103937853Y-78812853D03*
%TO.N,+3.3V*%
X92725000Y-84775000D03*
%TO.N,GND*%
X91700000Y-84775000D03*
X97650000Y-81650000D03*
%TO.N,+3.3V*%
X95350000Y-81700000D03*
%TO.N,GND*%
X88900000Y-92000000D03*
X88025000Y-92925000D03*
X107525000Y-83200000D03*
X121225000Y-77900000D03*
X105300000Y-98175000D03*
X109925000Y-84375000D03*
X111875000Y-89000000D03*
X121925000Y-83025000D03*
X121925000Y-82175000D03*
X109850000Y-83250000D03*
X109875000Y-82050000D03*
X107850000Y-79225000D03*
X108550000Y-81900000D03*
X108550000Y-80075000D03*
X107850000Y-78400000D03*
X113050000Y-78575000D03*
X114075000Y-74775000D03*
X116075000Y-73025000D03*
X116050000Y-71975000D03*
X109500000Y-72800000D03*
X109500000Y-71750000D03*
X84850000Y-83500000D03*
X90750000Y-86000000D03*
X88050000Y-89425000D03*
X88925000Y-91100000D03*
X91450000Y-91225000D03*
X95350000Y-95000000D03*
X94425000Y-95000000D03*
X106700000Y-97975000D03*
X122325000Y-91600000D03*
X121375000Y-91625000D03*
X121375000Y-92550000D03*
X122225000Y-92525000D03*
%TO.N,+3.3V*%
X123225000Y-75100000D03*
X112225000Y-79575000D03*
X106975000Y-80075000D03*
X117775000Y-87050000D03*
X117775000Y-87975000D03*
X117775000Y-86025000D03*
X99675000Y-79500000D03*
X114975000Y-87825000D03*
X115025000Y-86950000D03*
X115025000Y-86075000D03*
X106100000Y-80975000D03*
X102500000Y-80250000D03*
X84850000Y-79075000D03*
X114450000Y-72825000D03*
X88875000Y-98800000D03*
X121000000Y-71800000D03*
X97500000Y-97550000D03*
X114450000Y-71800000D03*
X120975000Y-72625000D03*
X106675000Y-95625000D03*
X106575000Y-83200000D03*
X112900000Y-80525000D03*
X122275000Y-74300000D03*
%TO.N,Net-(D2-K)*%
X110250000Y-95000000D03*
X111750000Y-93500000D03*
%TO.N,NRST*%
X104000000Y-85000000D03*
%TD*%
%TA.AperFunction,Conductor*%
%TO.N,GND*%
G36*
X126952544Y-66095185D02*
G01*
X126998299Y-66147989D01*
X127008243Y-66217147D01*
X126979218Y-66280703D01*
X126920440Y-66318477D01*
X126918494Y-66319031D01*
X126515234Y-66430324D01*
X126515209Y-66430332D01*
X126111583Y-66581815D01*
X126111569Y-66581821D01*
X125723146Y-66768876D01*
X125723140Y-66768879D01*
X125353024Y-66990013D01*
X125004242Y-67243419D01*
X124881224Y-67350894D01*
X125742913Y-68212583D01*
X125776398Y-68273906D01*
X125771414Y-68343598D01*
X125729542Y-68399531D01*
X125678018Y-68422152D01*
X125609333Y-68434992D01*
X125609325Y-68434995D01*
X125513972Y-68494036D01*
X125513971Y-68494036D01*
X125446381Y-68583541D01*
X125446378Y-68583545D01*
X125417036Y-68686673D01*
X125379757Y-68745766D01*
X125316447Y-68775323D01*
X125247207Y-68765961D01*
X125210089Y-68740419D01*
X124349122Y-67879452D01*
X124112800Y-68175791D01*
X124112799Y-68175792D01*
X123875294Y-68535600D01*
X123670989Y-68915261D01*
X123670985Y-68915269D01*
X123501545Y-69311695D01*
X123501542Y-69311703D01*
X123368313Y-69721741D01*
X123272378Y-70142061D01*
X123214505Y-70569298D01*
X123214504Y-70569307D01*
X123195162Y-70999996D01*
X123195162Y-71000003D01*
X123214504Y-71430692D01*
X123214505Y-71430701D01*
X123272378Y-71857938D01*
X123368313Y-72278258D01*
X123501542Y-72688296D01*
X123501545Y-72688304D01*
X123670985Y-73084730D01*
X123670989Y-73084738D01*
X123875294Y-73464399D01*
X124112799Y-73824207D01*
X124112800Y-73824208D01*
X124349122Y-74120546D01*
X125212091Y-73257577D01*
X125273414Y-73224092D01*
X125343105Y-73229076D01*
X125399039Y-73270948D01*
X125423243Y-73333815D01*
X125426034Y-73363939D01*
X125476028Y-73464340D01*
X125476029Y-73464341D01*
X125558915Y-73539903D01*
X125663501Y-73580419D01*
X125663505Y-73580419D01*
X125673562Y-73582299D01*
X125735843Y-73613967D01*
X125771117Y-73674279D01*
X125768184Y-73744087D01*
X125738459Y-73791869D01*
X124881224Y-74649104D01*
X124881224Y-74649105D01*
X125004235Y-74756576D01*
X125353024Y-75009986D01*
X125723140Y-75231120D01*
X125723146Y-75231123D01*
X126111569Y-75418178D01*
X126111583Y-75418184D01*
X126515209Y-75569667D01*
X126515234Y-75569675D01*
X126930816Y-75684369D01*
X127355023Y-75761351D01*
X127784435Y-75799999D01*
X127784438Y-75800000D01*
X128215562Y-75800000D01*
X128215564Y-75799999D01*
X128644976Y-75761351D01*
X129069183Y-75684369D01*
X129484765Y-75569675D01*
X129484790Y-75569667D01*
X129888416Y-75418184D01*
X129888430Y-75418178D01*
X130276853Y-75231123D01*
X130276859Y-75231120D01*
X130646975Y-75009986D01*
X130995755Y-74756582D01*
X130995785Y-74756558D01*
X131118774Y-74649105D01*
X131118774Y-74649104D01*
X130257086Y-73787416D01*
X130223601Y-73726093D01*
X130228585Y-73656401D01*
X130270457Y-73600468D01*
X130321979Y-73577847D01*
X130390669Y-73565007D01*
X130486027Y-73505963D01*
X130486028Y-73505963D01*
X130492126Y-73497888D01*
X130553620Y-73416457D01*
X130582962Y-73313328D01*
X130620242Y-73254235D01*
X130683551Y-73224677D01*
X130752791Y-73234039D01*
X130789910Y-73259581D01*
X131650875Y-74120546D01*
X131887199Y-73824208D01*
X131887200Y-73824207D01*
X132124705Y-73464399D01*
X132329010Y-73084738D01*
X132329014Y-73084730D01*
X132498454Y-72688304D01*
X132498457Y-72688296D01*
X132631686Y-72278258D01*
X132679608Y-72068300D01*
X132713717Y-72007321D01*
X132775378Y-71974463D01*
X132845015Y-71980158D01*
X132900519Y-72022598D01*
X132924267Y-72088308D01*
X132924499Y-72095892D01*
X132924499Y-104904111D01*
X132904814Y-104971150D01*
X132852010Y-105016905D01*
X132782852Y-105026849D01*
X132719296Y-104997824D01*
X132681522Y-104939046D01*
X132679608Y-104931703D01*
X132631686Y-104721741D01*
X132498457Y-104311703D01*
X132498454Y-104311695D01*
X132329014Y-103915269D01*
X132329010Y-103915261D01*
X132124705Y-103535600D01*
X131887200Y-103175792D01*
X131887199Y-103175791D01*
X131650876Y-102879452D01*
X130787908Y-103742420D01*
X130726585Y-103775905D01*
X130656893Y-103770921D01*
X130600960Y-103729049D01*
X130576756Y-103666179D01*
X130573965Y-103636060D01*
X130523971Y-103535659D01*
X130523969Y-103535657D01*
X130441085Y-103460097D01*
X130368337Y-103431915D01*
X130336499Y-103419581D01*
X130336496Y-103419580D01*
X130326432Y-103417699D01*
X130264152Y-103386031D01*
X130228880Y-103325718D01*
X130231814Y-103255910D01*
X130261538Y-103208130D01*
X131118774Y-102350894D01*
X131118774Y-102350893D01*
X130995764Y-102243423D01*
X130646975Y-101990013D01*
X130276859Y-101768879D01*
X130276853Y-101768876D01*
X129888430Y-101581821D01*
X129888416Y-101581815D01*
X129484790Y-101430332D01*
X129484765Y-101430324D01*
X129069183Y-101315630D01*
X128644976Y-101238648D01*
X128215564Y-101200000D01*
X127784435Y-101200000D01*
X127355023Y-101238648D01*
X126930816Y-101315630D01*
X126515234Y-101430324D01*
X126515209Y-101430332D01*
X126111583Y-101581815D01*
X126111569Y-101581821D01*
X125723146Y-101768876D01*
X125723140Y-101768879D01*
X125353024Y-101990013D01*
X125004242Y-102243419D01*
X124881224Y-102350894D01*
X125742913Y-103212583D01*
X125776398Y-103273906D01*
X125771414Y-103343598D01*
X125729542Y-103399531D01*
X125678018Y-103422152D01*
X125609333Y-103434992D01*
X125609325Y-103434995D01*
X125513972Y-103494036D01*
X125513971Y-103494036D01*
X125446381Y-103583541D01*
X125446378Y-103583545D01*
X125417036Y-103686673D01*
X125379757Y-103745766D01*
X125316447Y-103775323D01*
X125247207Y-103765961D01*
X125210089Y-103740419D01*
X124349122Y-102879452D01*
X124112800Y-103175791D01*
X124112799Y-103175792D01*
X123875294Y-103535600D01*
X123670989Y-103915261D01*
X123670985Y-103915269D01*
X123501545Y-104311695D01*
X123501542Y-104311703D01*
X123368313Y-104721741D01*
X123272378Y-105142061D01*
X123214505Y-105569298D01*
X123214504Y-105569307D01*
X123195162Y-105999996D01*
X123195162Y-106000003D01*
X123214504Y-106430692D01*
X123214505Y-106430701D01*
X123272378Y-106857938D01*
X123368313Y-107278258D01*
X123501542Y-107688296D01*
X123501545Y-107688304D01*
X123670985Y-108084730D01*
X123670989Y-108084738D01*
X123875294Y-108464399D01*
X124112799Y-108824207D01*
X124112800Y-108824208D01*
X124349122Y-109120546D01*
X125212091Y-108257577D01*
X125273414Y-108224092D01*
X125343105Y-108229076D01*
X125399039Y-108270948D01*
X125423243Y-108333815D01*
X125426034Y-108363939D01*
X125476028Y-108464340D01*
X125476029Y-108464341D01*
X125558915Y-108539903D01*
X125663501Y-108580419D01*
X125663505Y-108580419D01*
X125673562Y-108582299D01*
X125735843Y-108613967D01*
X125771117Y-108674279D01*
X125768184Y-108744087D01*
X125738459Y-108791869D01*
X124881224Y-109649104D01*
X124881224Y-109649105D01*
X125004235Y-109756576D01*
X125353024Y-110009986D01*
X125723140Y-110231120D01*
X125723146Y-110231123D01*
X126111569Y-110418178D01*
X126111583Y-110418184D01*
X126515209Y-110569667D01*
X126515234Y-110569675D01*
X126918494Y-110680969D01*
X126977881Y-110717779D01*
X127007939Y-110780853D01*
X126999125Y-110850164D01*
X126954238Y-110903708D01*
X126887528Y-110924483D01*
X126885505Y-110924500D01*
X86114495Y-110924500D01*
X86047456Y-110904815D01*
X86001701Y-110852011D01*
X85991757Y-110782853D01*
X86020782Y-110719297D01*
X86079560Y-110681523D01*
X86081506Y-110680969D01*
X86484765Y-110569675D01*
X86484790Y-110569667D01*
X86888416Y-110418184D01*
X86888430Y-110418178D01*
X87276853Y-110231123D01*
X87276859Y-110231120D01*
X87646975Y-110009986D01*
X87995755Y-109756582D01*
X87995785Y-109756558D01*
X88118774Y-109649105D01*
X88118774Y-109649104D01*
X87257086Y-108787416D01*
X87223601Y-108726093D01*
X87228585Y-108656401D01*
X87270457Y-108600468D01*
X87321979Y-108577847D01*
X87390669Y-108565007D01*
X87486027Y-108505963D01*
X87486028Y-108505963D01*
X87486029Y-108505962D01*
X87553620Y-108416457D01*
X87582962Y-108313328D01*
X87620242Y-108254235D01*
X87683551Y-108224677D01*
X87752791Y-108234039D01*
X87789910Y-108259581D01*
X88650875Y-109120546D01*
X88887199Y-108824208D01*
X88887200Y-108824207D01*
X89124705Y-108464399D01*
X89329010Y-108084738D01*
X89329014Y-108084730D01*
X89498454Y-107688304D01*
X89498457Y-107688296D01*
X89631686Y-107278258D01*
X89727621Y-106857938D01*
X89785494Y-106430701D01*
X89785495Y-106430692D01*
X89804838Y-106000003D01*
X89804838Y-105999996D01*
X89785495Y-105569307D01*
X89785494Y-105569298D01*
X89727621Y-105142061D01*
X89631686Y-104721741D01*
X89578033Y-104556613D01*
X94224500Y-104556613D01*
X94230913Y-104627192D01*
X94230913Y-104627194D01*
X94230914Y-104627196D01*
X94253743Y-104700459D01*
X94281522Y-104789606D01*
X94369530Y-104935188D01*
X94489811Y-105055469D01*
X94489813Y-105055470D01*
X94489815Y-105055472D01*
X94635394Y-105143478D01*
X94797804Y-105194086D01*
X94868384Y-105200500D01*
X94868387Y-105200500D01*
X95381613Y-105200500D01*
X95381616Y-105200500D01*
X95452196Y-105194086D01*
X95614606Y-105143478D01*
X95756671Y-105057596D01*
X95824222Y-105039761D01*
X95890696Y-105061278D01*
X95893669Y-105063372D01*
X95921670Y-105083715D01*
X95922270Y-105084151D01*
X96095192Y-105161142D01*
X96095197Y-105161144D01*
X96280354Y-105200500D01*
X96280355Y-105200500D01*
X96469644Y-105200500D01*
X96469646Y-105200500D01*
X96654803Y-105161144D01*
X96827730Y-105084151D01*
X96927114Y-105011944D01*
X96992921Y-104988464D01*
X97060975Y-105004289D01*
X97072885Y-105011944D01*
X97172265Y-105084148D01*
X97172270Y-105084151D01*
X97345192Y-105161142D01*
X97345197Y-105161144D01*
X97530354Y-105200500D01*
X97530355Y-105200500D01*
X97719644Y-105200500D01*
X97719646Y-105200500D01*
X97904803Y-105161144D01*
X98077730Y-105084151D01*
X98177541Y-105011634D01*
X98243346Y-104988155D01*
X98311400Y-105003980D01*
X98323311Y-105011635D01*
X98422521Y-105083715D01*
X98499999Y-105118210D01*
X98500000Y-105118210D01*
X98500000Y-104540746D01*
X98506068Y-104502430D01*
X98510674Y-104488256D01*
X98517322Y-104425000D01*
X99250000Y-104425000D01*
X99250000Y-105118210D01*
X99327476Y-105083717D01*
X99480535Y-104972512D01*
X99607127Y-104831918D01*
X99607129Y-104831915D01*
X99701716Y-104668084D01*
X99701721Y-104668072D01*
X99760182Y-104488149D01*
X99766819Y-104425000D01*
X99250000Y-104425000D01*
X98517322Y-104425000D01*
X98525500Y-104347192D01*
X98525500Y-104347187D01*
X98525670Y-104343947D01*
X98527001Y-104344016D01*
X98545185Y-104282092D01*
X98597989Y-104236337D01*
X98667147Y-104226393D01*
X98718388Y-104246028D01*
X98772362Y-104282092D01*
X98777455Y-104285495D01*
X98777459Y-104285496D01*
X98850371Y-104299999D01*
X98850374Y-104300000D01*
X98850376Y-104300000D01*
X98899626Y-104300000D01*
X98899627Y-104299999D01*
X98972545Y-104285495D01*
X99055240Y-104230240D01*
X99110495Y-104147545D01*
X99129898Y-104050000D01*
X99129898Y-104049997D01*
X99110496Y-103952459D01*
X99110495Y-103952458D01*
X99110495Y-103952455D01*
X99055240Y-103869760D01*
X98972545Y-103814505D01*
X98972543Y-103814504D01*
X98972540Y-103814503D01*
X98899627Y-103800000D01*
X98899624Y-103800000D01*
X98850376Y-103800000D01*
X98850373Y-103800000D01*
X98777459Y-103814503D01*
X98777456Y-103814504D01*
X98718390Y-103853971D01*
X98651712Y-103874848D01*
X98584332Y-103856363D01*
X98537643Y-103804384D01*
X98526664Y-103756000D01*
X98525670Y-103756053D01*
X98525500Y-103752812D01*
X98524967Y-103747741D01*
X98510674Y-103611744D01*
X98506069Y-103597571D01*
X98500000Y-103559253D01*
X98500000Y-102981787D01*
X99249999Y-102981787D01*
X99250000Y-103675000D01*
X99766818Y-103675000D01*
X99760182Y-103611850D01*
X99701721Y-103431927D01*
X99701716Y-103431915D01*
X99607129Y-103268084D01*
X99607127Y-103268081D01*
X99480539Y-103127490D01*
X99480536Y-103127488D01*
X99327478Y-103016283D01*
X99249999Y-102981787D01*
X98500000Y-102981787D01*
X98422521Y-103016283D01*
X98323310Y-103088365D01*
X98257504Y-103111845D01*
X98189450Y-103096019D01*
X98177548Y-103088371D01*
X98102928Y-103034157D01*
X98077729Y-103015848D01*
X97904807Y-102938857D01*
X97904802Y-102938855D01*
X97749817Y-102905913D01*
X97719646Y-102899500D01*
X97530354Y-102899500D01*
X97500183Y-102905913D01*
X97345197Y-102938855D01*
X97345192Y-102938857D01*
X97172271Y-103015848D01*
X97072885Y-103088056D01*
X97007078Y-103111535D01*
X96939025Y-103095709D01*
X96927115Y-103088056D01*
X96828327Y-103016283D01*
X96827730Y-103015849D01*
X96827728Y-103015848D01*
X96827729Y-103015848D01*
X96654807Y-102938857D01*
X96654802Y-102938855D01*
X96499817Y-102905913D01*
X96469646Y-102899500D01*
X96280354Y-102899500D01*
X96250183Y-102905913D01*
X96095197Y-102938855D01*
X96095192Y-102938857D01*
X95922271Y-103015848D01*
X95893701Y-103036605D01*
X95827894Y-103060083D01*
X95759840Y-103044256D01*
X95756668Y-103042402D01*
X95614606Y-102956522D01*
X95557916Y-102938857D01*
X95452196Y-102905914D01*
X95452194Y-102905913D01*
X95452192Y-102905913D01*
X95402778Y-102901423D01*
X95381616Y-102899500D01*
X94868384Y-102899500D01*
X94849144Y-102901248D01*
X94797807Y-102905913D01*
X94635393Y-102956522D01*
X94489811Y-103044530D01*
X94369530Y-103164811D01*
X94281522Y-103310393D01*
X94230913Y-103472807D01*
X94224500Y-103543386D01*
X94224500Y-104556613D01*
X89578033Y-104556613D01*
X89498457Y-104311703D01*
X89498454Y-104311695D01*
X89329014Y-103915269D01*
X89329010Y-103915261D01*
X89124705Y-103535600D01*
X88887200Y-103175792D01*
X88887199Y-103175791D01*
X88650876Y-102879452D01*
X87787908Y-103742420D01*
X87726585Y-103775905D01*
X87656893Y-103770921D01*
X87600960Y-103729049D01*
X87576756Y-103666179D01*
X87573965Y-103636060D01*
X87523971Y-103535659D01*
X87523969Y-103535657D01*
X87441085Y-103460097D01*
X87368337Y-103431915D01*
X87336499Y-103419581D01*
X87336496Y-103419580D01*
X87326432Y-103417699D01*
X87264152Y-103386031D01*
X87228880Y-103325718D01*
X87231814Y-103255910D01*
X87261538Y-103208130D01*
X88118774Y-102350894D01*
X88118774Y-102350893D01*
X87995764Y-102243423D01*
X87646975Y-101990013D01*
X87276859Y-101768879D01*
X87276853Y-101768876D01*
X86888430Y-101581821D01*
X86888416Y-101581815D01*
X86484790Y-101430332D01*
X86484765Y-101430324D01*
X86069183Y-101315630D01*
X85644976Y-101238648D01*
X85215564Y-101200000D01*
X84784435Y-101200000D01*
X84355023Y-101238648D01*
X83930816Y-101315630D01*
X83515234Y-101430324D01*
X83515209Y-101430332D01*
X83111583Y-101581815D01*
X83111569Y-101581821D01*
X82723146Y-101768876D01*
X82723140Y-101768879D01*
X82353024Y-101990013D01*
X82004242Y-102243419D01*
X81881224Y-102350894D01*
X82742913Y-103212583D01*
X82776398Y-103273906D01*
X82771414Y-103343598D01*
X82729542Y-103399531D01*
X82678018Y-103422152D01*
X82609333Y-103434992D01*
X82609325Y-103434995D01*
X82513972Y-103494036D01*
X82513971Y-103494036D01*
X82446381Y-103583541D01*
X82446378Y-103583545D01*
X82417036Y-103686673D01*
X82379757Y-103745766D01*
X82316447Y-103775323D01*
X82247207Y-103765961D01*
X82210089Y-103740419D01*
X81349122Y-102879452D01*
X81112800Y-103175791D01*
X81112799Y-103175792D01*
X80875294Y-103535600D01*
X80670989Y-103915261D01*
X80670985Y-103915269D01*
X80501545Y-104311695D01*
X80501542Y-104311703D01*
X80368313Y-104721741D01*
X80320391Y-104931704D01*
X80286282Y-104992683D01*
X80224621Y-105025541D01*
X80154984Y-105019846D01*
X80099480Y-104977406D01*
X80075732Y-104911696D01*
X80075500Y-104904112D01*
X80075500Y-98800000D01*
X87969540Y-98800000D01*
X87989326Y-98988256D01*
X87989327Y-98988259D01*
X88047818Y-99168277D01*
X88047821Y-99168284D01*
X88142467Y-99332216D01*
X88269129Y-99472888D01*
X88422265Y-99584148D01*
X88422270Y-99584151D01*
X88595192Y-99661142D01*
X88595197Y-99661144D01*
X88780354Y-99700500D01*
X88780355Y-99700500D01*
X88969644Y-99700500D01*
X88969646Y-99700500D01*
X89154803Y-99661144D01*
X89327730Y-99584151D01*
X89480871Y-99472888D01*
X89607533Y-99332216D01*
X89702179Y-99168284D01*
X89760674Y-98988256D01*
X89780460Y-98800000D01*
X89760674Y-98611744D01*
X89702179Y-98431716D01*
X89607533Y-98267784D01*
X89480871Y-98127112D01*
X89419077Y-98082216D01*
X89327734Y-98015851D01*
X89327729Y-98015848D01*
X89154807Y-97938857D01*
X89154802Y-97938855D01*
X89009000Y-97907865D01*
X88969646Y-97899500D01*
X88780354Y-97899500D01*
X88747897Y-97906398D01*
X88595197Y-97938855D01*
X88595192Y-97938857D01*
X88422270Y-98015848D01*
X88422265Y-98015851D01*
X88269129Y-98127111D01*
X88142466Y-98267785D01*
X88047821Y-98431715D01*
X88047818Y-98431722D01*
X87989327Y-98611740D01*
X87989326Y-98611744D01*
X87969540Y-98800000D01*
X80075500Y-98800000D01*
X80075500Y-97550000D01*
X96594540Y-97550000D01*
X96614326Y-97738256D01*
X96614327Y-97738259D01*
X96672818Y-97918277D01*
X96672821Y-97918284D01*
X96767467Y-98082216D01*
X96807891Y-98127111D01*
X96894129Y-98222888D01*
X97047265Y-98334148D01*
X97047270Y-98334151D01*
X97220192Y-98411142D01*
X97220197Y-98411144D01*
X97405354Y-98450500D01*
X97405355Y-98450500D01*
X97594644Y-98450500D01*
X97594646Y-98450500D01*
X97779803Y-98411144D01*
X97952730Y-98334151D01*
X98105871Y-98222888D01*
X98232533Y-98082216D01*
X98327179Y-97918284D01*
X98385674Y-97738256D01*
X98405460Y-97550000D01*
X98385674Y-97361744D01*
X98327179Y-97181716D01*
X98232533Y-97017784D01*
X98105871Y-96877112D01*
X98105870Y-96877111D01*
X97952734Y-96765851D01*
X97952729Y-96765848D01*
X97779807Y-96688857D01*
X97779802Y-96688855D01*
X97634001Y-96657865D01*
X97594646Y-96649500D01*
X97405354Y-96649500D01*
X97372897Y-96656398D01*
X97220197Y-96688855D01*
X97220192Y-96688857D01*
X97047270Y-96765848D01*
X97047265Y-96765851D01*
X96894129Y-96877111D01*
X96767466Y-97017785D01*
X96672821Y-97181715D01*
X96672818Y-97181722D01*
X96614327Y-97361740D01*
X96614326Y-97361744D01*
X96594540Y-97550000D01*
X80075500Y-97550000D01*
X80075500Y-95625000D01*
X105769540Y-95625000D01*
X105789326Y-95813256D01*
X105789327Y-95813259D01*
X105847818Y-95993277D01*
X105847821Y-95993284D01*
X105942467Y-96157216D01*
X106069129Y-96297888D01*
X106222265Y-96409148D01*
X106222270Y-96409151D01*
X106395192Y-96486142D01*
X106395197Y-96486144D01*
X106580354Y-96525500D01*
X106580355Y-96525500D01*
X106769644Y-96525500D01*
X106769646Y-96525500D01*
X106954803Y-96486144D01*
X107127730Y-96409151D01*
X107217495Y-96343933D01*
X125620668Y-96343933D01*
X125645745Y-96486144D01*
X125651135Y-96516711D01*
X125720623Y-96677804D01*
X125720624Y-96677806D01*
X125720626Y-96677809D01*
X125786170Y-96765849D01*
X125825390Y-96818530D01*
X125959786Y-96931302D01*
X126037488Y-96970325D01*
X126116562Y-97010038D01*
X126116563Y-97010038D01*
X126116567Y-97010040D01*
X126287279Y-97050500D01*
X126287282Y-97050500D01*
X126418701Y-97050500D01*
X126418709Y-97050500D01*
X126549255Y-97035241D01*
X126714117Y-96975237D01*
X126860696Y-96878830D01*
X126981092Y-96751218D01*
X127068812Y-96599281D01*
X127119130Y-96431210D01*
X127129331Y-96256065D01*
X127098865Y-96083289D01*
X127029377Y-95922196D01*
X126924610Y-95781470D01*
X126852747Y-95721170D01*
X126790214Y-95668698D01*
X126790212Y-95668697D01*
X126633437Y-95589961D01*
X126633433Y-95589960D01*
X126462721Y-95549500D01*
X126331291Y-95549500D01*
X126226854Y-95561707D01*
X126200743Y-95564759D01*
X126200740Y-95564760D01*
X126035884Y-95624762D01*
X126035880Y-95624764D01*
X125889306Y-95721167D01*
X125889305Y-95721168D01*
X125768910Y-95848778D01*
X125681188Y-96000718D01*
X125630870Y-96168789D01*
X125630869Y-96168794D01*
X125620668Y-96343933D01*
X107217495Y-96343933D01*
X107280871Y-96297888D01*
X107407533Y-96157216D01*
X107502179Y-95993284D01*
X107560674Y-95813256D01*
X107580460Y-95625000D01*
X107560674Y-95436744D01*
X107502179Y-95256716D01*
X107407533Y-95092784D01*
X107323990Y-95000000D01*
X109344540Y-95000000D01*
X109364326Y-95188256D01*
X109364327Y-95188259D01*
X109422818Y-95368277D01*
X109422821Y-95368284D01*
X109517467Y-95532216D01*
X109640355Y-95668697D01*
X109644129Y-95672888D01*
X109797265Y-95784148D01*
X109797270Y-95784151D01*
X109970192Y-95861142D01*
X109970197Y-95861144D01*
X110155354Y-95900500D01*
X110155355Y-95900500D01*
X110344644Y-95900500D01*
X110344646Y-95900500D01*
X110529803Y-95861144D01*
X110702730Y-95784151D01*
X110855871Y-95672888D01*
X110982533Y-95532216D01*
X111077179Y-95368284D01*
X111135674Y-95188256D01*
X111155460Y-95000000D01*
X111135674Y-94811744D01*
X111077179Y-94631716D01*
X110982533Y-94467784D01*
X110855871Y-94327112D01*
X110855870Y-94327111D01*
X110702734Y-94215851D01*
X110702729Y-94215848D01*
X110529807Y-94138857D01*
X110529802Y-94138855D01*
X110384000Y-94107865D01*
X110344646Y-94099500D01*
X110155354Y-94099500D01*
X110122897Y-94106398D01*
X109970197Y-94138855D01*
X109970192Y-94138857D01*
X109797270Y-94215848D01*
X109797265Y-94215851D01*
X109644129Y-94327111D01*
X109517466Y-94467785D01*
X109422821Y-94631715D01*
X109422818Y-94631722D01*
X109364327Y-94811740D01*
X109364326Y-94811744D01*
X109344540Y-95000000D01*
X107323990Y-95000000D01*
X107280871Y-94952112D01*
X107280870Y-94952111D01*
X107127734Y-94840851D01*
X107127729Y-94840848D01*
X106954807Y-94763857D01*
X106954802Y-94763855D01*
X106809000Y-94732865D01*
X106769646Y-94724500D01*
X106580354Y-94724500D01*
X106547897Y-94731398D01*
X106395197Y-94763855D01*
X106395192Y-94763857D01*
X106222270Y-94840848D01*
X106222265Y-94840851D01*
X106069129Y-94952111D01*
X105942466Y-95092785D01*
X105847821Y-95256715D01*
X105847818Y-95256722D01*
X105811572Y-95368277D01*
X105789326Y-95436744D01*
X105769540Y-95625000D01*
X80075500Y-95625000D01*
X80075500Y-93500000D01*
X110844540Y-93500000D01*
X110864326Y-93688256D01*
X110864327Y-93688259D01*
X110922818Y-93868277D01*
X110922821Y-93868284D01*
X111017467Y-94032216D01*
X111113487Y-94138857D01*
X111144129Y-94172888D01*
X111297265Y-94284148D01*
X111297270Y-94284151D01*
X111470192Y-94361142D01*
X111470197Y-94361144D01*
X111655354Y-94400500D01*
X111655355Y-94400500D01*
X111844644Y-94400500D01*
X111844646Y-94400500D01*
X112029803Y-94361144D01*
X112202730Y-94284151D01*
X112355871Y-94172888D01*
X112482533Y-94032216D01*
X112577179Y-93868284D01*
X112635674Y-93688256D01*
X112655460Y-93500000D01*
X112635674Y-93311744D01*
X112577179Y-93131716D01*
X112482533Y-92967784D01*
X112355871Y-92827112D01*
X112355870Y-92827111D01*
X112202734Y-92715851D01*
X112202729Y-92715848D01*
X112029807Y-92638857D01*
X112029802Y-92638855D01*
X111884001Y-92607865D01*
X111844646Y-92599500D01*
X111655354Y-92599500D01*
X111622897Y-92606398D01*
X111470197Y-92638855D01*
X111470192Y-92638857D01*
X111297270Y-92715848D01*
X111297265Y-92715851D01*
X111144129Y-92827111D01*
X111017466Y-92967785D01*
X110922821Y-93131715D01*
X110922818Y-93131722D01*
X110864327Y-93311740D01*
X110864326Y-93311744D01*
X110844540Y-93500000D01*
X80075500Y-93500000D01*
X80075500Y-91943933D01*
X125620668Y-91943933D01*
X125636058Y-92031210D01*
X125651135Y-92116711D01*
X125720623Y-92277804D01*
X125720624Y-92277806D01*
X125720626Y-92277809D01*
X125775278Y-92351218D01*
X125825390Y-92418530D01*
X125959786Y-92531302D01*
X126037488Y-92570325D01*
X126116562Y-92610038D01*
X126116563Y-92610038D01*
X126116567Y-92610040D01*
X126287279Y-92650500D01*
X126287282Y-92650500D01*
X126418701Y-92650500D01*
X126418709Y-92650500D01*
X126549255Y-92635241D01*
X126714117Y-92575237D01*
X126860696Y-92478830D01*
X126981092Y-92351218D01*
X127068812Y-92199281D01*
X127119130Y-92031210D01*
X127129331Y-91856065D01*
X127098865Y-91683289D01*
X127029377Y-91522196D01*
X126924610Y-91381470D01*
X126852747Y-91321170D01*
X126790214Y-91268698D01*
X126790212Y-91268697D01*
X126633437Y-91189961D01*
X126633433Y-91189960D01*
X126462721Y-91149500D01*
X126331291Y-91149500D01*
X126226854Y-91161707D01*
X126200743Y-91164759D01*
X126200740Y-91164760D01*
X126035884Y-91224762D01*
X126035880Y-91224764D01*
X125889306Y-91321167D01*
X125889305Y-91321168D01*
X125768910Y-91448778D01*
X125681188Y-91600718D01*
X125630870Y-91768789D01*
X125630869Y-91768794D01*
X125620668Y-91943933D01*
X80075500Y-91943933D01*
X80075500Y-87825000D01*
X114069540Y-87825000D01*
X114089326Y-88013256D01*
X114089327Y-88013259D01*
X114147818Y-88193277D01*
X114147821Y-88193284D01*
X114242467Y-88357216D01*
X114369128Y-88497888D01*
X114369129Y-88497888D01*
X114522265Y-88609148D01*
X114522270Y-88609151D01*
X114695192Y-88686142D01*
X114695197Y-88686144D01*
X114880354Y-88725500D01*
X114880355Y-88725500D01*
X115069644Y-88725500D01*
X115069646Y-88725500D01*
X115254803Y-88686144D01*
X115427730Y-88609151D01*
X115580871Y-88497888D01*
X115707533Y-88357216D01*
X115802179Y-88193284D01*
X115860674Y-88013256D01*
X115864695Y-87975000D01*
X116869540Y-87975000D01*
X116889326Y-88163256D01*
X116889327Y-88163259D01*
X116947818Y-88343277D01*
X116947821Y-88343284D01*
X117042467Y-88507216D01*
X117134247Y-88609148D01*
X117169129Y-88647888D01*
X117322265Y-88759148D01*
X117322270Y-88759151D01*
X117495192Y-88836142D01*
X117495197Y-88836144D01*
X117680354Y-88875500D01*
X117680355Y-88875500D01*
X117869644Y-88875500D01*
X117869646Y-88875500D01*
X118054803Y-88836144D01*
X118227730Y-88759151D01*
X118380871Y-88647888D01*
X118507533Y-88507216D01*
X118602179Y-88343284D01*
X118660674Y-88163256D01*
X118680460Y-87975000D01*
X118660674Y-87786744D01*
X118602179Y-87606716D01*
X118583577Y-87574497D01*
X118567105Y-87506599D01*
X118583578Y-87450501D01*
X118602179Y-87418284D01*
X118660674Y-87238256D01*
X118680460Y-87050000D01*
X118660674Y-86861744D01*
X118602179Y-86681716D01*
X118554710Y-86599498D01*
X118538238Y-86531600D01*
X118554711Y-86475501D01*
X118602179Y-86393284D01*
X118660674Y-86213256D01*
X118680460Y-86025000D01*
X118660674Y-85836744D01*
X118602179Y-85656716D01*
X118507533Y-85492784D01*
X118380871Y-85352112D01*
X118380870Y-85352111D01*
X118227734Y-85240851D01*
X118227729Y-85240848D01*
X118054807Y-85163857D01*
X118054802Y-85163855D01*
X117909000Y-85132865D01*
X117869646Y-85124500D01*
X117680354Y-85124500D01*
X117647897Y-85131398D01*
X117495197Y-85163855D01*
X117495192Y-85163857D01*
X117322270Y-85240848D01*
X117322265Y-85240851D01*
X117169129Y-85352111D01*
X117042466Y-85492785D01*
X116947821Y-85656715D01*
X116947818Y-85656722D01*
X116889327Y-85836740D01*
X116889326Y-85836744D01*
X116869540Y-86025000D01*
X116889326Y-86213256D01*
X116889327Y-86213259D01*
X116947820Y-86393283D01*
X116995288Y-86475501D01*
X117011760Y-86543401D01*
X116995288Y-86599499D01*
X116947820Y-86681716D01*
X116889327Y-86861740D01*
X116889326Y-86861744D01*
X116869540Y-87050000D01*
X116889326Y-87238256D01*
X116889327Y-87238259D01*
X116947821Y-87418286D01*
X116947822Y-87418288D01*
X116966420Y-87450501D01*
X116982893Y-87518401D01*
X116966420Y-87574499D01*
X116947822Y-87606711D01*
X116947821Y-87606713D01*
X116889327Y-87786740D01*
X116889326Y-87786744D01*
X116869540Y-87975000D01*
X115864695Y-87975000D01*
X115880460Y-87825000D01*
X115860674Y-87636744D01*
X115808463Y-87476056D01*
X115806468Y-87406215D01*
X115819003Y-87375745D01*
X115852179Y-87318284D01*
X115910674Y-87138256D01*
X115930460Y-86950000D01*
X115910674Y-86761744D01*
X115852179Y-86581716D01*
X115848013Y-86574501D01*
X115831539Y-86506604D01*
X115848013Y-86450498D01*
X115852179Y-86443284D01*
X115910674Y-86263256D01*
X115930460Y-86075000D01*
X115910674Y-85886744D01*
X115852179Y-85706716D01*
X115757533Y-85542784D01*
X115630871Y-85402112D01*
X115630870Y-85402111D01*
X115477734Y-85290851D01*
X115477729Y-85290848D01*
X115304807Y-85213857D01*
X115304802Y-85213855D01*
X115159001Y-85182865D01*
X115119646Y-85174500D01*
X114930354Y-85174500D01*
X114897897Y-85181398D01*
X114745197Y-85213855D01*
X114745192Y-85213857D01*
X114572270Y-85290848D01*
X114572265Y-85290851D01*
X114419129Y-85402111D01*
X114292466Y-85542785D01*
X114197821Y-85706715D01*
X114197818Y-85706722D01*
X114147644Y-85861144D01*
X114139326Y-85886744D01*
X114119540Y-86075000D01*
X114139326Y-86263256D01*
X114139327Y-86263259D01*
X114197821Y-86443285D01*
X114201988Y-86450503D01*
X114218458Y-86518404D01*
X114201990Y-86574493D01*
X114197822Y-86581713D01*
X114197821Y-86581714D01*
X114139327Y-86761740D01*
X114139326Y-86761744D01*
X114119540Y-86950000D01*
X114139326Y-87138256D01*
X114139327Y-87138259D01*
X114191536Y-87298941D01*
X114193531Y-87368782D01*
X114180993Y-87399257D01*
X114147821Y-87456713D01*
X114147820Y-87456717D01*
X114089327Y-87636740D01*
X114089326Y-87636744D01*
X114069540Y-87825000D01*
X80075500Y-87825000D01*
X80075500Y-84775000D01*
X91819540Y-84775000D01*
X91839326Y-84963256D01*
X91839327Y-84963259D01*
X91897818Y-85143277D01*
X91897821Y-85143284D01*
X91992467Y-85307216D01*
X92025404Y-85343796D01*
X92119129Y-85447888D01*
X92272265Y-85559148D01*
X92272270Y-85559151D01*
X92445192Y-85636142D01*
X92445197Y-85636144D01*
X92630354Y-85675500D01*
X92630355Y-85675500D01*
X92819644Y-85675500D01*
X92819646Y-85675500D01*
X93004803Y-85636144D01*
X93177730Y-85559151D01*
X93330871Y-85447888D01*
X93457533Y-85307216D01*
X93552179Y-85143284D01*
X93598735Y-85000000D01*
X103094540Y-85000000D01*
X103114326Y-85188256D01*
X103114327Y-85188259D01*
X103172818Y-85368277D01*
X103172821Y-85368284D01*
X103267467Y-85532216D01*
X103379567Y-85656715D01*
X103394129Y-85672888D01*
X103547265Y-85784148D01*
X103547270Y-85784151D01*
X103720192Y-85861142D01*
X103720197Y-85861144D01*
X103905354Y-85900500D01*
X103905355Y-85900500D01*
X104094644Y-85900500D01*
X104094646Y-85900500D01*
X104279803Y-85861144D01*
X104452730Y-85784151D01*
X104605871Y-85672888D01*
X104732533Y-85532216D01*
X104827179Y-85368284D01*
X104885674Y-85188256D01*
X104905460Y-85000000D01*
X104885674Y-84811744D01*
X104827179Y-84631716D01*
X104732533Y-84467784D01*
X104605871Y-84327112D01*
X104605870Y-84327111D01*
X104452734Y-84215851D01*
X104452729Y-84215848D01*
X104279807Y-84138857D01*
X104279802Y-84138855D01*
X104134000Y-84107865D01*
X104094646Y-84099500D01*
X103905354Y-84099500D01*
X103872897Y-84106398D01*
X103720197Y-84138855D01*
X103720192Y-84138857D01*
X103547270Y-84215848D01*
X103547265Y-84215851D01*
X103394129Y-84327111D01*
X103267466Y-84467785D01*
X103172821Y-84631715D01*
X103172818Y-84631722D01*
X103114327Y-84811740D01*
X103114326Y-84811744D01*
X103094540Y-85000000D01*
X93598735Y-85000000D01*
X93610674Y-84963256D01*
X93630460Y-84775000D01*
X93610674Y-84586744D01*
X93552179Y-84406716D01*
X93457533Y-84242784D01*
X93330871Y-84102112D01*
X93330870Y-84102111D01*
X93177734Y-83990851D01*
X93177729Y-83990848D01*
X93004807Y-83913857D01*
X93004802Y-83913855D01*
X92859001Y-83882865D01*
X92819646Y-83874500D01*
X92630354Y-83874500D01*
X92597897Y-83881398D01*
X92445197Y-83913855D01*
X92445192Y-83913857D01*
X92272270Y-83990848D01*
X92272265Y-83990851D01*
X92119129Y-84102111D01*
X91992466Y-84242785D01*
X91897821Y-84406715D01*
X91897818Y-84406722D01*
X91877978Y-84467785D01*
X91839326Y-84586744D01*
X91819540Y-84775000D01*
X80075500Y-84775000D01*
X80075500Y-82835055D01*
X81219500Y-82835055D01*
X81260210Y-83000226D01*
X81339263Y-83150849D01*
X81339266Y-83150852D01*
X81452071Y-83278183D01*
X81542318Y-83340476D01*
X81592068Y-83374817D01*
X81592069Y-83374817D01*
X81592070Y-83374818D01*
X81751128Y-83435140D01*
X81827028Y-83444356D01*
X81877626Y-83450500D01*
X81877628Y-83450500D01*
X81962374Y-83450500D01*
X82004538Y-83445380D01*
X82088872Y-83435140D01*
X82247930Y-83374818D01*
X82387929Y-83278183D01*
X82457193Y-83200000D01*
X105669540Y-83200000D01*
X105689326Y-83388256D01*
X105689327Y-83388259D01*
X105747818Y-83568277D01*
X105747821Y-83568284D01*
X105842467Y-83732216D01*
X105969129Y-83872887D01*
X105969129Y-83872888D01*
X106122265Y-83984148D01*
X106122270Y-83984151D01*
X106295192Y-84061142D01*
X106295197Y-84061144D01*
X106480354Y-84100500D01*
X106480355Y-84100500D01*
X106669644Y-84100500D01*
X106669646Y-84100500D01*
X106854803Y-84061144D01*
X107027730Y-83984151D01*
X107180871Y-83872888D01*
X107307533Y-83732216D01*
X107402179Y-83568284D01*
X107460674Y-83388256D01*
X107480460Y-83200000D01*
X107460674Y-83011744D01*
X107402179Y-82831716D01*
X107307533Y-82667784D01*
X107180871Y-82527112D01*
X107143245Y-82499775D01*
X107027734Y-82415851D01*
X107027729Y-82415848D01*
X106854807Y-82338857D01*
X106854802Y-82338855D01*
X106709001Y-82307865D01*
X106669646Y-82299500D01*
X106480354Y-82299500D01*
X106447897Y-82306398D01*
X106295197Y-82338855D01*
X106295192Y-82338857D01*
X106122270Y-82415848D01*
X106122265Y-82415851D01*
X105969129Y-82527111D01*
X105842466Y-82667785D01*
X105747821Y-82831715D01*
X105747818Y-82831722D01*
X105693068Y-83000226D01*
X105689326Y-83011744D01*
X105669540Y-83200000D01*
X82457193Y-83200000D01*
X82500734Y-83150852D01*
X82579790Y-83000225D01*
X82620500Y-82835056D01*
X82620500Y-82664944D01*
X82579790Y-82499775D01*
X82571588Y-82484148D01*
X82500736Y-82349150D01*
X82456750Y-82299500D01*
X82387929Y-82221817D01*
X82338177Y-82187475D01*
X82247931Y-82125182D01*
X82088874Y-82064860D01*
X82088868Y-82064859D01*
X81962374Y-82049500D01*
X81962372Y-82049500D01*
X81877628Y-82049500D01*
X81877626Y-82049500D01*
X81751131Y-82064859D01*
X81751125Y-82064860D01*
X81592068Y-82125182D01*
X81452072Y-82221816D01*
X81339263Y-82349150D01*
X81260210Y-82499773D01*
X81219500Y-82664944D01*
X81219500Y-82835055D01*
X80075500Y-82835055D01*
X80075500Y-81700000D01*
X94444540Y-81700000D01*
X94464326Y-81888256D01*
X94464327Y-81888259D01*
X94522818Y-82068277D01*
X94522821Y-82068284D01*
X94617467Y-82232216D01*
X94713487Y-82338857D01*
X94744129Y-82372888D01*
X94897265Y-82484148D01*
X94897270Y-82484151D01*
X95070192Y-82561142D01*
X95070197Y-82561144D01*
X95255354Y-82600500D01*
X95255355Y-82600500D01*
X95444644Y-82600500D01*
X95444646Y-82600500D01*
X95629803Y-82561144D01*
X95802730Y-82484151D01*
X95955871Y-82372888D01*
X96082533Y-82232216D01*
X96177179Y-82068284D01*
X96235674Y-81888256D01*
X96255460Y-81700000D01*
X96235674Y-81511744D01*
X96177179Y-81331716D01*
X96082533Y-81167784D01*
X95955871Y-81027112D01*
X95955870Y-81027111D01*
X95802734Y-80915851D01*
X95802729Y-80915848D01*
X95629807Y-80838857D01*
X95629802Y-80838855D01*
X95484000Y-80807865D01*
X95444646Y-80799500D01*
X95255354Y-80799500D01*
X95222897Y-80806398D01*
X95070197Y-80838855D01*
X95070192Y-80838857D01*
X94897270Y-80915848D01*
X94897265Y-80915851D01*
X94744129Y-81027111D01*
X94617466Y-81167785D01*
X94522821Y-81331715D01*
X94522818Y-81331722D01*
X94465798Y-81507214D01*
X94464326Y-81511744D01*
X94444540Y-81700000D01*
X80075500Y-81700000D01*
X80075500Y-79835055D01*
X81219500Y-79835055D01*
X81260210Y-80000226D01*
X81339263Y-80150849D01*
X81339266Y-80150852D01*
X81452071Y-80278183D01*
X81536905Y-80336740D01*
X81592068Y-80374817D01*
X81592069Y-80374817D01*
X81592070Y-80374818D01*
X81751128Y-80435140D01*
X81827028Y-80444356D01*
X81877626Y-80450500D01*
X81877628Y-80450500D01*
X81962374Y-80450500D01*
X82004538Y-80445380D01*
X82088872Y-80435140D01*
X82247930Y-80374818D01*
X82387929Y-80278183D01*
X82500734Y-80150852D01*
X82579790Y-80000225D01*
X82620500Y-79835056D01*
X82620500Y-79664944D01*
X82579790Y-79499775D01*
X82561984Y-79465848D01*
X82500736Y-79349150D01*
X82467597Y-79311744D01*
X82387929Y-79221817D01*
X82319379Y-79174500D01*
X82247931Y-79125182D01*
X82115611Y-79075000D01*
X83944540Y-79075000D01*
X83964326Y-79263256D01*
X83964327Y-79263259D01*
X84022818Y-79443277D01*
X84022821Y-79443284D01*
X84117467Y-79607216D01*
X84217023Y-79717784D01*
X84244129Y-79747888D01*
X84397265Y-79859148D01*
X84397270Y-79859151D01*
X84570192Y-79936142D01*
X84570197Y-79936144D01*
X84755354Y-79975500D01*
X84755355Y-79975500D01*
X84944644Y-79975500D01*
X84944646Y-79975500D01*
X85129803Y-79936144D01*
X85302730Y-79859151D01*
X85455871Y-79747888D01*
X85582533Y-79607216D01*
X85644434Y-79500000D01*
X98769540Y-79500000D01*
X98789326Y-79688256D01*
X98789327Y-79688259D01*
X98847818Y-79868277D01*
X98847821Y-79868284D01*
X98942467Y-80032216D01*
X99015977Y-80113857D01*
X99069129Y-80172888D01*
X99222265Y-80284148D01*
X99222270Y-80284151D01*
X99395192Y-80361142D01*
X99395197Y-80361144D01*
X99580354Y-80400500D01*
X99580355Y-80400500D01*
X99769644Y-80400500D01*
X99769646Y-80400500D01*
X99954803Y-80361144D01*
X100127730Y-80284151D01*
X100174735Y-80250000D01*
X101594540Y-80250000D01*
X101614326Y-80438256D01*
X101614327Y-80438259D01*
X101672818Y-80618277D01*
X101672821Y-80618284D01*
X101767467Y-80782216D01*
X101887790Y-80915848D01*
X101894129Y-80922888D01*
X102047265Y-81034148D01*
X102047270Y-81034151D01*
X102220192Y-81111142D01*
X102220197Y-81111144D01*
X102405354Y-81150500D01*
X102405355Y-81150500D01*
X102594644Y-81150500D01*
X102594646Y-81150500D01*
X102779803Y-81111144D01*
X102952730Y-81034151D01*
X103034145Y-80975000D01*
X105194540Y-80975000D01*
X105214326Y-81163256D01*
X105214327Y-81163259D01*
X105272818Y-81343277D01*
X105272821Y-81343284D01*
X105367467Y-81507216D01*
X105485588Y-81638402D01*
X105494129Y-81647888D01*
X105647265Y-81759148D01*
X105647270Y-81759151D01*
X105820192Y-81836142D01*
X105820197Y-81836144D01*
X106005354Y-81875500D01*
X106005355Y-81875500D01*
X106194644Y-81875500D01*
X106194646Y-81875500D01*
X106379803Y-81836144D01*
X106552730Y-81759151D01*
X106705871Y-81647888D01*
X106832533Y-81507216D01*
X106927179Y-81343284D01*
X106985674Y-81163256D01*
X106994522Y-81079063D01*
X107021106Y-81014450D01*
X107078402Y-80974465D01*
X107092060Y-80970735D01*
X107254803Y-80936144D01*
X107427730Y-80859151D01*
X107580871Y-80747888D01*
X107707533Y-80607216D01*
X107802179Y-80443284D01*
X107860674Y-80263256D01*
X107880460Y-80075000D01*
X107860674Y-79886744D01*
X107802179Y-79706716D01*
X107726133Y-79575000D01*
X111319540Y-79575000D01*
X111339326Y-79763256D01*
X111339327Y-79763259D01*
X111397818Y-79943277D01*
X111397821Y-79943284D01*
X111492467Y-80107216D01*
X111576014Y-80200004D01*
X111619129Y-80247888D01*
X111772265Y-80359148D01*
X111772270Y-80359151D01*
X111921763Y-80425711D01*
X111975000Y-80470961D01*
X111994648Y-80526028D01*
X112014326Y-80713256D01*
X112014327Y-80713259D01*
X112072818Y-80893277D01*
X112072821Y-80893284D01*
X112167467Y-81057216D01*
X112262946Y-81163256D01*
X112294129Y-81197888D01*
X112447265Y-81309148D01*
X112447270Y-81309151D01*
X112620192Y-81386142D01*
X112620197Y-81386144D01*
X112805354Y-81425500D01*
X112805355Y-81425500D01*
X112994644Y-81425500D01*
X112994646Y-81425500D01*
X113179803Y-81386144D01*
X113352730Y-81309151D01*
X113505871Y-81197888D01*
X113632533Y-81057216D01*
X113727179Y-80893284D01*
X113785674Y-80713256D01*
X113805460Y-80525000D01*
X113785674Y-80336744D01*
X113741244Y-80200004D01*
X125595233Y-80200004D01*
X125614273Y-80454079D01*
X125670968Y-80702477D01*
X125670973Y-80702494D01*
X125764058Y-80939671D01*
X125861399Y-81108270D01*
X126554225Y-80415443D01*
X126615548Y-80381958D01*
X126685239Y-80386942D01*
X126741173Y-80428813D01*
X126756467Y-80455670D01*
X126775902Y-80502590D01*
X126793098Y-80525000D01*
X126872075Y-80627925D01*
X126997412Y-80724099D01*
X127044327Y-80743531D01*
X127098729Y-80787371D01*
X127120795Y-80853665D01*
X127103517Y-80921364D01*
X127084555Y-80945773D01*
X126391926Y-81638402D01*
X126447616Y-81676371D01*
X126447621Y-81676374D01*
X126629123Y-81763780D01*
X126680983Y-81810602D01*
X126699296Y-81878029D01*
X126678249Y-81944653D01*
X126624522Y-81989321D01*
X126575322Y-81999500D01*
X126052129Y-81999500D01*
X126052123Y-81999501D01*
X125992516Y-82005908D01*
X125857671Y-82056202D01*
X125857664Y-82056206D01*
X125742455Y-82142452D01*
X125742452Y-82142455D01*
X125656206Y-82257664D01*
X125656202Y-82257671D01*
X125605908Y-82392517D01*
X125603400Y-82415849D01*
X125599501Y-82452123D01*
X125599500Y-82452135D01*
X125599500Y-84947870D01*
X125599501Y-84947876D01*
X125605908Y-85007483D01*
X125656202Y-85142328D01*
X125656206Y-85142335D01*
X125742452Y-85257544D01*
X125742455Y-85257547D01*
X125857664Y-85343793D01*
X125857671Y-85343797D01*
X125992517Y-85394091D01*
X125992516Y-85394091D01*
X125999444Y-85394835D01*
X126052127Y-85400500D01*
X128547872Y-85400499D01*
X128607483Y-85394091D01*
X128742331Y-85343796D01*
X128857546Y-85257546D01*
X128943796Y-85142331D01*
X128994091Y-85007483D01*
X129000500Y-84947873D01*
X129000499Y-82452128D01*
X128994091Y-82392517D01*
X128977916Y-82349150D01*
X128943797Y-82257671D01*
X128943793Y-82257664D01*
X128857547Y-82142455D01*
X128857544Y-82142452D01*
X128742335Y-82056206D01*
X128742328Y-82056202D01*
X128607482Y-82005908D01*
X128607483Y-82005908D01*
X128547883Y-81999501D01*
X128547881Y-81999500D01*
X128547873Y-81999500D01*
X128547865Y-81999500D01*
X128024679Y-81999500D01*
X127957640Y-81979815D01*
X127911885Y-81927011D01*
X127901941Y-81857853D01*
X127930966Y-81794297D01*
X127970878Y-81763780D01*
X128152381Y-81676373D01*
X128208073Y-81638402D01*
X127515444Y-80945773D01*
X127481959Y-80884450D01*
X127486943Y-80814758D01*
X127528815Y-80758825D01*
X127555665Y-80743534D01*
X127602588Y-80724099D01*
X127727925Y-80627925D01*
X127824099Y-80502589D01*
X127843531Y-80455673D01*
X127887372Y-80401269D01*
X127953666Y-80379204D01*
X128021366Y-80396483D01*
X128045774Y-80415444D01*
X128738599Y-81108270D01*
X128738600Y-81108270D01*
X128835941Y-80939671D01*
X128929026Y-80702494D01*
X128929031Y-80702477D01*
X128985726Y-80454079D01*
X129004767Y-80200004D01*
X129004767Y-80199995D01*
X128985726Y-79945920D01*
X128929031Y-79697522D01*
X128929026Y-79697505D01*
X128835941Y-79460328D01*
X128835942Y-79460328D01*
X128738599Y-79291728D01*
X128045773Y-79984555D01*
X127984450Y-80018040D01*
X127914758Y-80013056D01*
X127858825Y-79971184D01*
X127843532Y-79944328D01*
X127824099Y-79897412D01*
X127727925Y-79772075D01*
X127630743Y-79697505D01*
X127602590Y-79675902D01*
X127602585Y-79675900D01*
X127555670Y-79656467D01*
X127501267Y-79612625D01*
X127479203Y-79546331D01*
X127496483Y-79478632D01*
X127515443Y-79454225D01*
X128208073Y-78761596D01*
X128152384Y-78723628D01*
X128152376Y-78723623D01*
X127922823Y-78613078D01*
X127922825Y-78613078D01*
X127679347Y-78537975D01*
X127679341Y-78537973D01*
X127427404Y-78500000D01*
X127172595Y-78500000D01*
X126920658Y-78537973D01*
X126920652Y-78537975D01*
X126677178Y-78613077D01*
X126447618Y-78723627D01*
X126447612Y-78723630D01*
X126391926Y-78761596D01*
X127084556Y-79454226D01*
X127118041Y-79515549D01*
X127113057Y-79585241D01*
X127071185Y-79641174D01*
X127044327Y-79656468D01*
X126997412Y-79675900D01*
X126872076Y-79772073D01*
X126775898Y-79897414D01*
X126756466Y-79944328D01*
X126712625Y-79998731D01*
X126646330Y-80020795D01*
X126578631Y-80003515D01*
X126554225Y-79984555D01*
X125861399Y-79291729D01*
X125764058Y-79460328D01*
X125670973Y-79697505D01*
X125670968Y-79697522D01*
X125614273Y-79945920D01*
X125595233Y-80199995D01*
X125595233Y-80200004D01*
X113741244Y-80200004D01*
X113727179Y-80156716D01*
X113632533Y-79992784D01*
X113505871Y-79852112D01*
X113505870Y-79852111D01*
X113352734Y-79740851D01*
X113352732Y-79740850D01*
X113203235Y-79674288D01*
X113149999Y-79629037D01*
X113130352Y-79573972D01*
X113110674Y-79386744D01*
X113052179Y-79206716D01*
X112957533Y-79042784D01*
X112830871Y-78902112D01*
X112809719Y-78886744D01*
X112677734Y-78790851D01*
X112677729Y-78790848D01*
X112504807Y-78713857D01*
X112504802Y-78713855D01*
X112359001Y-78682865D01*
X112319646Y-78674500D01*
X112130354Y-78674500D01*
X112097897Y-78681398D01*
X111945197Y-78713855D01*
X111945192Y-78713857D01*
X111772270Y-78790848D01*
X111772265Y-78790851D01*
X111619129Y-78902111D01*
X111492466Y-79042785D01*
X111397821Y-79206715D01*
X111397818Y-79206722D01*
X111351541Y-79349150D01*
X111339326Y-79386744D01*
X111319540Y-79575000D01*
X107726133Y-79575000D01*
X107707533Y-79542784D01*
X107580871Y-79402112D01*
X107562626Y-79388856D01*
X107427734Y-79290851D01*
X107427729Y-79290848D01*
X107254807Y-79213857D01*
X107254802Y-79213855D01*
X107100838Y-79181130D01*
X107069646Y-79174500D01*
X106880354Y-79174500D01*
X106849162Y-79181130D01*
X106695197Y-79213855D01*
X106695192Y-79213857D01*
X106522270Y-79290848D01*
X106522265Y-79290851D01*
X106369129Y-79402111D01*
X106242466Y-79542785D01*
X106147821Y-79706715D01*
X106147818Y-79706722D01*
X106089325Y-79886745D01*
X106080477Y-79970935D01*
X106053893Y-80035550D01*
X105996595Y-80075535D01*
X105982937Y-80079264D01*
X105820197Y-80113855D01*
X105820192Y-80113857D01*
X105647270Y-80190848D01*
X105647265Y-80190851D01*
X105494129Y-80302111D01*
X105367466Y-80442785D01*
X105272821Y-80606715D01*
X105272818Y-80606722D01*
X105228367Y-80743530D01*
X105214326Y-80786744D01*
X105194540Y-80975000D01*
X103034145Y-80975000D01*
X103105871Y-80922888D01*
X103232533Y-80782216D01*
X103327179Y-80618284D01*
X103385674Y-80438256D01*
X103405460Y-80250000D01*
X103385674Y-80061744D01*
X103327179Y-79881716D01*
X103232533Y-79717784D01*
X103229664Y-79714598D01*
X103199434Y-79651609D01*
X103208057Y-79582273D01*
X103252797Y-79528607D01*
X103319449Y-79507648D01*
X103386852Y-79526050D01*
X103394698Y-79531307D01*
X103485118Y-79597001D01*
X103485123Y-79597004D01*
X103658045Y-79673995D01*
X103658050Y-79673997D01*
X103843207Y-79713353D01*
X103843208Y-79713353D01*
X104032497Y-79713353D01*
X104032499Y-79713353D01*
X104217656Y-79673997D01*
X104390583Y-79597004D01*
X104543724Y-79485741D01*
X104670386Y-79345069D01*
X104765032Y-79181137D01*
X104823527Y-79001109D01*
X104843313Y-78812853D01*
X104823527Y-78624597D01*
X104765032Y-78444569D01*
X104670386Y-78280637D01*
X104543724Y-78139965D01*
X104543723Y-78139964D01*
X104390587Y-78028704D01*
X104390582Y-78028701D01*
X104217660Y-77951710D01*
X104217655Y-77951708D01*
X104071854Y-77920718D01*
X104032499Y-77912353D01*
X103843207Y-77912353D01*
X103810750Y-77919251D01*
X103658050Y-77951708D01*
X103658045Y-77951710D01*
X103485123Y-78028701D01*
X103485118Y-78028704D01*
X103331982Y-78139964D01*
X103205319Y-78280638D01*
X103110674Y-78444568D01*
X103110671Y-78444575D01*
X103052180Y-78624593D01*
X103052179Y-78624597D01*
X103032393Y-78812853D01*
X103052179Y-79001109D01*
X103052180Y-79001112D01*
X103110671Y-79181130D01*
X103110674Y-79181137D01*
X103205319Y-79345068D01*
X103208187Y-79348253D01*
X103238418Y-79411244D01*
X103229795Y-79480580D01*
X103185054Y-79534246D01*
X103118402Y-79555204D01*
X103051000Y-79536801D01*
X103043154Y-79531545D01*
X102952734Y-79465851D01*
X102952729Y-79465848D01*
X102779807Y-79388857D01*
X102779802Y-79388855D01*
X102634000Y-79357865D01*
X102594646Y-79349500D01*
X102405354Y-79349500D01*
X102372897Y-79356398D01*
X102220197Y-79388855D01*
X102220192Y-79388857D01*
X102047270Y-79465848D01*
X102047265Y-79465851D01*
X101894129Y-79577111D01*
X101767466Y-79717785D01*
X101672821Y-79881715D01*
X101672818Y-79881722D01*
X101628526Y-80018040D01*
X101614326Y-80061744D01*
X101594540Y-80250000D01*
X100174735Y-80250000D01*
X100280871Y-80172888D01*
X100407533Y-80032216D01*
X100502179Y-79868284D01*
X100560674Y-79688256D01*
X100580460Y-79500000D01*
X100560674Y-79311744D01*
X100502179Y-79131716D01*
X100407533Y-78967784D01*
X100280871Y-78827112D01*
X100280870Y-78827111D01*
X100127734Y-78715851D01*
X100127729Y-78715848D01*
X99954807Y-78638857D01*
X99954802Y-78638855D01*
X99809000Y-78607865D01*
X99769646Y-78599500D01*
X99580354Y-78599500D01*
X99547897Y-78606398D01*
X99395197Y-78638855D01*
X99395192Y-78638857D01*
X99222270Y-78715848D01*
X99222265Y-78715851D01*
X99069129Y-78827111D01*
X98942466Y-78967785D01*
X98847821Y-79131715D01*
X98847818Y-79131722D01*
X98795829Y-79291729D01*
X98789326Y-79311744D01*
X98769540Y-79500000D01*
X85644434Y-79500000D01*
X85677179Y-79443284D01*
X85735674Y-79263256D01*
X85755460Y-79075000D01*
X85735674Y-78886744D01*
X85677179Y-78706716D01*
X85582533Y-78542784D01*
X85455871Y-78402112D01*
X85455870Y-78402111D01*
X85302734Y-78290851D01*
X85302729Y-78290848D01*
X85129807Y-78213857D01*
X85129802Y-78213855D01*
X84984001Y-78182865D01*
X84944646Y-78174500D01*
X84755354Y-78174500D01*
X84722897Y-78181398D01*
X84570197Y-78213855D01*
X84570192Y-78213857D01*
X84397270Y-78290848D01*
X84397265Y-78290851D01*
X84244129Y-78402111D01*
X84117466Y-78542785D01*
X84022821Y-78706715D01*
X84022818Y-78706722D01*
X83964327Y-78886740D01*
X83964326Y-78886744D01*
X83944540Y-79075000D01*
X82115611Y-79075000D01*
X82088874Y-79064860D01*
X82088868Y-79064859D01*
X81962374Y-79049500D01*
X81962372Y-79049500D01*
X81877628Y-79049500D01*
X81877626Y-79049500D01*
X81751131Y-79064859D01*
X81751125Y-79064860D01*
X81592068Y-79125182D01*
X81452072Y-79221816D01*
X81339263Y-79349150D01*
X81260210Y-79499773D01*
X81219500Y-79664944D01*
X81219500Y-79835055D01*
X80075500Y-79835055D01*
X80075500Y-72095887D01*
X80095185Y-72028848D01*
X80147989Y-71983093D01*
X80217147Y-71973149D01*
X80280703Y-72002174D01*
X80318477Y-72060952D01*
X80320391Y-72068295D01*
X80368313Y-72278258D01*
X80501542Y-72688296D01*
X80501545Y-72688304D01*
X80670985Y-73084730D01*
X80670989Y-73084738D01*
X80875294Y-73464399D01*
X81112799Y-73824207D01*
X81112800Y-73824208D01*
X81349122Y-74120546D01*
X82212091Y-73257577D01*
X82273414Y-73224092D01*
X82343105Y-73229076D01*
X82399039Y-73270948D01*
X82423243Y-73333815D01*
X82426034Y-73363939D01*
X82476028Y-73464340D01*
X82476029Y-73464341D01*
X82558915Y-73539903D01*
X82663501Y-73580419D01*
X82663505Y-73580419D01*
X82673562Y-73582299D01*
X82735843Y-73613967D01*
X82771117Y-73674279D01*
X82768184Y-73744087D01*
X82738459Y-73791869D01*
X81881224Y-74649104D01*
X81881224Y-74649105D01*
X82004235Y-74756576D01*
X82353024Y-75009986D01*
X82723140Y-75231120D01*
X82723146Y-75231123D01*
X83111569Y-75418178D01*
X83111583Y-75418184D01*
X83515209Y-75569667D01*
X83515234Y-75569675D01*
X83930816Y-75684369D01*
X84355023Y-75761351D01*
X84784435Y-75799999D01*
X84784438Y-75800000D01*
X85215562Y-75800000D01*
X85215564Y-75799999D01*
X85644976Y-75761351D01*
X86069183Y-75684369D01*
X86484765Y-75569675D01*
X86484790Y-75569667D01*
X86888416Y-75418184D01*
X86888430Y-75418178D01*
X87276853Y-75231123D01*
X87276859Y-75231120D01*
X87646975Y-75009986D01*
X87995755Y-74756582D01*
X87995785Y-74756558D01*
X88118774Y-74649105D01*
X88118774Y-74649104D01*
X87769670Y-74300000D01*
X121369540Y-74300000D01*
X121389326Y-74488256D01*
X121389327Y-74488259D01*
X121447818Y-74668277D01*
X121447821Y-74668284D01*
X121542467Y-74832216D01*
X121614071Y-74911740D01*
X121669129Y-74972888D01*
X121822265Y-75084148D01*
X121822270Y-75084151D01*
X121995192Y-75161142D01*
X121995197Y-75161144D01*
X122180354Y-75200500D01*
X122220721Y-75200500D01*
X122287760Y-75220185D01*
X122333515Y-75272989D01*
X122338652Y-75286182D01*
X122397818Y-75468277D01*
X122397821Y-75468284D01*
X122492467Y-75632216D01*
X122539426Y-75684369D01*
X122619129Y-75772888D01*
X122772265Y-75884148D01*
X122772270Y-75884151D01*
X122945192Y-75961142D01*
X122945197Y-75961144D01*
X123130354Y-76000500D01*
X123130355Y-76000500D01*
X123319644Y-76000500D01*
X123319646Y-76000500D01*
X123504803Y-75961144D01*
X123677730Y-75884151D01*
X123830871Y-75772888D01*
X123957533Y-75632216D01*
X124052179Y-75468284D01*
X124110674Y-75288256D01*
X124130460Y-75100000D01*
X124110674Y-74911744D01*
X124052179Y-74731716D01*
X123957533Y-74567784D01*
X123830871Y-74427112D01*
X123739928Y-74361038D01*
X123677734Y-74315851D01*
X123677729Y-74315848D01*
X123504807Y-74238857D01*
X123504802Y-74238855D01*
X123359001Y-74207865D01*
X123319646Y-74199500D01*
X123319645Y-74199500D01*
X123279279Y-74199500D01*
X123212240Y-74179815D01*
X123166485Y-74127011D01*
X123161348Y-74113818D01*
X123102181Y-73931722D01*
X123102180Y-73931721D01*
X123102179Y-73931716D01*
X123007533Y-73767784D01*
X122880871Y-73627112D01*
X122880870Y-73627111D01*
X122727734Y-73515851D01*
X122727729Y-73515848D01*
X122554807Y-73438857D01*
X122554802Y-73438855D01*
X122409000Y-73407865D01*
X122369646Y-73399500D01*
X122180354Y-73399500D01*
X122147897Y-73406398D01*
X121995197Y-73438855D01*
X121995192Y-73438857D01*
X121822270Y-73515848D01*
X121822265Y-73515851D01*
X121669129Y-73627111D01*
X121542466Y-73767785D01*
X121447821Y-73931715D01*
X121447818Y-73931722D01*
X121405767Y-74061144D01*
X121389326Y-74111744D01*
X121369540Y-74300000D01*
X87769670Y-74300000D01*
X87257086Y-73787416D01*
X87223601Y-73726093D01*
X87228585Y-73656401D01*
X87270457Y-73600468D01*
X87321979Y-73577847D01*
X87390669Y-73565007D01*
X87486027Y-73505963D01*
X87486028Y-73505963D01*
X87492126Y-73497888D01*
X87553620Y-73416457D01*
X87582962Y-73313328D01*
X87620242Y-73254235D01*
X87683551Y-73224677D01*
X87752791Y-73234039D01*
X87789910Y-73259581D01*
X88650875Y-74120546D01*
X88887199Y-73824208D01*
X88887200Y-73824207D01*
X89124705Y-73464399D01*
X89199719Y-73325000D01*
X94233181Y-73325000D01*
X94239817Y-73388149D01*
X94298278Y-73568072D01*
X94298283Y-73568084D01*
X94392870Y-73731915D01*
X94392872Y-73731918D01*
X94519460Y-73872509D01*
X94519463Y-73872511D01*
X94672521Y-73983715D01*
X94749999Y-74018210D01*
X94750000Y-74018210D01*
X94750000Y-73325000D01*
X94233181Y-73325000D01*
X89199719Y-73325000D01*
X89329010Y-73084738D01*
X89329014Y-73084730D01*
X89386599Y-72950002D01*
X94870102Y-72950002D01*
X94889503Y-73047540D01*
X94889504Y-73047543D01*
X94889505Y-73047545D01*
X94944760Y-73130240D01*
X95027455Y-73185495D01*
X95027458Y-73185495D01*
X95027459Y-73185496D01*
X95100371Y-73199999D01*
X95100374Y-73200000D01*
X95100376Y-73200000D01*
X95149626Y-73200000D01*
X95149627Y-73199999D01*
X95222545Y-73185495D01*
X95281611Y-73146028D01*
X95348286Y-73125151D01*
X95415666Y-73143635D01*
X95462357Y-73195614D01*
X95473335Y-73243999D01*
X95474330Y-73243947D01*
X95474499Y-73247187D01*
X95480744Y-73306604D01*
X95489326Y-73388256D01*
X95493931Y-73402430D01*
X95500000Y-73440746D01*
X95500000Y-74018210D01*
X95577476Y-73983717D01*
X95676687Y-73911635D01*
X95742493Y-73888155D01*
X95810547Y-73903980D01*
X95822458Y-73911634D01*
X95822885Y-73911944D01*
X95922270Y-73984151D01*
X96095192Y-74061142D01*
X96095197Y-74061144D01*
X96280354Y-74100500D01*
X96280355Y-74100500D01*
X96469644Y-74100500D01*
X96469646Y-74100500D01*
X96654803Y-74061144D01*
X96827730Y-73984151D01*
X96927114Y-73911944D01*
X96992921Y-73888464D01*
X97060975Y-73904289D01*
X97072885Y-73911944D01*
X97172265Y-73984148D01*
X97172270Y-73984151D01*
X97345192Y-74061142D01*
X97345197Y-74061144D01*
X97530354Y-74100500D01*
X97530355Y-74100500D01*
X97719644Y-74100500D01*
X97719646Y-74100500D01*
X97904803Y-74061144D01*
X98077730Y-73984151D01*
X98106295Y-73963397D01*
X98172099Y-73939916D01*
X98240153Y-73955740D01*
X98243305Y-73957582D01*
X98385394Y-74043478D01*
X98547804Y-74094086D01*
X98618384Y-74100500D01*
X98618387Y-74100500D01*
X99131613Y-74100500D01*
X99131616Y-74100500D01*
X99202196Y-74094086D01*
X99364606Y-74043478D01*
X99510185Y-73955472D01*
X99630472Y-73835185D01*
X99718478Y-73689606D01*
X99769086Y-73527196D01*
X99775500Y-73456616D01*
X99775500Y-72825000D01*
X113544540Y-72825000D01*
X113564326Y-73013256D01*
X113564327Y-73013259D01*
X113622818Y-73193277D01*
X113622821Y-73193284D01*
X113717467Y-73357216D01*
X113813922Y-73464340D01*
X113844129Y-73497888D01*
X113997265Y-73609148D01*
X113997270Y-73609151D01*
X114170192Y-73686142D01*
X114170197Y-73686144D01*
X114355354Y-73725500D01*
X114355355Y-73725500D01*
X114544644Y-73725500D01*
X114544646Y-73725500D01*
X114729803Y-73686144D01*
X114902730Y-73609151D01*
X115055871Y-73497888D01*
X115182533Y-73357216D01*
X115277179Y-73193284D01*
X115335674Y-73013256D01*
X115355460Y-72825000D01*
X115335674Y-72636744D01*
X115331858Y-72625000D01*
X120069540Y-72625000D01*
X120089326Y-72813256D01*
X120089327Y-72813259D01*
X120147818Y-72993277D01*
X120147821Y-72993284D01*
X120242467Y-73157216D01*
X120329824Y-73254235D01*
X120369129Y-73297888D01*
X120522265Y-73409148D01*
X120522270Y-73409151D01*
X120695192Y-73486142D01*
X120695197Y-73486144D01*
X120880354Y-73525500D01*
X120880355Y-73525500D01*
X121069644Y-73525500D01*
X121069646Y-73525500D01*
X121254803Y-73486144D01*
X121427730Y-73409151D01*
X121580871Y-73297888D01*
X121707533Y-73157216D01*
X121802179Y-72993284D01*
X121860674Y-72813256D01*
X121880460Y-72625000D01*
X121860674Y-72436744D01*
X121809856Y-72280343D01*
X121807861Y-72210502D01*
X121820398Y-72180027D01*
X121827179Y-72168284D01*
X121885674Y-71988256D01*
X121905460Y-71800000D01*
X121885674Y-71611744D01*
X121827179Y-71431716D01*
X121732533Y-71267784D01*
X121605871Y-71127112D01*
X121605870Y-71127111D01*
X121452734Y-71015851D01*
X121452729Y-71015848D01*
X121279807Y-70938857D01*
X121279802Y-70938855D01*
X121134001Y-70907865D01*
X121094646Y-70899500D01*
X120905354Y-70899500D01*
X120872897Y-70906398D01*
X120720197Y-70938855D01*
X120720192Y-70938857D01*
X120547270Y-71015848D01*
X120547265Y-71015851D01*
X120394129Y-71127111D01*
X120267466Y-71267785D01*
X120172821Y-71431715D01*
X120172818Y-71431722D01*
X120114327Y-71611740D01*
X120114326Y-71611744D01*
X120094540Y-71800000D01*
X120114326Y-71988256D01*
X120114327Y-71988259D01*
X120165143Y-72144656D01*
X120167138Y-72214497D01*
X120154601Y-72244971D01*
X120147821Y-72256714D01*
X120089327Y-72436740D01*
X120089326Y-72436744D01*
X120069540Y-72625000D01*
X115331858Y-72625000D01*
X115277179Y-72456716D01*
X115229710Y-72374498D01*
X115213238Y-72306598D01*
X115229709Y-72250504D01*
X115277179Y-72168284D01*
X115335674Y-71988256D01*
X115355460Y-71800000D01*
X115335674Y-71611744D01*
X115277179Y-71431716D01*
X115182533Y-71267784D01*
X115055871Y-71127112D01*
X115055870Y-71127111D01*
X114902734Y-71015851D01*
X114902729Y-71015848D01*
X114729807Y-70938857D01*
X114729802Y-70938855D01*
X114584000Y-70907865D01*
X114544646Y-70899500D01*
X114355354Y-70899500D01*
X114322897Y-70906398D01*
X114170197Y-70938855D01*
X114170192Y-70938857D01*
X113997270Y-71015848D01*
X113997265Y-71015851D01*
X113844129Y-71127111D01*
X113717466Y-71267785D01*
X113622821Y-71431715D01*
X113622818Y-71431722D01*
X113564327Y-71611740D01*
X113564326Y-71611744D01*
X113544540Y-71800000D01*
X113564326Y-71988256D01*
X113564327Y-71988259D01*
X113622820Y-72168283D01*
X113670288Y-72250501D01*
X113686760Y-72318401D01*
X113670288Y-72374499D01*
X113622820Y-72456716D01*
X113568142Y-72625000D01*
X113564326Y-72636744D01*
X113544540Y-72825000D01*
X99775500Y-72825000D01*
X99775500Y-72443384D01*
X99769086Y-72372804D01*
X99718478Y-72210394D01*
X99630472Y-72064815D01*
X99630470Y-72064813D01*
X99630469Y-72064811D01*
X99510188Y-71944530D01*
X99506666Y-71942401D01*
X99364606Y-71856522D01*
X99202196Y-71805914D01*
X99202194Y-71805913D01*
X99202192Y-71805913D01*
X99152778Y-71801423D01*
X99131616Y-71799500D01*
X98618384Y-71799500D01*
X98599144Y-71801248D01*
X98547807Y-71805913D01*
X98385391Y-71856523D01*
X98243330Y-71942401D01*
X98175775Y-71960237D01*
X98109302Y-71938719D01*
X98106297Y-71936603D01*
X98077733Y-71915851D01*
X98077729Y-71915848D01*
X97904807Y-71838857D01*
X97904802Y-71838855D01*
X97749817Y-71805913D01*
X97719646Y-71799500D01*
X97530354Y-71799500D01*
X97500183Y-71805913D01*
X97345197Y-71838855D01*
X97345192Y-71838857D01*
X97172271Y-71915848D01*
X97072885Y-71988056D01*
X97007078Y-72011535D01*
X96939025Y-71995709D01*
X96927115Y-71988056D01*
X96859208Y-71938719D01*
X96827730Y-71915849D01*
X96827728Y-71915848D01*
X96827729Y-71915848D01*
X96654807Y-71838857D01*
X96654802Y-71838855D01*
X96499817Y-71805913D01*
X96469646Y-71799500D01*
X96280354Y-71799500D01*
X96250183Y-71805913D01*
X96095197Y-71838855D01*
X96095192Y-71838857D01*
X95922271Y-71915848D01*
X95822459Y-71988365D01*
X95756652Y-72011844D01*
X95688598Y-71996018D01*
X95676688Y-71988364D01*
X95577478Y-71916283D01*
X95500000Y-71881787D01*
X95500000Y-72459253D01*
X95493930Y-72497571D01*
X95489326Y-72511744D01*
X95489315Y-72511850D01*
X95474499Y-72652812D01*
X95474330Y-72656053D01*
X95472998Y-72655983D01*
X95454815Y-72717907D01*
X95402011Y-72763662D01*
X95332853Y-72773606D01*
X95281610Y-72753971D01*
X95222545Y-72714505D01*
X95222544Y-72714504D01*
X95222543Y-72714504D01*
X95222540Y-72714503D01*
X95149627Y-72700000D01*
X95149624Y-72700000D01*
X95100376Y-72700000D01*
X95100373Y-72700000D01*
X95027459Y-72714503D01*
X95027455Y-72714505D01*
X94944760Y-72769760D01*
X94889505Y-72852455D01*
X94889503Y-72852459D01*
X94870102Y-72949997D01*
X94870102Y-72950002D01*
X89386599Y-72950002D01*
X89498454Y-72688304D01*
X89498457Y-72688296D01*
X89535269Y-72575000D01*
X94233181Y-72575000D01*
X94750000Y-72575000D01*
X94750000Y-71881787D01*
X94672523Y-71916282D01*
X94519464Y-72027487D01*
X94392872Y-72168081D01*
X94392870Y-72168084D01*
X94298283Y-72331915D01*
X94298278Y-72331927D01*
X94239817Y-72511850D01*
X94233181Y-72575000D01*
X89535269Y-72575000D01*
X89631686Y-72278258D01*
X89727621Y-71857938D01*
X89785494Y-71430701D01*
X89785495Y-71430692D01*
X89804838Y-71000003D01*
X89804838Y-70999996D01*
X89785495Y-70569307D01*
X89785494Y-70569298D01*
X89727621Y-70142061D01*
X89631686Y-69721741D01*
X89498457Y-69311703D01*
X89498454Y-69311695D01*
X89329014Y-68915269D01*
X89329010Y-68915261D01*
X89124705Y-68535600D01*
X88887200Y-68175792D01*
X88887199Y-68175791D01*
X88650876Y-67879452D01*
X87787908Y-68742420D01*
X87726585Y-68775905D01*
X87656893Y-68770921D01*
X87600960Y-68729049D01*
X87576756Y-68666179D01*
X87573965Y-68636060D01*
X87523971Y-68535659D01*
X87523969Y-68535657D01*
X87441085Y-68460097D01*
X87376280Y-68434992D01*
X87336499Y-68419581D01*
X87336496Y-68419580D01*
X87326432Y-68417699D01*
X87264152Y-68386031D01*
X87228880Y-68325718D01*
X87231814Y-68255910D01*
X87261538Y-68208130D01*
X87794668Y-67675000D01*
X106619540Y-67675000D01*
X106639326Y-67863256D01*
X106639327Y-67863259D01*
X106697818Y-68043277D01*
X106697821Y-68043284D01*
X106792467Y-68207216D01*
X106899167Y-68325718D01*
X106919129Y-68347888D01*
X107072265Y-68459148D01*
X107072270Y-68459151D01*
X107245192Y-68536142D01*
X107245197Y-68536144D01*
X107430354Y-68575500D01*
X107430355Y-68575500D01*
X107619644Y-68575500D01*
X107619646Y-68575500D01*
X107804803Y-68536144D01*
X107977730Y-68459151D01*
X108130871Y-68347888D01*
X108257533Y-68207216D01*
X108352179Y-68043284D01*
X108410674Y-67863256D01*
X108430460Y-67675000D01*
X108410674Y-67486744D01*
X108352179Y-67306716D01*
X108257533Y-67142784D01*
X108130871Y-67002112D01*
X108130870Y-67002111D01*
X107977734Y-66890851D01*
X107977729Y-66890848D01*
X107804807Y-66813857D01*
X107804802Y-66813855D01*
X107659000Y-66782865D01*
X107619646Y-66774500D01*
X107430354Y-66774500D01*
X107397897Y-66781398D01*
X107245197Y-66813855D01*
X107245192Y-66813857D01*
X107072270Y-66890848D01*
X107072265Y-66890851D01*
X106919129Y-67002111D01*
X106792466Y-67142785D01*
X106697821Y-67306715D01*
X106697818Y-67306722D01*
X106643142Y-67475000D01*
X106639326Y-67486744D01*
X106619540Y-67675000D01*
X87794668Y-67675000D01*
X88118774Y-67350894D01*
X88118774Y-67350893D01*
X87995764Y-67243423D01*
X87646975Y-66990013D01*
X87276859Y-66768879D01*
X87276853Y-66768876D01*
X86888430Y-66581821D01*
X86888416Y-66581815D01*
X86484790Y-66430332D01*
X86484765Y-66430324D01*
X86081506Y-66319031D01*
X86022119Y-66282221D01*
X85992061Y-66219147D01*
X86000875Y-66149836D01*
X86045762Y-66096292D01*
X86112472Y-66075517D01*
X86114495Y-66075500D01*
X126885505Y-66075500D01*
X126952544Y-66095185D01*
G37*
%TD.AperFunction*%
%TA.AperFunction,Conductor*%
G36*
X126267660Y-107304522D02*
G01*
X126320512Y-107342447D01*
X126425031Y-107470918D01*
X126567972Y-107604416D01*
X126639984Y-107671671D01*
X126639987Y-107671673D01*
X126639990Y-107671676D01*
X126647905Y-107677263D01*
X126647908Y-107677265D01*
X126691325Y-107732007D01*
X126698253Y-107801533D01*
X126666493Y-107863767D01*
X126664079Y-107866249D01*
X126227070Y-108303258D01*
X126165747Y-108336743D01*
X126096055Y-108331759D01*
X126040122Y-108289887D01*
X126015918Y-108227017D01*
X126013127Y-108196898D01*
X125963133Y-108096497D01*
X125963131Y-108096495D01*
X125880247Y-108020935D01*
X125815442Y-107995830D01*
X125775661Y-107980419D01*
X125775658Y-107980418D01*
X125765594Y-107978537D01*
X125703314Y-107946869D01*
X125668042Y-107886556D01*
X125670976Y-107816748D01*
X125700700Y-107768968D01*
X126136645Y-107333023D01*
X126197968Y-107299538D01*
X126267660Y-107304522D01*
G37*
%TD.AperFunction*%
%TA.AperFunction,Conductor*%
G36*
X86863354Y-107333024D02*
G01*
X87303751Y-107773421D01*
X87337236Y-107834744D01*
X87332252Y-107904436D01*
X87290380Y-107960369D01*
X87238856Y-107982990D01*
X87170171Y-107995830D01*
X87170163Y-107995833D01*
X87074810Y-108054874D01*
X87074809Y-108054874D01*
X87007219Y-108144379D01*
X87007216Y-108144383D01*
X86977874Y-108247511D01*
X86940595Y-108306604D01*
X86877285Y-108336161D01*
X86808045Y-108326799D01*
X86770927Y-108301257D01*
X86335920Y-107866250D01*
X86302435Y-107804927D01*
X86307419Y-107735235D01*
X86349291Y-107679302D01*
X86352095Y-107677263D01*
X86360010Y-107671676D01*
X86574969Y-107470918D01*
X86679486Y-107342448D01*
X86737062Y-107302870D01*
X86806898Y-107300701D01*
X86863354Y-107333024D01*
G37*
%TD.AperFunction*%
%TA.AperFunction,Conductor*%
G36*
X86903944Y-103668238D02*
G01*
X86959877Y-103710110D01*
X86984081Y-103772977D01*
X86986872Y-103803101D01*
X87036866Y-103903502D01*
X87036867Y-103903503D01*
X87119753Y-103979065D01*
X87224339Y-104019581D01*
X87224343Y-104019581D01*
X87234400Y-104021461D01*
X87296681Y-104053129D01*
X87331955Y-104113441D01*
X87329022Y-104183249D01*
X87299297Y-104231031D01*
X86863354Y-104666974D01*
X86802031Y-104700459D01*
X86732339Y-104695475D01*
X86679485Y-104657548D01*
X86574972Y-104529085D01*
X86546428Y-104502427D01*
X86380213Y-104347192D01*
X86360015Y-104328328D01*
X86360011Y-104328325D01*
X86359995Y-104328314D01*
X86352087Y-104322731D01*
X86308672Y-104267987D01*
X86301746Y-104198461D01*
X86333508Y-104136228D01*
X86335919Y-104133749D01*
X86772929Y-103696739D01*
X86834252Y-103663254D01*
X86903944Y-103668238D01*
G37*
%TD.AperFunction*%
%TA.AperFunction,Conductor*%
G36*
X129903944Y-103668238D02*
G01*
X129959877Y-103710110D01*
X129984081Y-103772977D01*
X129986872Y-103803101D01*
X130036866Y-103903502D01*
X130036867Y-103903503D01*
X130119753Y-103979065D01*
X130224339Y-104019581D01*
X130224343Y-104019581D01*
X130234400Y-104021461D01*
X130296681Y-104053129D01*
X130331955Y-104113441D01*
X130329022Y-104183249D01*
X130299297Y-104231031D01*
X129863354Y-104666974D01*
X129802031Y-104700459D01*
X129732339Y-104695475D01*
X129679485Y-104657548D01*
X129574972Y-104529085D01*
X129546428Y-104502427D01*
X129380213Y-104347192D01*
X129360015Y-104328328D01*
X129360011Y-104328325D01*
X129359995Y-104328314D01*
X129352087Y-104322731D01*
X129308672Y-104267987D01*
X129301746Y-104198461D01*
X129333508Y-104136228D01*
X129335919Y-104133749D01*
X129772929Y-103696739D01*
X129834252Y-103663254D01*
X129903944Y-103668238D01*
G37*
%TD.AperFunction*%
%TA.AperFunction,Conductor*%
G36*
X83191953Y-103673200D02*
G01*
X83229072Y-103698742D01*
X83664079Y-104133749D01*
X83697564Y-104195072D01*
X83692580Y-104264764D01*
X83650708Y-104320697D01*
X83647915Y-104322728D01*
X83640001Y-104328314D01*
X83639982Y-104328330D01*
X83425027Y-104529085D01*
X83320514Y-104657549D01*
X83262936Y-104697130D01*
X83193100Y-104699298D01*
X83136645Y-104666975D01*
X82696248Y-104226578D01*
X82662763Y-104165255D01*
X82667747Y-104095563D01*
X82709619Y-104039630D01*
X82761141Y-104017009D01*
X82829831Y-104004169D01*
X82925189Y-103945125D01*
X82925190Y-103945125D01*
X82947742Y-103915261D01*
X82992782Y-103855619D01*
X83022125Y-103752485D01*
X83059404Y-103693396D01*
X83122713Y-103663838D01*
X83191953Y-103673200D01*
G37*
%TD.AperFunction*%
%TA.AperFunction,Conductor*%
G36*
X126191953Y-103673200D02*
G01*
X126229072Y-103698742D01*
X126664079Y-104133749D01*
X126697564Y-104195072D01*
X126692580Y-104264764D01*
X126650708Y-104320697D01*
X126647915Y-104322728D01*
X126640001Y-104328314D01*
X126639982Y-104328330D01*
X126425027Y-104529085D01*
X126320514Y-104657549D01*
X126262936Y-104697130D01*
X126193100Y-104699298D01*
X126136645Y-104666975D01*
X125696248Y-104226578D01*
X125662763Y-104165255D01*
X125667747Y-104095563D01*
X125709619Y-104039630D01*
X125761141Y-104017009D01*
X125829831Y-104004169D01*
X125925189Y-103945125D01*
X125925190Y-103945125D01*
X125947742Y-103915261D01*
X125992782Y-103855619D01*
X126022125Y-103752485D01*
X126059404Y-103693396D01*
X126122713Y-103663838D01*
X126191953Y-103673200D01*
G37*
%TD.AperFunction*%
%TA.AperFunction,Conductor*%
G36*
X83267660Y-72304522D02*
G01*
X83320512Y-72342447D01*
X83425031Y-72470918D01*
X83567972Y-72604416D01*
X83639984Y-72671671D01*
X83639987Y-72671673D01*
X83639990Y-72671676D01*
X83647905Y-72677263D01*
X83647908Y-72677265D01*
X83691325Y-72732007D01*
X83698253Y-72801533D01*
X83666493Y-72863767D01*
X83664079Y-72866249D01*
X83227070Y-73303258D01*
X83165747Y-73336743D01*
X83096055Y-73331759D01*
X83040122Y-73289887D01*
X83015918Y-73227017D01*
X83013127Y-73196898D01*
X82963133Y-73096497D01*
X82963131Y-73096495D01*
X82880247Y-73020935D01*
X82880246Y-73020934D01*
X82775661Y-72980419D01*
X82775658Y-72980418D01*
X82765594Y-72978537D01*
X82703314Y-72946869D01*
X82668042Y-72886556D01*
X82670976Y-72816748D01*
X82700700Y-72768968D01*
X83136645Y-72333023D01*
X83197968Y-72299538D01*
X83267660Y-72304522D01*
G37*
%TD.AperFunction*%
%TA.AperFunction,Conductor*%
G36*
X126267660Y-72304522D02*
G01*
X126320512Y-72342447D01*
X126425031Y-72470918D01*
X126567972Y-72604416D01*
X126639984Y-72671671D01*
X126639987Y-72671673D01*
X126639990Y-72671676D01*
X126647905Y-72677263D01*
X126647908Y-72677265D01*
X126691325Y-72732007D01*
X126698253Y-72801533D01*
X126666493Y-72863767D01*
X126664079Y-72866249D01*
X126227070Y-73303258D01*
X126165747Y-73336743D01*
X126096055Y-73331759D01*
X126040122Y-73289887D01*
X126015918Y-73227017D01*
X126013127Y-73196898D01*
X125963133Y-73096497D01*
X125963131Y-73096495D01*
X125880247Y-73020935D01*
X125880246Y-73020935D01*
X125775661Y-72980419D01*
X125775658Y-72980418D01*
X125765594Y-72978537D01*
X125703314Y-72946869D01*
X125668042Y-72886556D01*
X125670976Y-72816748D01*
X125700700Y-72768968D01*
X126136645Y-72333023D01*
X126197968Y-72299538D01*
X126267660Y-72304522D01*
G37*
%TD.AperFunction*%
%TA.AperFunction,Conductor*%
G36*
X86863354Y-72333024D02*
G01*
X87303751Y-72773421D01*
X87337236Y-72834744D01*
X87332252Y-72904436D01*
X87290380Y-72960369D01*
X87238856Y-72982990D01*
X87170171Y-72995830D01*
X87170163Y-72995833D01*
X87074810Y-73054874D01*
X87074809Y-73054874D01*
X87007219Y-73144379D01*
X87007216Y-73144383D01*
X86977874Y-73247511D01*
X86940595Y-73306604D01*
X86877285Y-73336161D01*
X86808045Y-73326799D01*
X86770927Y-73301257D01*
X86335920Y-72866250D01*
X86302435Y-72804927D01*
X86307419Y-72735235D01*
X86349291Y-72679302D01*
X86352095Y-72677263D01*
X86360010Y-72671676D01*
X86574969Y-72470918D01*
X86679486Y-72342448D01*
X86737062Y-72302870D01*
X86806898Y-72300701D01*
X86863354Y-72333024D01*
G37*
%TD.AperFunction*%
%TA.AperFunction,Conductor*%
G36*
X129863354Y-72333024D02*
G01*
X130303751Y-72773421D01*
X130337236Y-72834744D01*
X130332252Y-72904436D01*
X130290380Y-72960369D01*
X130238856Y-72982990D01*
X130170171Y-72995830D01*
X130170163Y-72995833D01*
X130074810Y-73054874D01*
X130074809Y-73054874D01*
X130007219Y-73144379D01*
X130007216Y-73144383D01*
X129977874Y-73247511D01*
X129940595Y-73306604D01*
X129877285Y-73336161D01*
X129808045Y-73326799D01*
X129770927Y-73301257D01*
X129335920Y-72866250D01*
X129302435Y-72804927D01*
X129307419Y-72735235D01*
X129349291Y-72679302D01*
X129352095Y-72677263D01*
X129360010Y-72671676D01*
X129574969Y-72470918D01*
X129679486Y-72342448D01*
X129737062Y-72302870D01*
X129806898Y-72300701D01*
X129863354Y-72333024D01*
G37*
%TD.AperFunction*%
%TA.AperFunction,Conductor*%
G36*
X86903944Y-68668238D02*
G01*
X86959877Y-68710110D01*
X86984081Y-68772977D01*
X86986872Y-68803101D01*
X87036866Y-68903502D01*
X87036867Y-68903503D01*
X87119753Y-68979065D01*
X87224339Y-69019581D01*
X87224343Y-69019581D01*
X87234400Y-69021461D01*
X87296681Y-69053129D01*
X87331955Y-69113441D01*
X87329022Y-69183249D01*
X87299297Y-69231031D01*
X86863354Y-69666974D01*
X86802031Y-69700459D01*
X86732339Y-69695475D01*
X86679485Y-69657548D01*
X86574972Y-69529085D01*
X86360015Y-69328328D01*
X86360011Y-69328325D01*
X86359995Y-69328314D01*
X86352087Y-69322731D01*
X86308672Y-69267987D01*
X86301746Y-69198461D01*
X86333508Y-69136228D01*
X86335919Y-69133749D01*
X86772929Y-68696739D01*
X86834252Y-68663254D01*
X86903944Y-68668238D01*
G37*
%TD.AperFunction*%
%TA.AperFunction,Conductor*%
G36*
X126191953Y-68673200D02*
G01*
X126229072Y-68698742D01*
X126664079Y-69133749D01*
X126697564Y-69195072D01*
X126692580Y-69264764D01*
X126650708Y-69320697D01*
X126647915Y-69322728D01*
X126640001Y-69328314D01*
X126639982Y-69328330D01*
X126425027Y-69529085D01*
X126320514Y-69657549D01*
X126262936Y-69697130D01*
X126193100Y-69699298D01*
X126136645Y-69666975D01*
X125696248Y-69226578D01*
X125662763Y-69165255D01*
X125667747Y-69095563D01*
X125709619Y-69039630D01*
X125761141Y-69017009D01*
X125829831Y-69004169D01*
X125925189Y-68945125D01*
X125925190Y-68945125D01*
X125940471Y-68924890D01*
X125992782Y-68855619D01*
X126022125Y-68752485D01*
X126059404Y-68693396D01*
X126122713Y-68663838D01*
X126191953Y-68673200D01*
G37*
%TD.AperFunction*%
%TD*%
M02*
