%TF.GenerationSoftware,KiCad,Pcbnew,7.0.7*%
%TF.CreationDate,2023-10-16T17:07:58+03:00*%
%TF.ProjectId,custom_stm_design,63757374-6f6d-45f7-9374-6d5f64657369,rev?*%
%TF.SameCoordinates,Original*%
%TF.FileFunction,Legend,Top*%
%TF.FilePolarity,Positive*%
%FSLAX46Y46*%
G04 Gerber Fmt 4.6, Leading zero omitted, Abs format (unit mm)*
G04 Created by KiCad (PCBNEW 7.0.7) date 2023-10-16 17:07:58*
%MOMM*%
%LPD*%
G01*
G04 APERTURE LIST*
%ADD10C,0.150000*%
%ADD11C,0.120000*%
G04 APERTURE END LIST*
D10*
X109295112Y-108246009D02*
X109437969Y-108293628D01*
X109437969Y-108293628D02*
X109485588Y-108341247D01*
X109485588Y-108341247D02*
X109533207Y-108436485D01*
X109533207Y-108436485D02*
X109533207Y-108579342D01*
X109533207Y-108579342D02*
X109485588Y-108674580D01*
X109485588Y-108674580D02*
X109437969Y-108722200D01*
X109437969Y-108722200D02*
X109342731Y-108769819D01*
X109342731Y-108769819D02*
X108961779Y-108769819D01*
X108961779Y-108769819D02*
X108961779Y-107769819D01*
X108961779Y-107769819D02*
X109295112Y-107769819D01*
X109295112Y-107769819D02*
X109390350Y-107817438D01*
X109390350Y-107817438D02*
X109437969Y-107865057D01*
X109437969Y-107865057D02*
X109485588Y-107960295D01*
X109485588Y-107960295D02*
X109485588Y-108055533D01*
X109485588Y-108055533D02*
X109437969Y-108150771D01*
X109437969Y-108150771D02*
X109390350Y-108198390D01*
X109390350Y-108198390D02*
X109295112Y-108246009D01*
X109295112Y-108246009D02*
X108961779Y-108246009D01*
X109961779Y-108246009D02*
X110295112Y-108246009D01*
X110437969Y-108769819D02*
X109961779Y-108769819D01*
X109961779Y-108769819D02*
X109961779Y-107769819D01*
X109961779Y-107769819D02*
X110437969Y-107769819D01*
X110866541Y-108769819D02*
X110866541Y-107769819D01*
X110866541Y-107769819D02*
X111437969Y-108769819D01*
X111437969Y-108769819D02*
X111437969Y-107769819D01*
X111818922Y-107769819D02*
X112057017Y-108769819D01*
X112057017Y-108769819D02*
X112247493Y-108055533D01*
X112247493Y-108055533D02*
X112437969Y-108769819D01*
X112437969Y-108769819D02*
X112676065Y-107769819D01*
X113009398Y-108484104D02*
X113485588Y-108484104D01*
X112914160Y-108769819D02*
X113247493Y-107769819D01*
X113247493Y-107769819D02*
X113580826Y-108769819D01*
X114247493Y-108246009D02*
X113914160Y-108246009D01*
X113914160Y-108769819D02*
X113914160Y-107769819D01*
X113914160Y-107769819D02*
X114390350Y-107769819D01*
X114771303Y-108769819D02*
X114771303Y-107769819D01*
X114771303Y-107769819D02*
X115009398Y-107769819D01*
X115009398Y-107769819D02*
X115152255Y-107817438D01*
X115152255Y-107817438D02*
X115247493Y-107912676D01*
X115247493Y-107912676D02*
X115295112Y-108007914D01*
X115295112Y-108007914D02*
X115342731Y-108198390D01*
X115342731Y-108198390D02*
X115342731Y-108341247D01*
X115342731Y-108341247D02*
X115295112Y-108531723D01*
X115295112Y-108531723D02*
X115247493Y-108626961D01*
X115247493Y-108626961D02*
X115152255Y-108722200D01*
X115152255Y-108722200D02*
X115009398Y-108769819D01*
X115009398Y-108769819D02*
X114771303Y-108769819D01*
X115961779Y-108293628D02*
X115961779Y-108769819D01*
X115628446Y-107769819D02*
X115961779Y-108293628D01*
X115961779Y-108293628D02*
X116295112Y-107769819D01*
X91189160Y-99522200D02*
X91332017Y-99569819D01*
X91332017Y-99569819D02*
X91570112Y-99569819D01*
X91570112Y-99569819D02*
X91665350Y-99522200D01*
X91665350Y-99522200D02*
X91712969Y-99474580D01*
X91712969Y-99474580D02*
X91760588Y-99379342D01*
X91760588Y-99379342D02*
X91760588Y-99284104D01*
X91760588Y-99284104D02*
X91712969Y-99188866D01*
X91712969Y-99188866D02*
X91665350Y-99141247D01*
X91665350Y-99141247D02*
X91570112Y-99093628D01*
X91570112Y-99093628D02*
X91379636Y-99046009D01*
X91379636Y-99046009D02*
X91284398Y-98998390D01*
X91284398Y-98998390D02*
X91236779Y-98950771D01*
X91236779Y-98950771D02*
X91189160Y-98855533D01*
X91189160Y-98855533D02*
X91189160Y-98760295D01*
X91189160Y-98760295D02*
X91236779Y-98665057D01*
X91236779Y-98665057D02*
X91284398Y-98617438D01*
X91284398Y-98617438D02*
X91379636Y-98569819D01*
X91379636Y-98569819D02*
X91617731Y-98569819D01*
X91617731Y-98569819D02*
X91760588Y-98617438D01*
X92046303Y-98569819D02*
X92617731Y-98569819D01*
X92332017Y-99569819D02*
X92332017Y-98569819D01*
X92903446Y-99284104D02*
X93379636Y-99284104D01*
X92808208Y-99569819D02*
X93141541Y-98569819D01*
X93141541Y-98569819D02*
X93474874Y-99569819D01*
X93665351Y-98569819D02*
X94236779Y-98569819D01*
X93951065Y-99569819D02*
X93951065Y-98569819D01*
X94570113Y-98569819D02*
X94570113Y-99379342D01*
X94570113Y-99379342D02*
X94617732Y-99474580D01*
X94617732Y-99474580D02*
X94665351Y-99522200D01*
X94665351Y-99522200D02*
X94760589Y-99569819D01*
X94760589Y-99569819D02*
X94951065Y-99569819D01*
X94951065Y-99569819D02*
X95046303Y-99522200D01*
X95046303Y-99522200D02*
X95093922Y-99474580D01*
X95093922Y-99474580D02*
X95141541Y-99379342D01*
X95141541Y-99379342D02*
X95141541Y-98569819D01*
X95570113Y-99522200D02*
X95712970Y-99569819D01*
X95712970Y-99569819D02*
X95951065Y-99569819D01*
X95951065Y-99569819D02*
X96046303Y-99522200D01*
X96046303Y-99522200D02*
X96093922Y-99474580D01*
X96093922Y-99474580D02*
X96141541Y-99379342D01*
X96141541Y-99379342D02*
X96141541Y-99284104D01*
X96141541Y-99284104D02*
X96093922Y-99188866D01*
X96093922Y-99188866D02*
X96046303Y-99141247D01*
X96046303Y-99141247D02*
X95951065Y-99093628D01*
X95951065Y-99093628D02*
X95760589Y-99046009D01*
X95760589Y-99046009D02*
X95665351Y-98998390D01*
X95665351Y-98998390D02*
X95617732Y-98950771D01*
X95617732Y-98950771D02*
X95570113Y-98855533D01*
X95570113Y-98855533D02*
X95570113Y-98760295D01*
X95570113Y-98760295D02*
X95617732Y-98665057D01*
X95617732Y-98665057D02*
X95665351Y-98617438D01*
X95665351Y-98617438D02*
X95760589Y-98569819D01*
X95760589Y-98569819D02*
X95998684Y-98569819D01*
X95998684Y-98569819D02*
X96141541Y-98617438D01*
X113541541Y-80044819D02*
X114160588Y-80044819D01*
X114160588Y-80044819D02*
X113827255Y-80425771D01*
X113827255Y-80425771D02*
X113970112Y-80425771D01*
X113970112Y-80425771D02*
X114065350Y-80473390D01*
X114065350Y-80473390D02*
X114112969Y-80521009D01*
X114112969Y-80521009D02*
X114160588Y-80616247D01*
X114160588Y-80616247D02*
X114160588Y-80854342D01*
X114160588Y-80854342D02*
X114112969Y-80949580D01*
X114112969Y-80949580D02*
X114065350Y-80997200D01*
X114065350Y-80997200D02*
X113970112Y-81044819D01*
X113970112Y-81044819D02*
X113684398Y-81044819D01*
X113684398Y-81044819D02*
X113589160Y-80997200D01*
X113589160Y-80997200D02*
X113541541Y-80949580D01*
X114446303Y-80044819D02*
X114779636Y-81044819D01*
X114779636Y-81044819D02*
X115112969Y-80044819D01*
X115351065Y-80044819D02*
X115970112Y-80044819D01*
X115970112Y-80044819D02*
X115636779Y-80425771D01*
X115636779Y-80425771D02*
X115779636Y-80425771D01*
X115779636Y-80425771D02*
X115874874Y-80473390D01*
X115874874Y-80473390D02*
X115922493Y-80521009D01*
X115922493Y-80521009D02*
X115970112Y-80616247D01*
X115970112Y-80616247D02*
X115970112Y-80854342D01*
X115970112Y-80854342D02*
X115922493Y-80949580D01*
X115922493Y-80949580D02*
X115874874Y-80997200D01*
X115874874Y-80997200D02*
X115779636Y-81044819D01*
X115779636Y-81044819D02*
X115493922Y-81044819D01*
X115493922Y-81044819D02*
X115398684Y-80997200D01*
X115398684Y-80997200D02*
X115351065Y-80949580D01*
X103089160Y-77322200D02*
X103232017Y-77369819D01*
X103232017Y-77369819D02*
X103470112Y-77369819D01*
X103470112Y-77369819D02*
X103565350Y-77322200D01*
X103565350Y-77322200D02*
X103612969Y-77274580D01*
X103612969Y-77274580D02*
X103660588Y-77179342D01*
X103660588Y-77179342D02*
X103660588Y-77084104D01*
X103660588Y-77084104D02*
X103612969Y-76988866D01*
X103612969Y-76988866D02*
X103565350Y-76941247D01*
X103565350Y-76941247D02*
X103470112Y-76893628D01*
X103470112Y-76893628D02*
X103279636Y-76846009D01*
X103279636Y-76846009D02*
X103184398Y-76798390D01*
X103184398Y-76798390D02*
X103136779Y-76750771D01*
X103136779Y-76750771D02*
X103089160Y-76655533D01*
X103089160Y-76655533D02*
X103089160Y-76560295D01*
X103089160Y-76560295D02*
X103136779Y-76465057D01*
X103136779Y-76465057D02*
X103184398Y-76417438D01*
X103184398Y-76417438D02*
X103279636Y-76369819D01*
X103279636Y-76369819D02*
X103517731Y-76369819D01*
X103517731Y-76369819D02*
X103660588Y-76417438D01*
X103993922Y-76369819D02*
X104232017Y-77369819D01*
X104232017Y-77369819D02*
X104422493Y-76655533D01*
X104422493Y-76655533D02*
X104612969Y-77369819D01*
X104612969Y-77369819D02*
X104851065Y-76369819D01*
X105232017Y-77369819D02*
X105232017Y-76369819D01*
X105232017Y-76369819D02*
X105470112Y-76369819D01*
X105470112Y-76369819D02*
X105612969Y-76417438D01*
X105612969Y-76417438D02*
X105708207Y-76512676D01*
X105708207Y-76512676D02*
X105755826Y-76607914D01*
X105755826Y-76607914D02*
X105803445Y-76798390D01*
X105803445Y-76798390D02*
X105803445Y-76941247D01*
X105803445Y-76941247D02*
X105755826Y-77131723D01*
X105755826Y-77131723D02*
X105708207Y-77226961D01*
X105708207Y-77226961D02*
X105612969Y-77322200D01*
X105612969Y-77322200D02*
X105470112Y-77369819D01*
X105470112Y-77369819D02*
X105232017Y-77369819D01*
X85420112Y-77721009D02*
X85562969Y-77768628D01*
X85562969Y-77768628D02*
X85610588Y-77816247D01*
X85610588Y-77816247D02*
X85658207Y-77911485D01*
X85658207Y-77911485D02*
X85658207Y-78054342D01*
X85658207Y-78054342D02*
X85610588Y-78149580D01*
X85610588Y-78149580D02*
X85562969Y-78197200D01*
X85562969Y-78197200D02*
X85467731Y-78244819D01*
X85467731Y-78244819D02*
X85086779Y-78244819D01*
X85086779Y-78244819D02*
X85086779Y-77244819D01*
X85086779Y-77244819D02*
X85420112Y-77244819D01*
X85420112Y-77244819D02*
X85515350Y-77292438D01*
X85515350Y-77292438D02*
X85562969Y-77340057D01*
X85562969Y-77340057D02*
X85610588Y-77435295D01*
X85610588Y-77435295D02*
X85610588Y-77530533D01*
X85610588Y-77530533D02*
X85562969Y-77625771D01*
X85562969Y-77625771D02*
X85515350Y-77673390D01*
X85515350Y-77673390D02*
X85420112Y-77721009D01*
X85420112Y-77721009D02*
X85086779Y-77721009D01*
X86277255Y-77244819D02*
X86467731Y-77244819D01*
X86467731Y-77244819D02*
X86562969Y-77292438D01*
X86562969Y-77292438D02*
X86658207Y-77387676D01*
X86658207Y-77387676D02*
X86705826Y-77578152D01*
X86705826Y-77578152D02*
X86705826Y-77911485D01*
X86705826Y-77911485D02*
X86658207Y-78101961D01*
X86658207Y-78101961D02*
X86562969Y-78197200D01*
X86562969Y-78197200D02*
X86467731Y-78244819D01*
X86467731Y-78244819D02*
X86277255Y-78244819D01*
X86277255Y-78244819D02*
X86182017Y-78197200D01*
X86182017Y-78197200D02*
X86086779Y-78101961D01*
X86086779Y-78101961D02*
X86039160Y-77911485D01*
X86039160Y-77911485D02*
X86039160Y-77578152D01*
X86039160Y-77578152D02*
X86086779Y-77387676D01*
X86086779Y-77387676D02*
X86182017Y-77292438D01*
X86182017Y-77292438D02*
X86277255Y-77244819D01*
X87324874Y-77244819D02*
X87515350Y-77244819D01*
X87515350Y-77244819D02*
X87610588Y-77292438D01*
X87610588Y-77292438D02*
X87705826Y-77387676D01*
X87705826Y-77387676D02*
X87753445Y-77578152D01*
X87753445Y-77578152D02*
X87753445Y-77911485D01*
X87753445Y-77911485D02*
X87705826Y-78101961D01*
X87705826Y-78101961D02*
X87610588Y-78197200D01*
X87610588Y-78197200D02*
X87515350Y-78244819D01*
X87515350Y-78244819D02*
X87324874Y-78244819D01*
X87324874Y-78244819D02*
X87229636Y-78197200D01*
X87229636Y-78197200D02*
X87134398Y-78101961D01*
X87134398Y-78101961D02*
X87086779Y-77911485D01*
X87086779Y-77911485D02*
X87086779Y-77578152D01*
X87086779Y-77578152D02*
X87134398Y-77387676D01*
X87134398Y-77387676D02*
X87229636Y-77292438D01*
X87229636Y-77292438D02*
X87324874Y-77244819D01*
X88039160Y-77244819D02*
X88610588Y-77244819D01*
X88324874Y-78244819D02*
X88324874Y-77244819D01*
X125311779Y-77644819D02*
X125311779Y-76644819D01*
X125311779Y-76644819D02*
X125692731Y-76644819D01*
X125692731Y-76644819D02*
X125787969Y-76692438D01*
X125787969Y-76692438D02*
X125835588Y-76740057D01*
X125835588Y-76740057D02*
X125883207Y-76835295D01*
X125883207Y-76835295D02*
X125883207Y-76978152D01*
X125883207Y-76978152D02*
X125835588Y-77073390D01*
X125835588Y-77073390D02*
X125787969Y-77121009D01*
X125787969Y-77121009D02*
X125692731Y-77168628D01*
X125692731Y-77168628D02*
X125311779Y-77168628D01*
X126502255Y-76644819D02*
X126692731Y-76644819D01*
X126692731Y-76644819D02*
X126787969Y-76692438D01*
X126787969Y-76692438D02*
X126883207Y-76787676D01*
X126883207Y-76787676D02*
X126930826Y-76978152D01*
X126930826Y-76978152D02*
X126930826Y-77311485D01*
X126930826Y-77311485D02*
X126883207Y-77501961D01*
X126883207Y-77501961D02*
X126787969Y-77597200D01*
X126787969Y-77597200D02*
X126692731Y-77644819D01*
X126692731Y-77644819D02*
X126502255Y-77644819D01*
X126502255Y-77644819D02*
X126407017Y-77597200D01*
X126407017Y-77597200D02*
X126311779Y-77501961D01*
X126311779Y-77501961D02*
X126264160Y-77311485D01*
X126264160Y-77311485D02*
X126264160Y-76978152D01*
X126264160Y-76978152D02*
X126311779Y-76787676D01*
X126311779Y-76787676D02*
X126407017Y-76692438D01*
X126407017Y-76692438D02*
X126502255Y-76644819D01*
X127264160Y-76644819D02*
X127502255Y-77644819D01*
X127502255Y-77644819D02*
X127692731Y-76930533D01*
X127692731Y-76930533D02*
X127883207Y-77644819D01*
X127883207Y-77644819D02*
X128121303Y-76644819D01*
X128502255Y-77121009D02*
X128835588Y-77121009D01*
X128978445Y-77644819D02*
X128502255Y-77644819D01*
X128502255Y-77644819D02*
X128502255Y-76644819D01*
X128502255Y-76644819D02*
X128978445Y-76644819D01*
X129978445Y-77644819D02*
X129645112Y-77168628D01*
X129407017Y-77644819D02*
X129407017Y-76644819D01*
X129407017Y-76644819D02*
X129787969Y-76644819D01*
X129787969Y-76644819D02*
X129883207Y-76692438D01*
X129883207Y-76692438D02*
X129930826Y-76740057D01*
X129930826Y-76740057D02*
X129978445Y-76835295D01*
X129978445Y-76835295D02*
X129978445Y-76978152D01*
X129978445Y-76978152D02*
X129930826Y-77073390D01*
X129930826Y-77073390D02*
X129883207Y-77121009D01*
X129883207Y-77121009D02*
X129787969Y-77168628D01*
X129787969Y-77168628D02*
X129407017Y-77168628D01*
X125311779Y-86919819D02*
X125311779Y-87729342D01*
X125311779Y-87729342D02*
X125359398Y-87824580D01*
X125359398Y-87824580D02*
X125407017Y-87872200D01*
X125407017Y-87872200D02*
X125502255Y-87919819D01*
X125502255Y-87919819D02*
X125692731Y-87919819D01*
X125692731Y-87919819D02*
X125787969Y-87872200D01*
X125787969Y-87872200D02*
X125835588Y-87824580D01*
X125835588Y-87824580D02*
X125883207Y-87729342D01*
X125883207Y-87729342D02*
X125883207Y-86919819D01*
X126311779Y-87872200D02*
X126454636Y-87919819D01*
X126454636Y-87919819D02*
X126692731Y-87919819D01*
X126692731Y-87919819D02*
X126787969Y-87872200D01*
X126787969Y-87872200D02*
X126835588Y-87824580D01*
X126835588Y-87824580D02*
X126883207Y-87729342D01*
X126883207Y-87729342D02*
X126883207Y-87634104D01*
X126883207Y-87634104D02*
X126835588Y-87538866D01*
X126835588Y-87538866D02*
X126787969Y-87491247D01*
X126787969Y-87491247D02*
X126692731Y-87443628D01*
X126692731Y-87443628D02*
X126502255Y-87396009D01*
X126502255Y-87396009D02*
X126407017Y-87348390D01*
X126407017Y-87348390D02*
X126359398Y-87300771D01*
X126359398Y-87300771D02*
X126311779Y-87205533D01*
X126311779Y-87205533D02*
X126311779Y-87110295D01*
X126311779Y-87110295D02*
X126359398Y-87015057D01*
X126359398Y-87015057D02*
X126407017Y-86967438D01*
X126407017Y-86967438D02*
X126502255Y-86919819D01*
X126502255Y-86919819D02*
X126740350Y-86919819D01*
X126740350Y-86919819D02*
X126883207Y-86967438D01*
X127645112Y-87396009D02*
X127787969Y-87443628D01*
X127787969Y-87443628D02*
X127835588Y-87491247D01*
X127835588Y-87491247D02*
X127883207Y-87586485D01*
X127883207Y-87586485D02*
X127883207Y-87729342D01*
X127883207Y-87729342D02*
X127835588Y-87824580D01*
X127835588Y-87824580D02*
X127787969Y-87872200D01*
X127787969Y-87872200D02*
X127692731Y-87919819D01*
X127692731Y-87919819D02*
X127311779Y-87919819D01*
X127311779Y-87919819D02*
X127311779Y-86919819D01*
X127311779Y-86919819D02*
X127645112Y-86919819D01*
X127645112Y-86919819D02*
X127740350Y-86967438D01*
X127740350Y-86967438D02*
X127787969Y-87015057D01*
X127787969Y-87015057D02*
X127835588Y-87110295D01*
X127835588Y-87110295D02*
X127835588Y-87205533D01*
X127835588Y-87205533D02*
X127787969Y-87300771D01*
X127787969Y-87300771D02*
X127740350Y-87348390D01*
X127740350Y-87348390D02*
X127645112Y-87396009D01*
X127645112Y-87396009D02*
X127311779Y-87396009D01*
X95611779Y-101019819D02*
X95611779Y-101829342D01*
X95611779Y-101829342D02*
X95659398Y-101924580D01*
X95659398Y-101924580D02*
X95707017Y-101972200D01*
X95707017Y-101972200D02*
X95802255Y-102019819D01*
X95802255Y-102019819D02*
X95992731Y-102019819D01*
X95992731Y-102019819D02*
X96087969Y-101972200D01*
X96087969Y-101972200D02*
X96135588Y-101924580D01*
X96135588Y-101924580D02*
X96183207Y-101829342D01*
X96183207Y-101829342D02*
X96183207Y-101019819D01*
X96611779Y-101734104D02*
X97087969Y-101734104D01*
X96516541Y-102019819D02*
X96849874Y-101019819D01*
X96849874Y-101019819D02*
X97183207Y-102019819D01*
X98087969Y-102019819D02*
X97754636Y-101543628D01*
X97516541Y-102019819D02*
X97516541Y-101019819D01*
X97516541Y-101019819D02*
X97897493Y-101019819D01*
X97897493Y-101019819D02*
X97992731Y-101067438D01*
X97992731Y-101067438D02*
X98040350Y-101115057D01*
X98040350Y-101115057D02*
X98087969Y-101210295D01*
X98087969Y-101210295D02*
X98087969Y-101353152D01*
X98087969Y-101353152D02*
X98040350Y-101448390D01*
X98040350Y-101448390D02*
X97992731Y-101496009D01*
X97992731Y-101496009D02*
X97897493Y-101543628D01*
X97897493Y-101543628D02*
X97516541Y-101543628D01*
X98373684Y-101019819D02*
X98945112Y-101019819D01*
X98659398Y-102019819D02*
X98659398Y-101019819D01*
X96211779Y-76019819D02*
X96211779Y-75019819D01*
X96640350Y-75115057D02*
X96687969Y-75067438D01*
X96687969Y-75067438D02*
X96783207Y-75019819D01*
X96783207Y-75019819D02*
X97021302Y-75019819D01*
X97021302Y-75019819D02*
X97116540Y-75067438D01*
X97116540Y-75067438D02*
X97164159Y-75115057D01*
X97164159Y-75115057D02*
X97211778Y-75210295D01*
X97211778Y-75210295D02*
X97211778Y-75305533D01*
X97211778Y-75305533D02*
X97164159Y-75448390D01*
X97164159Y-75448390D02*
X96592731Y-76019819D01*
X96592731Y-76019819D02*
X97211778Y-76019819D01*
X98211778Y-75924580D02*
X98164159Y-75972200D01*
X98164159Y-75972200D02*
X98021302Y-76019819D01*
X98021302Y-76019819D02*
X97926064Y-76019819D01*
X97926064Y-76019819D02*
X97783207Y-75972200D01*
X97783207Y-75972200D02*
X97687969Y-75876961D01*
X97687969Y-75876961D02*
X97640350Y-75781723D01*
X97640350Y-75781723D02*
X97592731Y-75591247D01*
X97592731Y-75591247D02*
X97592731Y-75448390D01*
X97592731Y-75448390D02*
X97640350Y-75257914D01*
X97640350Y-75257914D02*
X97687969Y-75162676D01*
X97687969Y-75162676D02*
X97783207Y-75067438D01*
X97783207Y-75067438D02*
X97926064Y-75019819D01*
X97926064Y-75019819D02*
X98021302Y-75019819D01*
X98021302Y-75019819D02*
X98164159Y-75067438D01*
X98164159Y-75067438D02*
X98211778Y-75115057D01*
X88159819Y-97766666D02*
X88159819Y-98242856D01*
X88159819Y-98242856D02*
X87159819Y-98242856D01*
X88159819Y-96909523D02*
X88159819Y-97480951D01*
X88159819Y-97195237D02*
X87159819Y-97195237D01*
X87159819Y-97195237D02*
X87302676Y-97290475D01*
X87302676Y-97290475D02*
X87397914Y-97385713D01*
X87397914Y-97385713D02*
X87445533Y-97480951D01*
%TO.C,G\u002A\u002A\u002A*%
G36*
X109898683Y-106146906D02*
G01*
X109993551Y-106236656D01*
X110050509Y-106275466D01*
X110162021Y-106306397D01*
X110346434Y-106330590D01*
X110622095Y-106349187D01*
X111007350Y-106363329D01*
X111520546Y-106374158D01*
X112180029Y-106382816D01*
X112374657Y-106384822D01*
X113099549Y-106395088D01*
X113699582Y-106410075D01*
X114164802Y-106429318D01*
X114485255Y-106452352D01*
X114650987Y-106478714D01*
X114672572Y-106492000D01*
X114613840Y-106556327D01*
X114442411Y-106600563D01*
X114418500Y-106603197D01*
X114248292Y-106630700D01*
X114168377Y-106702664D01*
X114144712Y-106868844D01*
X114143334Y-107005364D01*
X114126249Y-107254536D01*
X114068315Y-107366836D01*
X114016334Y-107381000D01*
X113932626Y-107331138D01*
X113894497Y-107161597D01*
X113889334Y-107000000D01*
X113881970Y-106765717D01*
X113839457Y-106654753D01*
X113731158Y-106621153D01*
X113635334Y-106619000D01*
X113479145Y-106630044D01*
X113405169Y-106693814D01*
X113382769Y-106856263D01*
X113381334Y-107000000D01*
X113364713Y-107251122D01*
X113308199Y-107365508D01*
X113254334Y-107381000D01*
X113170626Y-107331138D01*
X113132497Y-107161597D01*
X113127334Y-107000000D01*
X113119970Y-106765717D01*
X113077457Y-106654753D01*
X112969158Y-106621153D01*
X112873334Y-106619000D01*
X112717145Y-106630044D01*
X112643169Y-106693814D01*
X112620769Y-106856263D01*
X112619334Y-107000000D01*
X112602713Y-107251122D01*
X112546199Y-107365508D01*
X112492334Y-107381000D01*
X112408626Y-107331138D01*
X112370497Y-107161597D01*
X112365334Y-107000000D01*
X112357970Y-106765717D01*
X112315457Y-106654753D01*
X112207158Y-106621153D01*
X112111334Y-106619000D01*
X111955145Y-106630044D01*
X111881169Y-106693814D01*
X111858769Y-106856263D01*
X111857334Y-107000000D01*
X111840713Y-107251122D01*
X111784199Y-107365508D01*
X111730334Y-107381000D01*
X111646626Y-107331138D01*
X111608497Y-107161597D01*
X111603334Y-107000000D01*
X111595970Y-106765717D01*
X111553457Y-106654753D01*
X111445158Y-106621153D01*
X111349334Y-106619000D01*
X111193145Y-106630044D01*
X111119169Y-106693814D01*
X111096769Y-106856263D01*
X111095334Y-107000000D01*
X111078713Y-107251122D01*
X111022199Y-107365508D01*
X110968334Y-107381000D01*
X110884626Y-107331138D01*
X110846497Y-107161597D01*
X110841334Y-107000000D01*
X110841334Y-106619000D01*
X110479172Y-106619000D01*
X110167222Y-106578596D01*
X109914381Y-106472484D01*
X109764004Y-106323312D01*
X109740667Y-106233199D01*
X109785906Y-106122686D01*
X109898683Y-106146906D01*
G37*
G36*
X112576041Y-100318861D02*
G01*
X112614170Y-100488402D01*
X112619334Y-100650000D01*
X112626697Y-100884282D01*
X112669210Y-100995246D01*
X112777509Y-101028846D01*
X112873334Y-101031000D01*
X113028497Y-101020286D01*
X113102675Y-100957774D01*
X113125684Y-100797911D01*
X113127334Y-100642944D01*
X113153282Y-100386703D01*
X113214918Y-100285250D01*
X113287929Y-100335023D01*
X113348001Y-100532463D01*
X113365035Y-100677747D01*
X113391924Y-100901360D01*
X113452934Y-101003068D01*
X113584990Y-101030276D01*
X113640202Y-101030999D01*
X113792421Y-101019863D01*
X113865194Y-100956106D01*
X113887746Y-100794203D01*
X113889334Y-100642944D01*
X113915282Y-100386703D01*
X113976918Y-100285250D01*
X114049929Y-100335023D01*
X114110001Y-100532463D01*
X114127035Y-100677747D01*
X114153070Y-101031000D01*
X114529202Y-101031000D01*
X114877887Y-101077134D01*
X115102654Y-101226445D01*
X115218853Y-101495297D01*
X115244000Y-101793000D01*
X115244000Y-102216333D01*
X115625000Y-102216333D01*
X115876122Y-102232953D01*
X115990508Y-102289467D01*
X116006000Y-102343333D01*
X115956138Y-102427040D01*
X115786597Y-102465169D01*
X115625000Y-102470333D01*
X115390717Y-102477696D01*
X115279753Y-102520209D01*
X115246154Y-102628509D01*
X115244000Y-102724333D01*
X115255045Y-102880521D01*
X115318815Y-102954497D01*
X115481264Y-102976897D01*
X115625000Y-102978333D01*
X115876122Y-102994953D01*
X115990508Y-103051467D01*
X116006000Y-103105333D01*
X115956138Y-103189040D01*
X115786597Y-103227169D01*
X115625000Y-103232333D01*
X115390717Y-103239696D01*
X115279753Y-103282209D01*
X115246154Y-103390509D01*
X115244000Y-103486333D01*
X115255045Y-103642521D01*
X115318815Y-103716497D01*
X115481264Y-103738897D01*
X115625000Y-103740333D01*
X115876122Y-103756953D01*
X115990508Y-103813467D01*
X116006000Y-103867333D01*
X115956138Y-103951040D01*
X115786597Y-103989169D01*
X115625000Y-103994333D01*
X115390717Y-104001696D01*
X115279753Y-104044209D01*
X115246154Y-104152509D01*
X115244000Y-104248333D01*
X115255045Y-104404521D01*
X115318815Y-104478497D01*
X115481264Y-104500897D01*
X115625000Y-104502333D01*
X115876122Y-104518953D01*
X115990508Y-104575467D01*
X116006000Y-104629333D01*
X115956138Y-104713040D01*
X115786597Y-104751169D01*
X115625000Y-104756333D01*
X115389893Y-104765106D01*
X115278502Y-104808229D01*
X115245455Y-104910908D01*
X115244000Y-104968000D01*
X115259792Y-105098615D01*
X115337414Y-105160499D01*
X115522236Y-105178858D01*
X115625000Y-105179666D01*
X115863095Y-105190746D01*
X115975683Y-105236751D01*
X116005855Y-105336835D01*
X116006000Y-105349000D01*
X115981071Y-105454819D01*
X115877558Y-105504859D01*
X115652371Y-105518268D01*
X115625000Y-105518333D01*
X115244000Y-105518333D01*
X115244000Y-105850075D01*
X115217289Y-106205394D01*
X115137838Y-106404612D01*
X115044442Y-106449732D01*
X115015124Y-106399635D01*
X114993007Y-106241777D01*
X114977774Y-105964875D01*
X114969106Y-105557648D01*
X114966684Y-105008812D01*
X114970191Y-104307085D01*
X114973615Y-103938850D01*
X114979919Y-103190416D01*
X114981321Y-102595354D01*
X114977300Y-102137759D01*
X114967333Y-101801724D01*
X114950899Y-101571346D01*
X114927475Y-101430719D01*
X114896542Y-101363938D01*
X114888948Y-101357748D01*
X114776865Y-101338507D01*
X114519592Y-101321179D01*
X114141268Y-101306530D01*
X113666034Y-101295328D01*
X113118028Y-101288339D01*
X112640500Y-101286296D01*
X111975614Y-101284753D01*
X111461541Y-101280289D01*
X111079773Y-101271792D01*
X110811801Y-101258153D01*
X110639113Y-101238260D01*
X110543202Y-101211003D01*
X110505557Y-101175270D01*
X110502667Y-101158000D01*
X110573253Y-101054571D01*
X110672000Y-101031000D01*
X110777820Y-101006071D01*
X110827859Y-100902558D01*
X110841269Y-100677370D01*
X110841334Y-100650000D01*
X110857954Y-100398877D01*
X110914468Y-100284491D01*
X110968334Y-100269000D01*
X111052041Y-100318861D01*
X111090170Y-100488402D01*
X111095334Y-100650000D01*
X111102697Y-100884282D01*
X111145210Y-100995246D01*
X111253509Y-101028846D01*
X111349334Y-101031000D01*
X111505522Y-101019955D01*
X111579498Y-100956185D01*
X111601898Y-100793736D01*
X111603334Y-100650000D01*
X111619954Y-100398877D01*
X111676468Y-100284491D01*
X111730334Y-100269000D01*
X111814041Y-100318861D01*
X111852170Y-100488402D01*
X111857334Y-100650000D01*
X111864697Y-100884282D01*
X111907210Y-100995246D01*
X112015509Y-101028846D01*
X112111334Y-101031000D01*
X112267522Y-101019955D01*
X112341498Y-100956185D01*
X112363898Y-100793736D01*
X112365334Y-100650000D01*
X112381954Y-100398877D01*
X112438468Y-100284491D01*
X112492334Y-100269000D01*
X112576041Y-100318861D01*
G37*
G36*
X110306820Y-101070460D02*
G01*
X110300531Y-101156323D01*
X110185167Y-101262248D01*
X110126793Y-101305338D01*
X110081758Y-101360119D01*
X110048330Y-101447203D01*
X110024781Y-101587202D01*
X110009380Y-101800727D01*
X110000398Y-102108392D01*
X109996103Y-102530808D01*
X109994768Y-103088588D01*
X109994667Y-103532068D01*
X109992699Y-104123248D01*
X109987162Y-104662551D01*
X109978610Y-105125525D01*
X109967594Y-105487714D01*
X109954667Y-105724666D01*
X109943275Y-105807741D01*
X109855776Y-105931378D01*
X109775602Y-105902148D01*
X109740667Y-105734638D01*
X109723133Y-105607838D01*
X109641231Y-105541452D01*
X109451014Y-105510038D01*
X109338500Y-105501805D01*
X109073035Y-105466640D01*
X108951085Y-105399313D01*
X108936334Y-105349000D01*
X108993750Y-105261484D01*
X109182170Y-105210883D01*
X109338500Y-105196194D01*
X109582907Y-105171256D01*
X109701772Y-105121174D01*
X109738886Y-105021098D01*
X109740667Y-104968000D01*
X109721868Y-104842989D01*
X109636081Y-104777692D01*
X109439218Y-104746674D01*
X109345118Y-104739805D01*
X109057570Y-104697491D01*
X108918858Y-104631727D01*
X108932081Y-104563636D01*
X109100338Y-104514343D01*
X109310278Y-104502333D01*
X109563557Y-104496905D01*
X109690834Y-104463889D01*
X109735424Y-104378192D01*
X109740667Y-104252972D01*
X109728415Y-104100735D01*
X109661663Y-104023280D01*
X109495415Y-103989307D01*
X109345118Y-103977805D01*
X109057570Y-103935491D01*
X108918858Y-103869727D01*
X108932081Y-103801636D01*
X109100338Y-103752343D01*
X109310278Y-103740333D01*
X109563530Y-103735028D01*
X109690790Y-103702066D01*
X109735387Y-103615877D01*
X109740667Y-103486333D01*
X109731418Y-103335971D01*
X109674551Y-103260991D01*
X109526386Y-103235185D01*
X109317334Y-103232333D01*
X109051115Y-103218737D01*
X108921089Y-103171665D01*
X108894000Y-103105333D01*
X108939320Y-103025467D01*
X109096227Y-102986460D01*
X109317334Y-102978333D01*
X109567936Y-102972784D01*
X109692903Y-102938663D01*
X109735913Y-102849764D01*
X109740667Y-102724333D01*
X109731418Y-102573971D01*
X109674551Y-102498991D01*
X109526386Y-102473185D01*
X109317334Y-102470333D01*
X109051115Y-102456737D01*
X108921089Y-102409665D01*
X108894000Y-102343333D01*
X108939720Y-102263112D01*
X109097769Y-102224167D01*
X109313108Y-102216333D01*
X109732216Y-102216333D01*
X109757608Y-101732317D01*
X109782376Y-101446249D01*
X109833401Y-101276299D01*
X109932711Y-101169304D01*
X110011033Y-101120738D01*
X110200337Y-101050486D01*
X110306820Y-101070460D01*
G37*
G36*
X112945721Y-102045401D02*
G01*
X113374385Y-102058033D01*
X113736248Y-102079189D01*
X113997607Y-102108868D01*
X114124758Y-102147071D01*
X114126400Y-102148599D01*
X114166524Y-102253384D01*
X114196016Y-102484138D01*
X114215573Y-102852478D01*
X114225895Y-103370021D01*
X114228000Y-103838954D01*
X114226948Y-104396414D01*
X114222245Y-104808312D01*
X114211569Y-105098413D01*
X114192598Y-105290484D01*
X114163010Y-105408290D01*
X114120485Y-105475597D01*
X114064233Y-105515354D01*
X113915187Y-105550331D01*
X113637684Y-105576649D01*
X113265561Y-105594454D01*
X112832655Y-105603894D01*
X112372805Y-105605115D01*
X111919849Y-105598267D01*
X111507623Y-105583495D01*
X111169965Y-105560946D01*
X110940713Y-105530769D01*
X110858267Y-105501400D01*
X110820217Y-105380178D01*
X110817371Y-105355592D01*
X112534667Y-105355592D01*
X113275500Y-105331129D01*
X113631793Y-105316433D01*
X113852912Y-105294717D01*
X113972997Y-105256425D01*
X114026190Y-105191999D01*
X114043389Y-105116166D01*
X114048438Y-105026263D01*
X114011644Y-104970295D01*
X113901768Y-104940229D01*
X113687573Y-104928031D01*
X113337821Y-104925671D01*
X113302555Y-104925666D01*
X112940173Y-104927246D01*
X112714660Y-104938045D01*
X112593556Y-104967150D01*
X112544397Y-105023649D01*
X112534721Y-105116630D01*
X112534667Y-105140629D01*
X112534667Y-105355592D01*
X110817371Y-105355592D01*
X110790455Y-105123043D01*
X110768978Y-104763211D01*
X110766166Y-104671666D01*
X112534667Y-104671666D01*
X113299056Y-104671666D01*
X114063445Y-104671666D01*
X114039889Y-103507500D01*
X114016334Y-102343333D01*
X113698834Y-102317055D01*
X113381334Y-102290778D01*
X113381334Y-102807950D01*
X113390345Y-103108957D01*
X113429812Y-103298819D01*
X113518384Y-103435310D01*
X113612444Y-103523914D01*
X113763347Y-103677687D01*
X113797700Y-103815316D01*
X113759102Y-103962845D01*
X113605272Y-104186277D01*
X113443710Y-104284200D01*
X113271596Y-104319503D01*
X113124051Y-104264123D01*
X112965265Y-104128293D01*
X112759334Y-103971564D01*
X112622878Y-103967836D01*
X112550382Y-104119796D01*
X112534667Y-104337996D01*
X112534667Y-104671666D01*
X110766166Y-104671666D01*
X110755789Y-104333901D01*
X110750886Y-103868329D01*
X110754270Y-103399712D01*
X110765940Y-102961268D01*
X110785897Y-102586214D01*
X110814141Y-102307766D01*
X110850671Y-102159142D01*
X110858267Y-102148599D01*
X110979979Y-102110091D01*
X111237108Y-102080106D01*
X111595949Y-102058644D01*
X112022800Y-102045706D01*
X112483959Y-102041292D01*
X112945721Y-102045401D01*
G37*
D11*
%TO.C,J2*%
X108235000Y-69485000D02*
X108170000Y-69485000D01*
X108170000Y-68160000D02*
X108170000Y-69485000D01*
X101830000Y-73015000D02*
X101765000Y-73015000D01*
X108235000Y-73015000D02*
X108170000Y-73015000D01*
X108235000Y-69485000D02*
X108235000Y-73015000D01*
X101765000Y-69485000D02*
X101765000Y-73015000D01*
X101830000Y-69485000D02*
X101765000Y-69485000D01*
%TO.C,F1*%
X119202064Y-92360000D02*
X117997936Y-92360000D01*
X119202064Y-90540000D02*
X117997936Y-90540000D01*
%TO.C,D2*%
X109190000Y-96750000D02*
X109190000Y-98750000D01*
X109190000Y-96750000D02*
X113200000Y-96750000D01*
X109190000Y-98750000D02*
X113200000Y-98750000D01*
%TO.C,R5*%
X101096359Y-79870000D02*
X101403641Y-79870000D01*
X101096359Y-80630000D02*
X101403641Y-80630000D01*
%TO.C,C7*%
X106340000Y-96907836D02*
X106340000Y-96692164D01*
X107060000Y-96907836D02*
X107060000Y-96692164D01*
%TO.C,C1*%
X92860000Y-87042164D02*
X92860000Y-87257836D01*
X92140000Y-87042164D02*
X92140000Y-87257836D01*
%TO.C,D1*%
X92165000Y-98235000D02*
X93635000Y-98235000D01*
X93635000Y-98235000D02*
X93635000Y-95950000D01*
X92165000Y-95950000D02*
X92165000Y-98235000D01*
%TO.C,C13*%
X111638748Y-81840000D02*
X113061252Y-81840000D01*
X111638748Y-83660000D02*
X113061252Y-83660000D01*
%TO.C,D4*%
X109765000Y-79765000D02*
X109765000Y-81235000D01*
X109765000Y-81235000D02*
X112050000Y-81235000D01*
X112050000Y-79765000D02*
X109765000Y-79765000D01*
%TO.C,C8*%
X92092164Y-85140000D02*
X92307836Y-85140000D01*
X92092164Y-85860000D02*
X92307836Y-85860000D01*
%TO.C,C15*%
X111263748Y-73235000D02*
X112686252Y-73235000D01*
X111263748Y-71415000D02*
X112686252Y-71415000D01*
%TO.C,L2*%
X121435000Y-89835000D02*
X121435000Y-88485000D01*
X121435000Y-89835000D02*
X115515000Y-89835000D01*
X121435000Y-84115000D02*
X121435000Y-85465000D01*
X121435000Y-84115000D02*
X115515000Y-84115000D01*
X115515000Y-89835000D02*
X115515000Y-88485000D01*
X115515000Y-84115000D02*
X115515000Y-85465000D01*
%TO.C,C12*%
X89559420Y-92390000D02*
X89840580Y-92390000D01*
X89559420Y-93410000D02*
X89840580Y-93410000D01*
%TO.C,R1*%
X92120000Y-89303641D02*
X92120000Y-88996359D01*
X92880000Y-89303641D02*
X92880000Y-88996359D01*
%TO.C,J5*%
X93515000Y-102890000D02*
X93515000Y-108610000D01*
X93515000Y-108610000D02*
X97000000Y-108610000D01*
X94585000Y-102890000D02*
X93515000Y-102890000D01*
X94585000Y-103190000D02*
X94585000Y-102890000D01*
X94875000Y-102600000D02*
X94375000Y-102600000D01*
X94875000Y-102900000D02*
X94875000Y-102600000D01*
X97000000Y-103190000D02*
X94585000Y-103190000D01*
X97000000Y-103190000D02*
X99415000Y-103190000D01*
X99415000Y-102890000D02*
X100485000Y-102890000D01*
X99415000Y-103190000D02*
X99415000Y-102890000D01*
X100485000Y-102890000D02*
X100485000Y-108610000D01*
X100485000Y-108610000D02*
X97000000Y-108610000D01*
%TO.C,U3*%
X118750000Y-96310000D02*
X120550000Y-96310000D01*
X118750000Y-96310000D02*
X117950000Y-96310000D01*
X118750000Y-93190000D02*
X119550000Y-93190000D01*
X118750000Y-93190000D02*
X117950000Y-93190000D01*
%TO.C,R4*%
X98996359Y-79870000D02*
X99303641Y-79870000D01*
X98996359Y-80630000D02*
X99303641Y-80630000D01*
%TO.C,U1*%
X95140000Y-84140000D02*
X95140000Y-85090000D01*
X95140000Y-85090000D02*
X93800000Y-85090000D01*
X95140000Y-94360000D02*
X95140000Y-93410000D01*
X96090000Y-84140000D02*
X95140000Y-84140000D01*
X96090000Y-94360000D02*
X95140000Y-94360000D01*
X104410000Y-84140000D02*
X105360000Y-84140000D01*
X104410000Y-94360000D02*
X105360000Y-94360000D01*
X105360000Y-84140000D02*
X105360000Y-85090000D01*
X105360000Y-94360000D02*
X105360000Y-93410000D01*
%TO.C,R9*%
X109262742Y-78227500D02*
X109737258Y-78227500D01*
X109262742Y-79272500D02*
X109737258Y-79272500D01*
%TO.C,R11*%
X113427500Y-77987258D02*
X113427500Y-77512742D01*
X114472500Y-77987258D02*
X114472500Y-77512742D01*
%TO.C,SW1*%
X82320000Y-77800000D02*
X81530000Y-77800000D01*
X80520000Y-78400000D02*
X80520000Y-84100000D01*
X83370000Y-79650000D02*
X83370000Y-81350000D01*
X80520000Y-79850000D02*
X79230000Y-79850000D01*
X79230000Y-79850000D02*
X79020000Y-80050000D01*
X79020000Y-80050000D02*
X79020000Y-80950000D01*
X79230000Y-81150000D02*
X79020000Y-80950000D01*
X79230000Y-81150000D02*
X80520000Y-81150000D01*
X83370000Y-82650000D02*
X83370000Y-82850000D01*
X81530000Y-84700000D02*
X82320000Y-84700000D01*
%TO.C,C5*%
X96582836Y-81985000D02*
X96367164Y-81985000D01*
X96582836Y-81265000D02*
X96367164Y-81265000D01*
%TO.C,J4*%
X128115000Y-98010000D02*
X124885000Y-98010000D01*
X132285000Y-98010000D02*
X130335000Y-98010000D01*
X122965000Y-97290000D02*
X122965000Y-96210000D01*
X122965000Y-96210000D02*
X122535000Y-96210000D01*
X122965000Y-91990000D02*
X122965000Y-90910000D01*
X128115000Y-90190000D02*
X124885000Y-90190000D01*
X132285000Y-90190000D02*
X132285000Y-98010000D01*
X132285000Y-90190000D02*
X130335000Y-90190000D01*
%TO.C,C10*%
X104640580Y-97760000D02*
X104359420Y-97760000D01*
X104640580Y-96740000D02*
X104359420Y-96740000D01*
%TO.C,C9*%
X109510000Y-85009420D02*
X109510000Y-85290580D01*
X108490000Y-85009420D02*
X108490000Y-85290580D01*
%TO.C,R10*%
X116197500Y-77487742D02*
X116197500Y-77962258D01*
X115152500Y-77487742D02*
X115152500Y-77962258D01*
%TO.C,R8*%
X115512742Y-74277500D02*
X115987258Y-74277500D01*
X115512742Y-75322500D02*
X115987258Y-75322500D01*
%TO.C,C3*%
X107890580Y-81510000D02*
X107609420Y-81510000D01*
X107890580Y-80490000D02*
X107609420Y-80490000D01*
%TO.C,Q1*%
X112875000Y-89115000D02*
X111200000Y-89115000D01*
X112875000Y-89115000D02*
X113525000Y-89115000D01*
X112875000Y-92235000D02*
X112225000Y-92235000D01*
X112875000Y-92235000D02*
X113525000Y-92235000D01*
%TO.C,C4*%
X96892164Y-96440000D02*
X97107836Y-96440000D01*
X96892164Y-97160000D02*
X97107836Y-97160000D01*
%TO.C,R7*%
X119012742Y-74227500D02*
X119487258Y-74227500D01*
X119012742Y-75272500D02*
X119487258Y-75272500D01*
%TO.C,C6*%
X107107836Y-84310000D02*
X106892164Y-84310000D01*
X107107836Y-83590000D02*
X106892164Y-83590000D01*
%TO.C,J1*%
X131460000Y-85750000D02*
X132100000Y-85750000D01*
X132100000Y-85750000D02*
X132100000Y-85350000D01*
X124140000Y-85510000D02*
X131860000Y-85510000D01*
X124140000Y-85510000D02*
X124140000Y-78390000D01*
X130300000Y-85510000D02*
X130300000Y-78390000D01*
X131400000Y-85510000D02*
X131400000Y-78390000D01*
X131860000Y-85510000D02*
X131860000Y-78390000D01*
X128241000Y-81345000D02*
X128369000Y-81474000D01*
X128481000Y-81175000D02*
X128574000Y-81269000D01*
X126025000Y-79130000D02*
X126119000Y-79224000D01*
X126231000Y-78925000D02*
X126359000Y-79054000D01*
X124140000Y-78390000D02*
X131860000Y-78390000D01*
X126434000Y-85140000D02*
G75*
G03*
X128189894Y-85125358I866000J1439998D01*
G01*
X125860000Y-82834000D02*
G75*
G03*
X125874642Y-84589894I1439998J-866000D01*
G01*
X128740000Y-84566000D02*
G75*
G03*
X128980098Y-83671326I-1440014J866003D01*
G01*
X128979999Y-83700000D02*
G75*
G03*
X128724720Y-82809736I-1679989J3D01*
G01*
X128190999Y-82275001D02*
G75*
G03*
X126409808Y-82274497I-890999J-1425002D01*
G01*
X128980000Y-80200000D02*
G75*
G03*
X128980000Y-80200000I-1680000J0D01*
G01*
%TO.C,R2*%
X95522500Y-96462742D02*
X95522500Y-96937258D01*
X94477500Y-96462742D02*
X94477500Y-96937258D01*
%TO.C,C16*%
X120057836Y-80760000D02*
X119842164Y-80760000D01*
X120057836Y-80040000D02*
X119842164Y-80040000D01*
%TO.C,C11*%
X92860000Y-91859420D02*
X92860000Y-92140580D01*
X91840000Y-91859420D02*
X91840000Y-92140580D01*
%TO.C,J3*%
X100485000Y-74110000D02*
X100485000Y-68390000D01*
X100485000Y-68390000D02*
X97000000Y-68390000D01*
X99415000Y-74110000D02*
X100485000Y-74110000D01*
X99415000Y-73810000D02*
X99415000Y-74110000D01*
X99125000Y-74400000D02*
X99625000Y-74400000D01*
X99125000Y-74100000D02*
X99125000Y-74400000D01*
X97000000Y-73810000D02*
X99415000Y-73810000D01*
X97000000Y-73810000D02*
X94585000Y-73810000D01*
X94585000Y-74110000D02*
X93515000Y-74110000D01*
X94585000Y-73810000D02*
X94585000Y-74110000D01*
X93515000Y-74110000D02*
X93515000Y-68390000D01*
X93515000Y-68390000D02*
X97000000Y-68390000D01*
%TO.C,FB1*%
X112350378Y-84940000D02*
X113149622Y-84940000D01*
X112350378Y-86060000D02*
X113149622Y-86060000D01*
%TO.C,C14*%
X117788748Y-73460000D02*
X119211252Y-73460000D01*
X117788748Y-71640000D02*
X119211252Y-71640000D01*
%TO.C,R6*%
X121777500Y-76187258D02*
X121777500Y-75712742D01*
X122822500Y-76187258D02*
X122822500Y-75712742D01*
%TO.C,Y1*%
X91550000Y-86250000D02*
X88250000Y-86250000D01*
X88250000Y-86250000D02*
X88250000Y-90250000D01*
%TO.C,U2*%
X118950000Y-79460000D02*
X120750000Y-79460000D01*
X118950000Y-79460000D02*
X118150000Y-79460000D01*
X118950000Y-76340000D02*
X119750000Y-76340000D01*
X118950000Y-76340000D02*
X118150000Y-76340000D01*
%TO.C,C2*%
X89992164Y-90840000D02*
X90207836Y-90840000D01*
X89992164Y-91560000D02*
X90207836Y-91560000D01*
%TO.C,R3*%
X96262742Y-79727500D02*
X96737258Y-79727500D01*
X96262742Y-80772500D02*
X96737258Y-80772500D01*
%TO.C,D3*%
X121760000Y-83650000D02*
X121760000Y-81650000D01*
X121760000Y-83650000D02*
X117750000Y-83650000D01*
X121760000Y-81650000D02*
X117750000Y-81650000D01*
%TD*%
M02*
