%TF.GenerationSoftware,KiCad,Pcbnew,7.0.7*%
%TF.CreationDate,2023-10-16T17:07:58+03:00*%
%TF.ProjectId,custom_stm_design,63757374-6f6d-45f7-9374-6d5f64657369,rev?*%
%TF.SameCoordinates,Original*%
%TF.FileFunction,Copper,L1,Top*%
%TF.FilePolarity,Positive*%
%FSLAX46Y46*%
G04 Gerber Fmt 4.6, Leading zero omitted, Abs format (unit mm)*
G04 Created by KiCad (PCBNEW 7.0.7) date 2023-10-16 17:07:58*
%MOMM*%
%LPD*%
G01*
G04 APERTURE LIST*
G04 Aperture macros list*
%AMRoundRect*
0 Rectangle with rounded corners*
0 $1 Rounding radius*
0 $2 $3 $4 $5 $6 $7 $8 $9 X,Y pos of 4 corners*
0 Add a 4 corners polygon primitive as box body*
4,1,4,$2,$3,$4,$5,$6,$7,$8,$9,$2,$3,0*
0 Add four circle primitives for the rounded corners*
1,1,$1+$1,$2,$3*
1,1,$1+$1,$4,$5*
1,1,$1+$1,$6,$7*
1,1,$1+$1,$8,$9*
0 Add four rect primitives between the rounded corners*
20,1,$1+$1,$2,$3,$4,$5,0*
20,1,$1+$1,$4,$5,$6,$7,0*
20,1,$1+$1,$6,$7,$8,$9,0*
20,1,$1+$1,$8,$9,$2,$3,0*%
G04 Aperture macros list end*
%TA.AperFunction,SMDPad,CuDef*%
%ADD10R,0.740000X2.400000*%
%TD*%
%TA.AperFunction,ComponentPad*%
%ADD11C,0.900000*%
%TD*%
%TA.AperFunction,ComponentPad*%
%ADD12C,8.600000*%
%TD*%
%TA.AperFunction,SMDPad,CuDef*%
%ADD13RoundRect,0.250000X0.375000X0.625000X-0.375000X0.625000X-0.375000X-0.625000X0.375000X-0.625000X0*%
%TD*%
%TA.AperFunction,SMDPad,CuDef*%
%ADD14RoundRect,0.225000X-0.225000X-0.375000X0.225000X-0.375000X0.225000X0.375000X-0.225000X0.375000X0*%
%TD*%
%TA.AperFunction,SMDPad,CuDef*%
%ADD15RoundRect,0.135000X-0.135000X-0.185000X0.135000X-0.185000X0.135000X0.185000X-0.135000X0.185000X0*%
%TD*%
%TA.AperFunction,SMDPad,CuDef*%
%ADD16RoundRect,0.140000X0.170000X-0.140000X0.170000X0.140000X-0.170000X0.140000X-0.170000X-0.140000X0*%
%TD*%
%TA.AperFunction,SMDPad,CuDef*%
%ADD17RoundRect,0.140000X-0.170000X0.140000X-0.170000X-0.140000X0.170000X-0.140000X0.170000X0.140000X0*%
%TD*%
%TA.AperFunction,SMDPad,CuDef*%
%ADD18RoundRect,0.218750X0.256250X-0.218750X0.256250X0.218750X-0.256250X0.218750X-0.256250X-0.218750X0*%
%TD*%
%TA.AperFunction,SMDPad,CuDef*%
%ADD19RoundRect,0.250000X-0.325000X-0.650000X0.325000X-0.650000X0.325000X0.650000X-0.325000X0.650000X0*%
%TD*%
%TA.AperFunction,SMDPad,CuDef*%
%ADD20RoundRect,0.218750X-0.218750X-0.256250X0.218750X-0.256250X0.218750X0.256250X-0.218750X0.256250X0*%
%TD*%
%TA.AperFunction,SMDPad,CuDef*%
%ADD21RoundRect,0.140000X-0.140000X-0.170000X0.140000X-0.170000X0.140000X0.170000X-0.140000X0.170000X0*%
%TD*%
%TA.AperFunction,SMDPad,CuDef*%
%ADD22R,1.900000X2.500000*%
%TD*%
%TA.AperFunction,SMDPad,CuDef*%
%ADD23RoundRect,0.225000X-0.225000X-0.250000X0.225000X-0.250000X0.225000X0.250000X-0.225000X0.250000X0*%
%TD*%
%TA.AperFunction,SMDPad,CuDef*%
%ADD24RoundRect,0.147500X0.172500X-0.147500X0.172500X0.147500X-0.172500X0.147500X-0.172500X-0.147500X0*%
%TD*%
%TA.AperFunction,SMDPad,CuDef*%
%ADD25RoundRect,0.135000X0.185000X-0.135000X0.185000X0.135000X-0.185000X0.135000X-0.185000X-0.135000X0*%
%TD*%
%TA.AperFunction,ComponentPad*%
%ADD26RoundRect,0.200000X-0.200000X-0.450000X0.200000X-0.450000X0.200000X0.450000X-0.200000X0.450000X0*%
%TD*%
%TA.AperFunction,ComponentPad*%
%ADD27O,0.800000X1.300000*%
%TD*%
%TA.AperFunction,SMDPad,CuDef*%
%ADD28RoundRect,0.150000X0.512500X0.150000X-0.512500X0.150000X-0.512500X-0.150000X0.512500X-0.150000X0*%
%TD*%
%TA.AperFunction,SMDPad,CuDef*%
%ADD29RoundRect,0.075000X-0.700000X-0.075000X0.700000X-0.075000X0.700000X0.075000X-0.700000X0.075000X0*%
%TD*%
%TA.AperFunction,SMDPad,CuDef*%
%ADD30RoundRect,0.075000X-0.075000X-0.700000X0.075000X-0.700000X0.075000X0.700000X-0.075000X0.700000X0*%
%TD*%
%TA.AperFunction,SMDPad,CuDef*%
%ADD31RoundRect,0.200000X-0.200000X-0.275000X0.200000X-0.275000X0.200000X0.275000X-0.200000X0.275000X0*%
%TD*%
%TA.AperFunction,SMDPad,CuDef*%
%ADD32RoundRect,0.200000X0.275000X-0.200000X0.275000X0.200000X-0.275000X0.200000X-0.275000X-0.200000X0*%
%TD*%
%TA.AperFunction,SMDPad,CuDef*%
%ADD33R,0.800000X1.000000*%
%TD*%
%TA.AperFunction,SMDPad,CuDef*%
%ADD34R,1.500000X0.700000*%
%TD*%
%TA.AperFunction,SMDPad,CuDef*%
%ADD35RoundRect,0.140000X0.140000X0.170000X-0.140000X0.170000X-0.140000X-0.170000X0.140000X-0.170000X0*%
%TD*%
%TA.AperFunction,SMDPad,CuDef*%
%ADD36R,2.000000X0.500000*%
%TD*%
%TA.AperFunction,SMDPad,CuDef*%
%ADD37R,1.700000X2.000000*%
%TD*%
%TA.AperFunction,SMDPad,CuDef*%
%ADD38RoundRect,0.225000X0.225000X0.250000X-0.225000X0.250000X-0.225000X-0.250000X0.225000X-0.250000X0*%
%TD*%
%TA.AperFunction,SMDPad,CuDef*%
%ADD39RoundRect,0.225000X-0.250000X0.225000X-0.250000X-0.225000X0.250000X-0.225000X0.250000X0.225000X0*%
%TD*%
%TA.AperFunction,SMDPad,CuDef*%
%ADD40RoundRect,0.200000X-0.275000X0.200000X-0.275000X-0.200000X0.275000X-0.200000X0.275000X0.200000X0*%
%TD*%
%TA.AperFunction,SMDPad,CuDef*%
%ADD41RoundRect,0.150000X-0.587500X-0.150000X0.587500X-0.150000X0.587500X0.150000X-0.587500X0.150000X0*%
%TD*%
%TA.AperFunction,ComponentPad*%
%ADD42R,2.400000X2.400000*%
%TD*%
%TA.AperFunction,ComponentPad*%
%ADD43C,2.400000*%
%TD*%
%TA.AperFunction,ComponentPad*%
%ADD44RoundRect,0.200000X0.200000X0.450000X-0.200000X0.450000X-0.200000X-0.450000X0.200000X-0.450000X0*%
%TD*%
%TA.AperFunction,SMDPad,CuDef*%
%ADD45RoundRect,0.218750X-0.218750X-0.381250X0.218750X-0.381250X0.218750X0.381250X-0.218750X0.381250X0*%
%TD*%
%TA.AperFunction,SMDPad,CuDef*%
%ADD46R,1.200000X1.400000*%
%TD*%
%TA.AperFunction,SMDPad,CuDef*%
%ADD47RoundRect,0.225000X0.225000X0.375000X-0.225000X0.375000X-0.225000X-0.375000X0.225000X-0.375000X0*%
%TD*%
%TA.AperFunction,ViaPad*%
%ADD48C,0.800000*%
%TD*%
%TA.AperFunction,Conductor*%
%ADD49C,0.750000*%
%TD*%
%TA.AperFunction,Conductor*%
%ADD50C,0.300000*%
%TD*%
%TA.AperFunction,Conductor*%
%ADD51C,0.400000*%
%TD*%
%TA.AperFunction,Conductor*%
%ADD52C,0.500000*%
%TD*%
%TA.AperFunction,Conductor*%
%ADD53C,0.261112*%
%TD*%
G04 APERTURE END LIST*
D10*
%TO.P,J2,1,Pin_1*%
%TO.N,+3.3V*%
X107540000Y-69300000D03*
%TO.P,J2,2,Pin_2*%
%TO.N,SWDIO*%
X107540000Y-73200000D03*
%TO.P,J2,3,Pin_3*%
%TO.N,GND*%
X106270000Y-69300000D03*
%TO.P,J2,4,Pin_4*%
%TO.N,SWCLK*%
X106270000Y-73200000D03*
%TO.P,J2,5,Pin_5*%
%TO.N,GND*%
X105000000Y-69300000D03*
%TO.P,J2,6,Pin_6*%
%TO.N,SWD*%
X105000000Y-73200000D03*
%TO.P,J2,7,Pin_7*%
%TO.N,unconnected-(J2-Pin_7-Pad7)*%
X103730000Y-69300000D03*
%TO.P,J2,8,Pin_8*%
%TO.N,unconnected-(J2-Pin_8-Pad8)*%
X103730000Y-73200000D03*
%TO.P,J2,9,Pin_9*%
%TO.N,GND*%
X102460000Y-69300000D03*
%TO.P,J2,10,Pin_10*%
%TO.N,NRST*%
X102460000Y-73200000D03*
%TD*%
D11*
%TO.P,H4,1,1*%
%TO.N,GND*%
X81775000Y-106000000D03*
X82719581Y-103719581D03*
X82719581Y-108280419D03*
X85000000Y-102775000D03*
D12*
X85000000Y-106000000D03*
D11*
X85000000Y-109225000D03*
X87280419Y-103719581D03*
X87280419Y-108280419D03*
X88225000Y-106000000D03*
%TD*%
D13*
%TO.P,F1,1*%
%TO.N,+12V*%
X120000000Y-91450000D03*
%TO.P,F1,2*%
%TO.N,Net-(Q1-D)*%
X117200000Y-91450000D03*
%TD*%
D14*
%TO.P,D2,1,K*%
%TO.N,Net-(D2-K)*%
X109900000Y-97750000D03*
%TO.P,D2,2,A*%
%TO.N,+5V*%
X113200000Y-97750000D03*
%TD*%
D11*
%TO.P,H2,1,1*%
%TO.N,GND*%
X124775000Y-106000000D03*
X125719581Y-103719581D03*
X125719581Y-108280419D03*
X128000000Y-102775000D03*
D12*
X128000000Y-106000000D03*
D11*
X128000000Y-109225000D03*
X130280419Y-103719581D03*
X130280419Y-108280419D03*
X131225000Y-106000000D03*
%TD*%
D15*
%TO.P,R5,1*%
%TO.N,I2C1_SCL*%
X100740000Y-80250000D03*
%TO.P,R5,2*%
%TO.N,+3.3V*%
X101760000Y-80250000D03*
%TD*%
D16*
%TO.P,C7,1*%
%TO.N,GND*%
X106700000Y-97280000D03*
%TO.P,C7,2*%
%TO.N,+3.3V*%
X106700000Y-96320000D03*
%TD*%
D17*
%TO.P,C1,1*%
%TO.N,GND*%
X92500000Y-86670000D03*
%TO.P,C1,2*%
%TO.N,HSE_IN*%
X92500000Y-87630000D03*
%TD*%
D18*
%TO.P,D1,1,K*%
%TO.N,Net-(D1-K)*%
X92900000Y-97537500D03*
%TO.P,D1,2,A*%
%TO.N,LED_Status*%
X92900000Y-95962500D03*
%TD*%
D19*
%TO.P,C13,1*%
%TO.N,GND*%
X110875000Y-82750000D03*
%TO.P,C13,2*%
%TO.N,BUCK_IN*%
X113825000Y-82750000D03*
%TD*%
D20*
%TO.P,D4,1,K*%
%TO.N,Net-(D4-K)*%
X110462500Y-80500000D03*
%TO.P,D4,2,A*%
%TO.N,+3.3V*%
X112037500Y-80500000D03*
%TD*%
D21*
%TO.P,C8,1*%
%TO.N,GND*%
X91720000Y-85500000D03*
%TO.P,C8,2*%
%TO.N,+3.3V*%
X92680000Y-85500000D03*
%TD*%
D19*
%TO.P,C15,2*%
%TO.N,+3.3V*%
X113450000Y-72325000D03*
%TO.P,C15,1*%
%TO.N,GND*%
X110500000Y-72325000D03*
%TD*%
D22*
%TO.P,L2,1*%
%TO.N,BUCK_SW*%
X120525000Y-86975000D03*
%TO.P,L2,2*%
%TO.N,+3.3V*%
X116425000Y-86975000D03*
%TD*%
D23*
%TO.P,C12,1*%
%TO.N,GND*%
X88925000Y-92900000D03*
%TO.P,C12,2*%
%TO.N,+3.3VA*%
X90475000Y-92900000D03*
%TD*%
D24*
%TO.P,L1,1*%
%TO.N,+3.3V*%
X88875000Y-98085000D03*
%TO.P,L1,2*%
%TO.N,+3.3VA*%
X88875000Y-97115000D03*
%TD*%
D25*
%TO.P,R1,1*%
%TO.N,Net-(C2-Pad2)*%
X92500000Y-89660000D03*
%TO.P,R1,2*%
%TO.N,HSE_OUT*%
X92500000Y-88640000D03*
%TD*%
D26*
%TO.P,J5,1,Pin_1*%
%TO.N,+3.3V*%
X95125000Y-104050000D03*
D27*
%TO.P,J5,2,Pin_2*%
%TO.N,USART3_TX*%
X96375000Y-104050000D03*
%TO.P,J5,3,Pin_3*%
%TO.N,USART3_RX*%
X97625000Y-104050000D03*
%TO.P,J5,4,Pin_4*%
%TO.N,GND*%
X98875000Y-104050000D03*
%TD*%
D28*
%TO.P,U3,1,I/O1*%
%TO.N,USB_CONN_D-*%
X119887500Y-95700000D03*
%TO.P,U3,2,GND*%
%TO.N,GND*%
X119887500Y-94750000D03*
%TO.P,U3,3,I/O2*%
%TO.N,USB_CONN_D+*%
X119887500Y-93800000D03*
%TO.P,U3,4,I/O2*%
%TO.N,USB_D+*%
X117612500Y-93800000D03*
%TO.P,U3,5,VBUS*%
%TO.N,+5V*%
X117612500Y-94750000D03*
%TO.P,U3,6,I/O1*%
%TO.N,USB_D-*%
X117612500Y-95700000D03*
%TD*%
D15*
%TO.P,R4,1*%
%TO.N,I2C1_SDA*%
X98640000Y-80250000D03*
%TO.P,R4,2*%
%TO.N,+3.3V*%
X99660000Y-80250000D03*
%TD*%
D29*
%TO.P,U1,1,VBAT*%
%TO.N,+3.3V*%
X94575000Y-85500000D03*
%TO.P,U1,2,PC13*%
%TO.N,unconnected-(U1-PC13-Pad2)*%
X94575000Y-86000000D03*
%TO.P,U1,3,PC14*%
%TO.N,unconnected-(U1-PC14-Pad3)*%
X94575000Y-86500000D03*
%TO.P,U1,4,PC15*%
%TO.N,unconnected-(U1-PC15-Pad4)*%
X94575000Y-87000000D03*
%TO.P,U1,5,PH0*%
%TO.N,HSE_IN*%
X94575000Y-87500000D03*
%TO.P,U1,6,PH1*%
%TO.N,HSE_OUT*%
X94575000Y-88000000D03*
%TO.P,U1,7,NRST*%
%TO.N,NRST*%
X94575000Y-88500000D03*
%TO.P,U1,8,PC0*%
%TO.N,unconnected-(U1-PC0-Pad8)*%
X94575000Y-89000000D03*
%TO.P,U1,9,PC1*%
%TO.N,unconnected-(U1-PC1-Pad9)*%
X94575000Y-89500000D03*
%TO.P,U1,10,PC2*%
%TO.N,unconnected-(U1-PC2-Pad10)*%
X94575000Y-90000000D03*
%TO.P,U1,11,PC3*%
%TO.N,unconnected-(U1-PC3-Pad11)*%
X94575000Y-90500000D03*
%TO.P,U1,12,VSSA*%
%TO.N,GND*%
X94575000Y-91000000D03*
%TO.P,U1,13,VDDA*%
%TO.N,+3.3VA*%
X94575000Y-91500000D03*
%TO.P,U1,14,PA0*%
%TO.N,unconnected-(U1-PA0-Pad14)*%
X94575000Y-92000000D03*
%TO.P,U1,15,PA1*%
%TO.N,unconnected-(U1-PA1-Pad15)*%
X94575000Y-92500000D03*
%TO.P,U1,16,PA2*%
%TO.N,LED_Status*%
X94575000Y-93000000D03*
D30*
%TO.P,U1,17,PA3*%
%TO.N,unconnected-(U1-PA3-Pad17)*%
X96500000Y-94925000D03*
%TO.P,U1,18,VSS*%
%TO.N,GND*%
X97000000Y-94925000D03*
%TO.P,U1,19,VDD*%
%TO.N,+3.3V*%
X97500000Y-94925000D03*
%TO.P,U1,20,PA4*%
%TO.N,unconnected-(U1-PA4-Pad20)*%
X98000000Y-94925000D03*
%TO.P,U1,21,PA5*%
%TO.N,unconnected-(U1-PA5-Pad21)*%
X98500000Y-94925000D03*
%TO.P,U1,22,PA6*%
%TO.N,unconnected-(U1-PA6-Pad22)*%
X99000000Y-94925000D03*
%TO.P,U1,23,PA7*%
%TO.N,unconnected-(U1-PA7-Pad23)*%
X99500000Y-94925000D03*
%TO.P,U1,24,PC4*%
%TO.N,unconnected-(U1-PC4-Pad24)*%
X100000000Y-94925000D03*
%TO.P,U1,25,PC5*%
%TO.N,unconnected-(U1-PC5-Pad25)*%
X100500000Y-94925000D03*
%TO.P,U1,26,PB0*%
%TO.N,unconnected-(U1-PB0-Pad26)*%
X101000000Y-94925000D03*
%TO.P,U1,27,PB1*%
%TO.N,unconnected-(U1-PB1-Pad27)*%
X101500000Y-94925000D03*
%TO.P,U1,28,PB2*%
%TO.N,unconnected-(U1-PB2-Pad28)*%
X102000000Y-94925000D03*
%TO.P,U1,29,PB10*%
%TO.N,USART3_TX*%
X102500000Y-94925000D03*
%TO.P,U1,30,PB11*%
%TO.N,USART3_RX*%
X103000000Y-94925000D03*
%TO.P,U1,31,VCAP_1*%
%TO.N,Net-(U1-VCAP_1)*%
X103500000Y-94925000D03*
%TO.P,U1,32,VDD*%
%TO.N,+3.3V*%
X104000000Y-94925000D03*
D29*
%TO.P,U1,33,PB12*%
%TO.N,unconnected-(U1-PB12-Pad33)*%
X105925000Y-93000000D03*
%TO.P,U1,34,PB13*%
%TO.N,unconnected-(U1-PB13-Pad34)*%
X105925000Y-92500000D03*
%TO.P,U1,35,PB14*%
%TO.N,unconnected-(U1-PB14-Pad35)*%
X105925000Y-92000000D03*
%TO.P,U1,36,PB15*%
%TO.N,unconnected-(U1-PB15-Pad36)*%
X105925000Y-91500000D03*
%TO.P,U1,37,PC6*%
%TO.N,unconnected-(U1-PC6-Pad37)*%
X105925000Y-91000000D03*
%TO.P,U1,38,PC7*%
%TO.N,unconnected-(U1-PC7-Pad38)*%
X105925000Y-90500000D03*
%TO.P,U1,39,PC8*%
%TO.N,unconnected-(U1-PC8-Pad39)*%
X105925000Y-90000000D03*
%TO.P,U1,40,PC9*%
%TO.N,unconnected-(U1-PC9-Pad40)*%
X105925000Y-89500000D03*
%TO.P,U1,41,PA8*%
%TO.N,unconnected-(U1-PA8-Pad41)*%
X105925000Y-89000000D03*
%TO.P,U1,42,PA9*%
%TO.N,unconnected-(U1-PA9-Pad42)*%
X105925000Y-88500000D03*
%TO.P,U1,43,PA10*%
%TO.N,unconnected-(U1-PA10-Pad43)*%
X105925000Y-88000000D03*
%TO.P,U1,44,PA11*%
%TO.N,USB_D-*%
X105925000Y-87500000D03*
%TO.P,U1,45,PA12*%
%TO.N,USB_D+*%
X105925000Y-87000000D03*
%TO.P,U1,46,PA13*%
%TO.N,SWDIO*%
X105925000Y-86500000D03*
%TO.P,U1,47,VCAP_2*%
%TO.N,Net-(U1-VCAP_2)*%
X105925000Y-86000000D03*
%TO.P,U1,48,VDD*%
%TO.N,+3.3V*%
X105925000Y-85500000D03*
D30*
%TO.P,U1,49,PA14*%
%TO.N,SWCLK*%
X104000000Y-83575000D03*
%TO.P,U1,50,PA15*%
%TO.N,unconnected-(U1-PA15-Pad50)*%
X103500000Y-83575000D03*
%TO.P,U1,51,PC10*%
%TO.N,unconnected-(U1-PC10-Pad51)*%
X103000000Y-83575000D03*
%TO.P,U1,52,PC11*%
%TO.N,unconnected-(U1-PC11-Pad52)*%
X102500000Y-83575000D03*
%TO.P,U1,53,PC12*%
%TO.N,unconnected-(U1-PC12-Pad53)*%
X102000000Y-83575000D03*
%TO.P,U1,54,PD2*%
%TO.N,unconnected-(U1-PD2-Pad54)*%
X101500000Y-83575000D03*
%TO.P,U1,55,PB3*%
%TO.N,SWD*%
X101000000Y-83575000D03*
%TO.P,U1,56,PB4*%
%TO.N,unconnected-(U1-PB4-Pad56)*%
X100500000Y-83575000D03*
%TO.P,U1,57,PB5*%
%TO.N,unconnected-(U1-PB5-Pad57)*%
X100000000Y-83575000D03*
%TO.P,U1,58,PB6*%
%TO.N,I2C1_SCL*%
X99500000Y-83575000D03*
%TO.P,U1,59,PB7*%
%TO.N,I2C1_SDA*%
X99000000Y-83575000D03*
%TO.P,U1,60,BOOT0*%
%TO.N,BOOT0*%
X98500000Y-83575000D03*
%TO.P,U1,61,PB8*%
%TO.N,unconnected-(U1-PB8-Pad61)*%
X98000000Y-83575000D03*
%TO.P,U1,62,PB9*%
%TO.N,unconnected-(U1-PB9-Pad62)*%
X97500000Y-83575000D03*
%TO.P,U1,63,VSS*%
%TO.N,GND*%
X97000000Y-83575000D03*
%TO.P,U1,64,VDD*%
%TO.N,+3.3V*%
X96500000Y-83575000D03*
%TD*%
D31*
%TO.P,R9,1*%
%TO.N,GND*%
X108675000Y-78750000D03*
%TO.P,R9,2*%
%TO.N,Net-(D4-K)*%
X110325000Y-78750000D03*
%TD*%
D32*
%TO.P,R11,1*%
%TO.N,GND*%
X113950000Y-78575000D03*
%TO.P,R11,2*%
%TO.N,BUCK_EN*%
X113950000Y-76925000D03*
%TD*%
D33*
%TO.P,SW1,*%
%TO.N,*%
X83030000Y-77600000D03*
X80820000Y-77600000D03*
X83030000Y-84900000D03*
X80820000Y-84900000D03*
D34*
%TO.P,SW1,1,A*%
%TO.N,+3.3V*%
X83680000Y-79000000D03*
%TO.P,SW1,2,B*%
%TO.N,Net-(SW1-B)*%
X83680000Y-82000000D03*
%TO.P,SW1,3,C*%
%TO.N,GND*%
X83680000Y-83500000D03*
%TD*%
D35*
%TO.P,C5,1*%
%TO.N,GND*%
X96955000Y-81625000D03*
%TO.P,C5,2*%
%TO.N,+3.3V*%
X95995000Y-81625000D03*
%TD*%
D36*
%TO.P,J4,1,VBUS*%
%TO.N,+5V*%
X123675000Y-95700000D03*
%TO.P,J4,2,D-*%
%TO.N,USB_CONN_D-*%
X123675000Y-94900000D03*
%TO.P,J4,3,D+*%
%TO.N,USB_CONN_D+*%
X123675000Y-94100000D03*
%TO.P,J4,4,ID*%
%TO.N,unconnected-(J4-ID-Pad4)*%
X123675000Y-93300000D03*
%TO.P,J4,5,GND*%
%TO.N,GND*%
X123675000Y-92500000D03*
D37*
%TO.P,J4,6,Shield*%
%TO.N,unconnected-(J4-Shield-Pad6)*%
X123775000Y-98550000D03*
X129225000Y-98550000D03*
X123775000Y-89650000D03*
X129225000Y-89650000D03*
%TD*%
D38*
%TO.P,C10,1*%
%TO.N,GND*%
X105275000Y-97250000D03*
%TO.P,C10,2*%
%TO.N,Net-(U1-VCAP_1)*%
X103725000Y-97250000D03*
%TD*%
D39*
%TO.P,C9,1*%
%TO.N,GND*%
X109000000Y-84375000D03*
%TO.P,C9,2*%
%TO.N,Net-(U1-VCAP_2)*%
X109000000Y-85925000D03*
%TD*%
D40*
%TO.P,R10,1*%
%TO.N,BUCK_EN*%
X115675000Y-76900000D03*
%TO.P,R10,2*%
%TO.N,BUCK_IN*%
X115675000Y-78550000D03*
%TD*%
D31*
%TO.P,R8,1*%
%TO.N,GND*%
X114925000Y-74800000D03*
%TO.P,R8,2*%
%TO.N,Net-(R7-Pad1)*%
X116575000Y-74800000D03*
%TD*%
D38*
%TO.P,C3,1*%
%TO.N,GND*%
X108525000Y-81000000D03*
%TO.P,C3,2*%
%TO.N,+3.3V*%
X106975000Y-81000000D03*
%TD*%
D11*
%TO.P,H1,1,1*%
%TO.N,GND*%
X124775000Y-71000000D03*
X125719581Y-68719581D03*
X125719581Y-73280419D03*
X128000000Y-67775000D03*
D12*
X128000000Y-71000000D03*
D11*
X128000000Y-74225000D03*
X130280419Y-68719581D03*
X130280419Y-73280419D03*
X131225000Y-71000000D03*
%TD*%
D41*
%TO.P,Q1,1,G*%
%TO.N,GND*%
X111937500Y-89725000D03*
%TO.P,Q1,2,S*%
%TO.N,Net-(D2-K)*%
X111937500Y-91625000D03*
%TO.P,Q1,3,D*%
%TO.N,Net-(Q1-D)*%
X113812500Y-90675000D03*
%TD*%
D11*
%TO.P,H3,1,1*%
%TO.N,GND*%
X81775000Y-71000000D03*
X82719581Y-68719581D03*
X82719581Y-73280419D03*
X85000000Y-67775000D03*
D12*
X85000000Y-71000000D03*
D11*
X85000000Y-74225000D03*
X87280419Y-68719581D03*
X87280419Y-73280419D03*
X88225000Y-71000000D03*
%TD*%
D21*
%TO.P,C4,1*%
%TO.N,GND*%
X96520000Y-96800000D03*
%TO.P,C4,2*%
%TO.N,+3.3V*%
X97480000Y-96800000D03*
%TD*%
D31*
%TO.P,R7,1*%
%TO.N,Net-(R7-Pad1)*%
X118425000Y-74750000D03*
%TO.P,R7,2*%
%TO.N,BUCK_FB*%
X120075000Y-74750000D03*
%TD*%
D35*
%TO.P,C6,1*%
%TO.N,GND*%
X107480000Y-83950000D03*
%TO.P,C6,2*%
%TO.N,+3.3V*%
X106520000Y-83950000D03*
%TD*%
D42*
%TO.P,J1,1,Pin_1*%
%TO.N,+12V*%
X127300000Y-83700000D03*
D43*
%TO.P,J1,2,Pin_2*%
%TO.N,GND*%
X127300000Y-80200000D03*
%TD*%
D40*
%TO.P,R2,1*%
%TO.N,GND*%
X95000000Y-95875000D03*
%TO.P,R2,2*%
%TO.N,Net-(D1-K)*%
X95000000Y-97525000D03*
%TD*%
D35*
%TO.P,C16,1*%
%TO.N,BUCK_BST*%
X120430000Y-80400000D03*
%TO.P,C16,2*%
%TO.N,BUCK_SW*%
X119470000Y-80400000D03*
%TD*%
D39*
%TO.P,C11,1*%
%TO.N,GND*%
X92350000Y-91225000D03*
%TO.P,C11,2*%
%TO.N,+3.3VA*%
X92350000Y-92775000D03*
%TD*%
D44*
%TO.P,J3,1,Pin_1*%
%TO.N,+3.3V*%
X98875000Y-72950000D03*
D27*
%TO.P,J3,2,Pin_2*%
%TO.N,I2C1_SCL*%
X97625000Y-72950000D03*
%TO.P,J3,3,Pin_3*%
%TO.N,I2C1_SDA*%
X96375000Y-72950000D03*
%TO.P,J3,4,Pin_4*%
%TO.N,GND*%
X95125000Y-72950000D03*
%TD*%
D45*
%TO.P,FB1,1*%
%TO.N,Net-(D2-K)*%
X111687500Y-85500000D03*
%TO.P,FB1,2*%
%TO.N,BUCK_IN*%
X113812500Y-85500000D03*
%TD*%
D19*
%TO.P,C14,2*%
%TO.N,+3.3V*%
X119975000Y-72550000D03*
%TO.P,C14,1*%
%TO.N,GND*%
X117025000Y-72550000D03*
%TD*%
D32*
%TO.P,R6,1*%
%TO.N,BUCK_FB*%
X122300000Y-76775000D03*
%TO.P,R6,2*%
%TO.N,+3.3V*%
X122300000Y-75125000D03*
%TD*%
D46*
%TO.P,Y1,1,1*%
%TO.N,HSE_IN*%
X89050000Y-87150000D03*
%TO.P,Y1,2,2*%
%TO.N,GND*%
X89050000Y-89350000D03*
%TO.P,Y1,3,3*%
%TO.N,Net-(C2-Pad2)*%
X90750000Y-89350000D03*
%TO.P,Y1,4,4*%
%TO.N,GND*%
X90750000Y-87150000D03*
%TD*%
D28*
%TO.P,U2,1,BST*%
%TO.N,BUCK_BST*%
X120087500Y-78850000D03*
%TO.P,U2,2,GND*%
%TO.N,GND*%
X120087500Y-77900000D03*
%TO.P,U2,3,FB*%
%TO.N,BUCK_FB*%
X120087500Y-76950000D03*
%TO.P,U2,4,EN*%
%TO.N,BUCK_EN*%
X117812500Y-76950000D03*
%TO.P,U2,5,IN*%
%TO.N,BUCK_IN*%
X117812500Y-77900000D03*
%TO.P,U2,6,SW*%
%TO.N,BUCK_SW*%
X117812500Y-78850000D03*
%TD*%
D21*
%TO.P,C2,1*%
%TO.N,GND*%
X89620000Y-91200000D03*
%TO.P,C2,2*%
%TO.N,Net-(C2-Pad2)*%
X90580000Y-91200000D03*
%TD*%
D31*
%TO.P,R3,1*%
%TO.N,Net-(SW1-B)*%
X95675000Y-80250000D03*
%TO.P,R3,2*%
%TO.N,BOOT0*%
X97325000Y-80250000D03*
%TD*%
D47*
%TO.P,D3,1,K*%
%TO.N,GND*%
X121050000Y-82650000D03*
%TO.P,D3,2,A*%
%TO.N,BUCK_SW*%
X117750000Y-82650000D03*
%TD*%
D48*
%TO.N,GND*%
X106300000Y-67675000D03*
X105000000Y-67675000D03*
X102450000Y-67675000D03*
%TO.N,+3.3V*%
X107525000Y-67675000D03*
%TO.N,NRST*%
X103937853Y-78812853D03*
%TO.N,+3.3V*%
X92725000Y-84775000D03*
%TO.N,GND*%
X91700000Y-84775000D03*
X97650000Y-81650000D03*
%TO.N,+3.3V*%
X95350000Y-81700000D03*
%TO.N,GND*%
X88900000Y-92000000D03*
X88025000Y-92925000D03*
X107525000Y-83200000D03*
X121225000Y-77900000D03*
X105300000Y-98175000D03*
X109925000Y-84375000D03*
X111875000Y-89000000D03*
X121925000Y-83025000D03*
X121925000Y-82175000D03*
X109850000Y-83250000D03*
X109875000Y-82050000D03*
X107850000Y-79225000D03*
X108550000Y-81900000D03*
X108550000Y-80075000D03*
X107850000Y-78400000D03*
X113050000Y-78575000D03*
X114075000Y-74775000D03*
X116075000Y-73025000D03*
X116050000Y-71975000D03*
X109500000Y-72800000D03*
X109500000Y-71750000D03*
X84850000Y-83500000D03*
X90750000Y-86000000D03*
X88050000Y-89425000D03*
X88925000Y-91100000D03*
X91450000Y-91225000D03*
X95350000Y-95000000D03*
X94425000Y-95000000D03*
X106700000Y-97975000D03*
X122325000Y-91600000D03*
X121375000Y-91625000D03*
X121375000Y-92550000D03*
X122225000Y-92525000D03*
%TO.N,+3.3V*%
X123225000Y-75100000D03*
X112225000Y-79575000D03*
X106975000Y-80075000D03*
X117775000Y-87050000D03*
X117775000Y-87975000D03*
X117775000Y-86025000D03*
X99675000Y-79500000D03*
X114975000Y-87825000D03*
X115025000Y-86950000D03*
X115025000Y-86075000D03*
X106100000Y-80975000D03*
X102500000Y-80250000D03*
X84850000Y-79075000D03*
X114450000Y-72825000D03*
X88875000Y-98800000D03*
X121000000Y-71800000D03*
X97500000Y-97550000D03*
X114450000Y-71800000D03*
X120975000Y-72625000D03*
X106675000Y-95625000D03*
X106575000Y-83200000D03*
X112900000Y-80525000D03*
X122275000Y-74300000D03*
%TO.N,Net-(D2-K)*%
X110250000Y-95000000D03*
X111750000Y-93500000D03*
%TO.N,NRST*%
X104000000Y-85000000D03*
%TD*%
D49*
%TO.N,BUCK_SW*%
X118925000Y-80400000D02*
X119470000Y-80400000D01*
X117812500Y-78850000D02*
X117812500Y-81512500D01*
X117812500Y-81512500D02*
X118925000Y-80400000D01*
X117750000Y-81650000D02*
X117750000Y-82650000D01*
D50*
%TO.N,+3.3V*%
X107540000Y-67690000D02*
X107525000Y-67675000D01*
X107540000Y-69300000D02*
X107540000Y-67690000D01*
%TO.N,GND*%
X106270000Y-69300000D02*
X106270000Y-67705000D01*
X106270000Y-67705000D02*
X106300000Y-67675000D01*
X102460000Y-67685000D02*
X102450000Y-67675000D01*
X102460000Y-69300000D02*
X102460000Y-67685000D01*
D49*
X105000000Y-67675000D02*
X105000000Y-69450000D01*
X105000000Y-67675000D02*
X105025000Y-67700000D01*
X105025000Y-67700000D02*
X105025000Y-69425000D01*
D50*
%TO.N,NRST*%
X102460000Y-77335000D02*
X102460000Y-73200000D01*
X103937853Y-78812853D02*
X102460000Y-77335000D01*
%TO.N,SWDIO*%
X104750000Y-86130330D02*
X105119670Y-86500000D01*
X106925000Y-79125000D02*
X104750000Y-81300000D01*
X104750000Y-81300000D02*
X104750000Y-86130330D01*
X107540000Y-76610000D02*
X106925000Y-77225000D01*
X105119670Y-86500000D02*
X105925000Y-86500000D01*
X107540000Y-73200000D02*
X107540000Y-76610000D01*
X106925000Y-77225000D02*
X106925000Y-79125000D01*
%TO.N,SWCLK*%
X104000000Y-80725000D02*
X104000000Y-83575000D01*
X106270000Y-73200000D02*
X106270000Y-78455000D01*
X106270000Y-78455000D02*
X104000000Y-80725000D01*
%TO.N,SWD*%
X101000000Y-82739950D02*
X101000000Y-83575000D01*
X105000000Y-73200000D02*
X105000000Y-78739950D01*
X105000000Y-78739950D02*
X101000000Y-82739950D01*
D49*
%TO.N,BUCK_EN*%
X117787500Y-76925000D02*
X117812500Y-76950000D01*
X113950000Y-76925000D02*
X117787500Y-76925000D01*
D50*
%TO.N,+3.3V*%
X92725000Y-85455000D02*
X92680000Y-85500000D01*
X92725000Y-84775000D02*
X92725000Y-85455000D01*
%TO.N,GND*%
X91700000Y-85480000D02*
X91720000Y-85500000D01*
X91700000Y-84775000D02*
X91700000Y-85480000D01*
X96955000Y-81625000D02*
X97625000Y-81625000D01*
X97625000Y-81625000D02*
X97650000Y-81650000D01*
%TO.N,+3.3V*%
X95425000Y-81625000D02*
X95350000Y-81700000D01*
X95995000Y-81625000D02*
X95425000Y-81625000D01*
%TO.N,GND*%
X97000000Y-81670000D02*
X96955000Y-81625000D01*
X97000000Y-83575000D02*
X97000000Y-81670000D01*
%TO.N,+3.3V*%
X96500000Y-82300000D02*
X96500000Y-83575000D01*
X95995000Y-81795000D02*
X96500000Y-82300000D01*
X95995000Y-81625000D02*
X95995000Y-81795000D01*
%TO.N,BOOT0*%
X98500000Y-81425000D02*
X97325000Y-80250000D01*
X98500000Y-83575000D02*
X98500000Y-81425000D01*
D51*
%TO.N,+3.3V*%
X84775000Y-79000000D02*
X84850000Y-79075000D01*
X83680000Y-79000000D02*
X84775000Y-79000000D01*
%TO.N,GND*%
X88900000Y-91125000D02*
X88925000Y-91100000D01*
X88900000Y-92000000D02*
X88900000Y-91125000D01*
X88900000Y-92875000D02*
X88925000Y-92900000D01*
X88900000Y-92000000D02*
X88900000Y-92875000D01*
D50*
X88050000Y-92900000D02*
X88025000Y-92925000D01*
X88925000Y-92900000D02*
X88050000Y-92900000D01*
X107480000Y-83245000D02*
X107525000Y-83200000D01*
X107480000Y-83950000D02*
X107480000Y-83245000D01*
D51*
X119025000Y-92850000D02*
X121075000Y-92850000D01*
X121075000Y-92850000D02*
X121375000Y-92550000D01*
X119275000Y-94750000D02*
X118750000Y-94225000D01*
X119887500Y-94750000D02*
X119275000Y-94750000D01*
X118750000Y-94225000D02*
X118750000Y-93125000D01*
X118750000Y-93125000D02*
X119025000Y-92850000D01*
D49*
X83680000Y-83500000D02*
X84850000Y-83500000D01*
X120087500Y-77900000D02*
X121225000Y-77900000D01*
X113050000Y-78575000D02*
X113950000Y-78575000D01*
X114100000Y-74800000D02*
X114075000Y-74775000D01*
X114925000Y-74800000D02*
X114100000Y-74800000D01*
X117025000Y-72550000D02*
X116550000Y-72550000D01*
X116550000Y-72550000D02*
X116141574Y-72958426D01*
X116758148Y-72550000D02*
X116116574Y-71908426D01*
X117025000Y-72550000D02*
X116758148Y-72550000D01*
X110025000Y-72800000D02*
X110500000Y-72325000D01*
X109500000Y-72800000D02*
X110025000Y-72800000D01*
X110075000Y-72325000D02*
X109500000Y-71750000D01*
X110500000Y-72325000D02*
X110075000Y-72325000D01*
D50*
X109000000Y-84375000D02*
X109925000Y-84375000D01*
D49*
X109850000Y-83250000D02*
X110375000Y-83250000D01*
X110375000Y-83250000D02*
X110875000Y-82750000D01*
X110175000Y-82050000D02*
X110875000Y-82750000D01*
X109875000Y-82050000D02*
X110175000Y-82050000D01*
X108550000Y-81900000D02*
X108550000Y-81025000D01*
X108550000Y-81025000D02*
X108525000Y-81000000D01*
X108550000Y-80975000D02*
X108525000Y-81000000D01*
X108550000Y-80075000D02*
X108550000Y-80975000D01*
X108200000Y-79225000D02*
X108675000Y-78750000D01*
X107850000Y-79225000D02*
X108200000Y-79225000D01*
X108675000Y-78750000D02*
X108200000Y-78750000D01*
X108200000Y-78750000D02*
X107850000Y-78400000D01*
X121550000Y-82650000D02*
X121925000Y-83025000D01*
X121050000Y-82650000D02*
X121550000Y-82650000D01*
X121525000Y-82175000D02*
X121050000Y-82650000D01*
X121925000Y-82175000D02*
X121525000Y-82175000D01*
X122325000Y-91600000D02*
X121375000Y-92550000D01*
X123225000Y-92500000D02*
X122325000Y-91600000D01*
X123675000Y-92500000D02*
X123225000Y-92500000D01*
X122300000Y-91625000D02*
X122325000Y-91600000D01*
X121375000Y-91625000D02*
X122300000Y-91625000D01*
X121375000Y-92550000D02*
X121375000Y-91625000D01*
X121400000Y-92525000D02*
X121375000Y-92550000D01*
X122225000Y-92525000D02*
X121400000Y-92525000D01*
X122250000Y-92500000D02*
X122225000Y-92525000D01*
X123675000Y-92500000D02*
X122250000Y-92500000D01*
X111937500Y-89725000D02*
X111937500Y-89062500D01*
X111937500Y-89062500D02*
X111875000Y-89000000D01*
X106700000Y-97280000D02*
X106700000Y-97975000D01*
X105275000Y-98150000D02*
X105300000Y-98175000D01*
X105275000Y-97250000D02*
X105275000Y-98150000D01*
X95350000Y-95525000D02*
X95000000Y-95875000D01*
X95350000Y-95000000D02*
X95350000Y-95525000D01*
X94425000Y-95300000D02*
X95000000Y-95875000D01*
X94425000Y-95000000D02*
X94425000Y-95300000D01*
D50*
X92350000Y-91225000D02*
X91450000Y-91225000D01*
X89025000Y-91200000D02*
X88925000Y-91100000D01*
X89620000Y-91200000D02*
X89025000Y-91200000D01*
X88125000Y-89350000D02*
X88050000Y-89425000D01*
X89050000Y-89350000D02*
X88125000Y-89350000D01*
X90750000Y-87150000D02*
X90750000Y-86000000D01*
D49*
%TO.N,+3.3V*%
X112037500Y-79762500D02*
X112225000Y-79575000D01*
X112037500Y-80500000D02*
X112037500Y-79762500D01*
X106975000Y-81000000D02*
X106975000Y-80075000D01*
X123200000Y-75125000D02*
X123225000Y-75100000D01*
X122300000Y-75125000D02*
X123200000Y-75125000D01*
X117425000Y-87975000D02*
X116425000Y-86975000D01*
X117775000Y-87975000D02*
X117425000Y-87975000D01*
X115575000Y-87825000D02*
X116425000Y-86975000D01*
X114975000Y-87825000D02*
X115575000Y-87825000D01*
X116400000Y-86950000D02*
X116425000Y-86975000D01*
X115025000Y-86950000D02*
X116400000Y-86950000D01*
X115525000Y-86075000D02*
X116425000Y-86975000D01*
X115025000Y-86075000D02*
X115525000Y-86075000D01*
X117375000Y-86025000D02*
X116425000Y-86975000D01*
X117775000Y-86025000D02*
X117375000Y-86025000D01*
X117700000Y-86975000D02*
X117775000Y-87050000D01*
X116425000Y-86975000D02*
X117700000Y-86975000D01*
D50*
X106520000Y-83255000D02*
X106575000Y-83200000D01*
X106520000Y-83950000D02*
X106520000Y-83255000D01*
D49*
X99675000Y-80235000D02*
X99660000Y-80250000D01*
X99675000Y-79500000D02*
X99675000Y-80235000D01*
X106125000Y-81000000D02*
X106100000Y-80975000D01*
X106975000Y-81000000D02*
X106125000Y-81000000D01*
X112875000Y-80500000D02*
X112900000Y-80525000D01*
X112037500Y-80500000D02*
X112875000Y-80500000D01*
X122300000Y-74325000D02*
X122275000Y-74300000D01*
X122300000Y-75125000D02*
X122300000Y-74325000D01*
X120900000Y-72550000D02*
X120975000Y-72625000D01*
X119975000Y-72550000D02*
X120900000Y-72550000D01*
X120250000Y-72550000D02*
X121000000Y-71800000D01*
X119975000Y-72550000D02*
X120250000Y-72550000D01*
X113450000Y-72325000D02*
X113950000Y-72325000D01*
X113950000Y-72325000D02*
X114450000Y-72825000D01*
X113925000Y-72325000D02*
X114450000Y-71800000D01*
X113450000Y-72325000D02*
X113925000Y-72325000D01*
X101760000Y-80250000D02*
X102500000Y-80250000D01*
X88875000Y-98085000D02*
X88875000Y-98800000D01*
D50*
X97480000Y-97530000D02*
X97500000Y-97550000D01*
X97480000Y-96800000D02*
X97480000Y-97530000D01*
X106700000Y-96320000D02*
X106700000Y-95650000D01*
X106700000Y-95650000D02*
X106675000Y-95625000D01*
D52*
%TO.N,+5V*%
X117002817Y-97750000D02*
X113200000Y-97750000D01*
X118750000Y-96002817D02*
X117002817Y-97750000D01*
X118750000Y-95323592D02*
X118750000Y-96002817D01*
%TO.N,unconnected-(J4-Shield-Pad6)*%
X129225000Y-89650000D02*
X129225000Y-98550000D01*
X123775000Y-89650000D02*
X129225000Y-89650000D01*
D49*
X123775000Y-98550000D02*
X129225000Y-98550000D01*
D50*
%TO.N,Net-(D2-K)*%
X110675000Y-90362500D02*
X111937500Y-91625000D01*
X110675000Y-86512500D02*
X110675000Y-90362500D01*
X111687500Y-85500000D02*
X110675000Y-86512500D01*
X111937500Y-91625000D02*
X111937500Y-93312500D01*
X111937500Y-93312500D02*
X111750000Y-93500000D01*
X111375000Y-91625000D02*
X111937500Y-91625000D01*
X111625000Y-85562500D02*
X111437500Y-85562500D01*
X111687500Y-85500000D02*
X111625000Y-85562500D01*
X111750000Y-91812500D02*
X111937500Y-91625000D01*
D49*
%TO.N,BUCK_SW*%
X117750000Y-84200000D02*
X117750000Y-82650000D01*
X120525000Y-86975000D02*
X117750000Y-84200000D01*
%TO.N,+12V*%
X122225000Y-89225000D02*
X120000000Y-91450000D01*
X122225000Y-86825000D02*
X122225000Y-89225000D01*
X125350000Y-83700000D02*
X122225000Y-86825000D01*
X127300000Y-83700000D02*
X125350000Y-83700000D01*
%TO.N,Net-(Q1-D)*%
X116425000Y-90675000D02*
X117200000Y-91450000D01*
X113812500Y-90675000D02*
X116425000Y-90675000D01*
D52*
%TO.N,+3.3VA*%
X88875000Y-94500000D02*
X90475000Y-92900000D01*
X88875000Y-97115000D02*
X88875000Y-94500000D01*
D50*
%TO.N,GND*%
X97000000Y-94925000D02*
X97000000Y-96320000D01*
X97000000Y-96320000D02*
X96520000Y-96800000D01*
X92500000Y-86670000D02*
X92500000Y-86280000D01*
X92500000Y-86670000D02*
X91230000Y-86670000D01*
X108575000Y-83950000D02*
X109000000Y-84375000D01*
X89620000Y-89920000D02*
X89050000Y-89350000D01*
X89620000Y-91200000D02*
X89620000Y-89920000D01*
X94575000Y-91000000D02*
X92575000Y-91000000D01*
X92575000Y-91000000D02*
X92350000Y-91225000D01*
X91230000Y-86670000D02*
X90750000Y-87150000D01*
X95925000Y-96800000D02*
X95000000Y-95875000D01*
X107480000Y-83950000D02*
X108575000Y-83950000D01*
X92500000Y-86280000D02*
X91720000Y-85500000D01*
X96520000Y-96800000D02*
X95925000Y-96800000D01*
%TO.N,HSE_IN*%
X89950000Y-88250000D02*
X89050000Y-87350000D01*
X91880000Y-88250000D02*
X89950000Y-88250000D01*
X94575000Y-87500000D02*
X92630000Y-87500000D01*
X89050000Y-87350000D02*
X89050000Y-87150000D01*
X92500000Y-87630000D02*
X91880000Y-88250000D01*
X92630000Y-87500000D02*
X92500000Y-87630000D01*
%TO.N,Net-(C2-Pad2)*%
X92500000Y-89660000D02*
X91060000Y-89660000D01*
X90750000Y-91030000D02*
X90580000Y-91200000D01*
X91060000Y-89660000D02*
X90750000Y-89350000D01*
X90750000Y-89350000D02*
X90750000Y-91030000D01*
%TO.N,+3.3V*%
X97500000Y-96780000D02*
X97480000Y-96800000D01*
X106520000Y-83950000D02*
X106520000Y-84905000D01*
X96370000Y-83445000D02*
X96500000Y-83575000D01*
X105395000Y-96320000D02*
X104000000Y-94925000D01*
X94575000Y-85500000D02*
X92680000Y-85500000D01*
X97500000Y-94925000D02*
X97500000Y-96780000D01*
X106520000Y-84905000D02*
X105925000Y-85500000D01*
X106700000Y-96320000D02*
X105395000Y-96320000D01*
%TO.N,Net-(U1-VCAP_2)*%
X108925000Y-86000000D02*
X109000000Y-85925000D01*
X105925000Y-86000000D02*
X108925000Y-86000000D01*
%TO.N,Net-(U1-VCAP_1)*%
X103500000Y-94925000D02*
X103500000Y-97025000D01*
X103500000Y-97025000D02*
X103725000Y-97250000D01*
%TO.N,+3.3VA*%
X90600000Y-92775000D02*
X90475000Y-92900000D01*
X94575000Y-91500000D02*
X93625000Y-91500000D01*
X93625000Y-91500000D02*
X92350000Y-92775000D01*
X92350000Y-92775000D02*
X90600000Y-92775000D01*
D49*
%TO.N,BUCK_IN*%
X116325000Y-77900000D02*
X115675000Y-78550000D01*
X113825000Y-85487500D02*
X113812500Y-85500000D01*
X113812500Y-82762500D02*
X113825000Y-82750000D01*
X115675000Y-78550000D02*
X113825000Y-80400000D01*
X113825000Y-80400000D02*
X113825000Y-82750000D01*
X113812500Y-85500000D02*
X113812500Y-82762500D01*
X117812500Y-77900000D02*
X116325000Y-77900000D01*
%TO.N,BUCK_BST*%
X120430000Y-79192500D02*
X120430000Y-80400000D01*
X120087500Y-78850000D02*
X120430000Y-79192500D01*
D50*
%TO.N,Net-(D1-K)*%
X92900000Y-97537500D02*
X94987500Y-97537500D01*
X94987500Y-97537500D02*
X95000000Y-97525000D01*
%TO.N,LED_Status*%
X94575000Y-93000000D02*
X92900000Y-94675000D01*
X92900000Y-94675000D02*
X92900000Y-95962500D01*
%TO.N,Net-(D2-K)*%
X110250000Y-95000000D02*
X110250000Y-97400000D01*
X110250000Y-97400000D02*
X109900000Y-97750000D01*
D52*
%TO.N,+5V*%
X118176408Y-94750000D02*
X117612500Y-94750000D01*
X122875000Y-96500000D02*
X119197183Y-96500000D01*
X123675000Y-95700000D02*
X122875000Y-96500000D01*
X119197183Y-96500000D02*
X118750000Y-96052817D01*
X118750000Y-96052817D02*
X118750000Y-95323592D01*
X118750000Y-95323592D02*
X118176408Y-94750000D01*
D49*
%TO.N,Net-(D4-K)*%
X110462500Y-78887500D02*
X110325000Y-78750000D01*
X110462500Y-80500000D02*
X110462500Y-78887500D01*
D50*
%TO.N,NRST*%
X102460000Y-74210000D02*
X102460000Y-73050000D01*
%TO.N,SWD*%
X105000000Y-73050000D02*
X105000000Y-72375000D01*
%TO.N,NRST*%
X100500000Y-88500000D02*
X94575000Y-88500000D01*
X104000000Y-85000000D02*
X100500000Y-88500000D01*
%TO.N,SWDIO*%
X107540000Y-73050000D02*
X107540000Y-73725000D01*
%TO.N,I2C1_SCL*%
X99500000Y-81490000D02*
X99500000Y-83575000D01*
X100740000Y-80250000D02*
X100740000Y-78990000D01*
X100740000Y-80250000D02*
X99500000Y-81490000D01*
X97625000Y-75875000D02*
X97625000Y-72950000D01*
X100740000Y-78990000D02*
X97625000Y-75875000D01*
%TO.N,I2C1_SDA*%
X98640000Y-80250000D02*
X99000000Y-80610000D01*
X99000000Y-80610000D02*
X99000000Y-83575000D01*
X98640000Y-78786396D02*
X98640000Y-80250000D01*
X96375000Y-72950000D02*
X96375000Y-76521396D01*
X96375000Y-76521396D02*
X98640000Y-78786396D01*
D53*
%TO.N,USB_CONN_D-*%
X121050000Y-95700000D02*
X119887500Y-95700000D01*
X121850000Y-94900000D02*
X121050000Y-95700000D01*
X123675000Y-94900000D02*
X121850000Y-94900000D01*
%TO.N,USB_CONN_D+*%
X122568392Y-94100000D02*
X122418392Y-94250000D01*
X122418392Y-94250000D02*
X120658898Y-94250000D01*
X120208898Y-93800000D02*
X119887500Y-93800000D01*
X123675000Y-94100000D02*
X122568392Y-94100000D01*
X120658898Y-94250000D02*
X120208898Y-93800000D01*
D50*
%TO.N,USART3_TX*%
X102500000Y-94925000D02*
X102500000Y-95730330D01*
X96375000Y-101855330D02*
X96375000Y-104050000D01*
X102500000Y-95730330D02*
X96375000Y-101855330D01*
%TO.N,USART3_RX*%
X102975000Y-96525000D02*
X97625000Y-101875000D01*
X103000000Y-94925000D02*
X102975000Y-94950000D01*
X97625000Y-101875000D02*
X97625000Y-104050000D01*
X102975000Y-94950000D02*
X102975000Y-96525000D01*
%TO.N,HSE_OUT*%
X93140000Y-88000000D02*
X92500000Y-88640000D01*
X94575000Y-88000000D02*
X93140000Y-88000000D01*
%TO.N,Net-(SW1-B)*%
X93925000Y-82000000D02*
X83680000Y-82000000D01*
X95675000Y-80250000D02*
X93925000Y-82000000D01*
D49*
%TO.N,BUCK_FB*%
X120075000Y-76937500D02*
X120087500Y-76950000D01*
X120075000Y-74750000D02*
X120075000Y-76937500D01*
X122300000Y-76775000D02*
X120262500Y-76775000D01*
X120262500Y-76775000D02*
X120087500Y-76950000D01*
%TO.N,Net-(R7-Pad1)*%
X118425000Y-74750000D02*
X116625000Y-74750000D01*
X116625000Y-74750000D02*
X116575000Y-74800000D01*
D53*
%TO.N,USB_D-*%
X107105345Y-87482156D02*
X107153836Y-87482156D01*
X109267844Y-92846164D02*
X111403836Y-94982156D01*
X105925000Y-87500000D02*
X107087501Y-87500000D01*
X107087501Y-87500000D02*
X107105345Y-87482156D01*
X115900905Y-94982156D02*
X116618749Y-95700000D01*
X107153836Y-87482156D02*
X109267844Y-89596164D01*
X111403836Y-94982156D02*
X115900905Y-94982156D01*
X116618749Y-95700000D02*
X117612500Y-95700000D01*
X109267844Y-89596164D02*
X109267844Y-92846164D01*
%TO.N,USB_D+*%
X115900905Y-94517844D02*
X116618749Y-93800000D01*
X116618749Y-93800000D02*
X117612500Y-93800000D01*
X111596164Y-94517844D02*
X115900905Y-94517844D01*
X107105345Y-87017844D02*
X107346164Y-87017844D01*
X109732156Y-89403836D02*
X109732156Y-92653836D01*
X107346164Y-87017844D02*
X109732156Y-89403836D01*
X109732156Y-92653836D02*
X111596164Y-94517844D01*
X107087501Y-87000000D02*
X107105345Y-87017844D01*
X105925000Y-87000000D02*
X107087501Y-87000000D01*
%TD*%
M02*
