%TF.GenerationSoftware,KiCad,Pcbnew,7.0.7*%
%TF.CreationDate,2023-10-16T17:07:58+03:00*%
%TF.ProjectId,custom_stm_design,63757374-6f6d-45f7-9374-6d5f64657369,rev?*%
%TF.SameCoordinates,Original*%
%TF.FileFunction,Copper,L3,Inr*%
%TF.FilePolarity,Positive*%
%FSLAX46Y46*%
G04 Gerber Fmt 4.6, Leading zero omitted, Abs format (unit mm)*
G04 Created by KiCad (PCBNEW 7.0.7) date 2023-10-16 17:07:58*
%MOMM*%
%LPD*%
G01*
G04 APERTURE LIST*
G04 Aperture macros list*
%AMRoundRect*
0 Rectangle with rounded corners*
0 $1 Rounding radius*
0 $2 $3 $4 $5 $6 $7 $8 $9 X,Y pos of 4 corners*
0 Add a 4 corners polygon primitive as box body*
4,1,4,$2,$3,$4,$5,$6,$7,$8,$9,$2,$3,0*
0 Add four circle primitives for the rounded corners*
1,1,$1+$1,$2,$3*
1,1,$1+$1,$4,$5*
1,1,$1+$1,$6,$7*
1,1,$1+$1,$8,$9*
0 Add four rect primitives between the rounded corners*
20,1,$1+$1,$2,$3,$4,$5,0*
20,1,$1+$1,$4,$5,$6,$7,0*
20,1,$1+$1,$6,$7,$8,$9,0*
20,1,$1+$1,$8,$9,$2,$3,0*%
G04 Aperture macros list end*
%TA.AperFunction,ComponentPad*%
%ADD10C,0.900000*%
%TD*%
%TA.AperFunction,ComponentPad*%
%ADD11C,8.600000*%
%TD*%
%TA.AperFunction,ComponentPad*%
%ADD12RoundRect,0.200000X-0.200000X-0.450000X0.200000X-0.450000X0.200000X0.450000X-0.200000X0.450000X0*%
%TD*%
%TA.AperFunction,ComponentPad*%
%ADD13O,0.800000X1.300000*%
%TD*%
%TA.AperFunction,ComponentPad*%
%ADD14R,2.400000X2.400000*%
%TD*%
%TA.AperFunction,ComponentPad*%
%ADD15C,2.400000*%
%TD*%
%TA.AperFunction,ComponentPad*%
%ADD16RoundRect,0.200000X0.200000X0.450000X-0.200000X0.450000X-0.200000X-0.450000X0.200000X-0.450000X0*%
%TD*%
%TA.AperFunction,ViaPad*%
%ADD17C,0.800000*%
%TD*%
G04 APERTURE END LIST*
D10*
%TO.N,GND*%
%TO.C,H4*%
X81775000Y-106000000D03*
X82719581Y-103719581D03*
X82719581Y-108280419D03*
X85000000Y-102775000D03*
D11*
X85000000Y-106000000D03*
D10*
X85000000Y-109225000D03*
X87280419Y-103719581D03*
X87280419Y-108280419D03*
X88225000Y-106000000D03*
%TD*%
%TO.N,GND*%
%TO.C,H2*%
X124775000Y-106000000D03*
X125719581Y-103719581D03*
X125719581Y-108280419D03*
X128000000Y-102775000D03*
D11*
X128000000Y-106000000D03*
D10*
X128000000Y-109225000D03*
X130280419Y-103719581D03*
X130280419Y-108280419D03*
X131225000Y-106000000D03*
%TD*%
D12*
%TO.N,+3.3V*%
%TO.C,J5*%
X95125000Y-104050000D03*
D13*
%TO.N,USART3_TX*%
X96375000Y-104050000D03*
%TO.N,USART3_RX*%
X97625000Y-104050000D03*
%TO.N,GND*%
X98875000Y-104050000D03*
%TD*%
D10*
%TO.N,GND*%
%TO.C,H1*%
X124775000Y-71000000D03*
X125719581Y-68719581D03*
X125719581Y-73280419D03*
X128000000Y-67775000D03*
D11*
X128000000Y-71000000D03*
D10*
X128000000Y-74225000D03*
X130280419Y-68719581D03*
X130280419Y-73280419D03*
X131225000Y-71000000D03*
%TD*%
%TO.N,GND*%
%TO.C,H3*%
X81775000Y-71000000D03*
X82719581Y-68719581D03*
X82719581Y-73280419D03*
X85000000Y-67775000D03*
D11*
X85000000Y-71000000D03*
D10*
X85000000Y-74225000D03*
X87280419Y-68719581D03*
X87280419Y-73280419D03*
X88225000Y-71000000D03*
%TD*%
D14*
%TO.N,+12V*%
%TO.C,J1*%
X127300000Y-83700000D03*
D15*
%TO.N,GND*%
X127300000Y-80200000D03*
%TD*%
D16*
%TO.N,+3.3V*%
%TO.C,J3*%
X98875000Y-72950000D03*
D13*
%TO.N,I2C1_SCL*%
X97625000Y-72950000D03*
%TO.N,I2C1_SDA*%
X96375000Y-72950000D03*
%TO.N,GND*%
X95125000Y-72950000D03*
%TD*%
D17*
%TO.N,GND*%
X106300000Y-67675000D03*
X105000000Y-67675000D03*
X102450000Y-67675000D03*
%TO.N,+3.3V*%
X107525000Y-67675000D03*
%TO.N,NRST*%
X103937853Y-78812853D03*
%TO.N,+3.3V*%
X92725000Y-84775000D03*
%TO.N,GND*%
X91700000Y-84775000D03*
X97650000Y-81650000D03*
%TO.N,+3.3V*%
X95350000Y-81700000D03*
%TO.N,GND*%
X88900000Y-92000000D03*
X88025000Y-92925000D03*
X107525000Y-83200000D03*
X121225000Y-77900000D03*
X105300000Y-98175000D03*
X109925000Y-84375000D03*
X111875000Y-89000000D03*
X121925000Y-83025000D03*
X121925000Y-82175000D03*
X109850000Y-83250000D03*
X109875000Y-82050000D03*
X107850000Y-79225000D03*
X108550000Y-81900000D03*
X108550000Y-80075000D03*
X107850000Y-78400000D03*
X113050000Y-78575000D03*
X114075000Y-74775000D03*
X116075000Y-73025000D03*
X116050000Y-71975000D03*
X109500000Y-72800000D03*
X109500000Y-71750000D03*
X84850000Y-83500000D03*
X90750000Y-86000000D03*
X88050000Y-89425000D03*
X88925000Y-91100000D03*
X91450000Y-91225000D03*
X95350000Y-95000000D03*
X94425000Y-95000000D03*
X106700000Y-97975000D03*
X122325000Y-91600000D03*
X121375000Y-91625000D03*
X121375000Y-92550000D03*
X122225000Y-92525000D03*
%TO.N,+3.3V*%
X123225000Y-75100000D03*
X112225000Y-79575000D03*
X106975000Y-80075000D03*
X117775000Y-87050000D03*
X117775000Y-87975000D03*
X117775000Y-86025000D03*
X99675000Y-79500000D03*
X114975000Y-87825000D03*
X115025000Y-86950000D03*
X115025000Y-86075000D03*
X106100000Y-80975000D03*
X102500000Y-80250000D03*
X84850000Y-79075000D03*
X114450000Y-72825000D03*
X88875000Y-98800000D03*
X121000000Y-71800000D03*
X97500000Y-97550000D03*
X114450000Y-71800000D03*
X120975000Y-72625000D03*
X106675000Y-95625000D03*
X106575000Y-83200000D03*
X112900000Y-80525000D03*
X122275000Y-74300000D03*
%TO.N,Net-(D2-K)*%
X110250000Y-95000000D03*
X111750000Y-93500000D03*
%TO.N,NRST*%
X104000000Y-85000000D03*
%TD*%
%TA.AperFunction,Conductor*%
%TO.N,+3.3V*%
G36*
X126950664Y-66095185D02*
G01*
X126996419Y-66147989D01*
X127006363Y-66217147D01*
X126977338Y-66280703D01*
X126918560Y-66318477D01*
X126916614Y-66319031D01*
X126515080Y-66429847D01*
X126515055Y-66429855D01*
X126111386Y-66581354D01*
X126111372Y-66581360D01*
X125722906Y-66768436D01*
X125722904Y-66768437D01*
X125352743Y-66989599D01*
X125003931Y-67243026D01*
X125003914Y-67243039D01*
X124679210Y-67526726D01*
X124679205Y-67526730D01*
X124381237Y-67838379D01*
X124381225Y-67838392D01*
X124112404Y-68175485D01*
X124112394Y-68175498D01*
X123874867Y-68535337D01*
X123874867Y-68535338D01*
X123670537Y-68915044D01*
X123670533Y-68915052D01*
X123501076Y-69311519D01*
X123501073Y-69311527D01*
X123367830Y-69721608D01*
X123271885Y-70141972D01*
X123214006Y-70569253D01*
X123214005Y-70569262D01*
X123194661Y-70999996D01*
X123194661Y-71000003D01*
X123214005Y-71430737D01*
X123214005Y-71430745D01*
X123214006Y-71430747D01*
X123242945Y-71644386D01*
X123271885Y-71858027D01*
X123367830Y-72278391D01*
X123501073Y-72688472D01*
X123501076Y-72688480D01*
X123670533Y-73084947D01*
X123670537Y-73084955D01*
X123670539Y-73084958D01*
X123874863Y-73464655D01*
X123874867Y-73464661D01*
X123874867Y-73464662D01*
X124112394Y-73824500D01*
X124112404Y-73824514D01*
X124381225Y-74161607D01*
X124381235Y-74161618D01*
X124381236Y-74161619D01*
X124679210Y-74473274D01*
X125003920Y-74756965D01*
X125352753Y-75010407D01*
X125722900Y-75231560D01*
X125722903Y-75231561D01*
X125722904Y-75231562D01*
X125722906Y-75231563D01*
X126111372Y-75418639D01*
X126111386Y-75418645D01*
X126515055Y-75570144D01*
X126515059Y-75570145D01*
X126515069Y-75570149D01*
X126930711Y-75684859D01*
X127354964Y-75761850D01*
X127784409Y-75800500D01*
X127784416Y-75800500D01*
X128215584Y-75800500D01*
X128215591Y-75800500D01*
X128645036Y-75761850D01*
X129069289Y-75684859D01*
X129484931Y-75570149D01*
X129888619Y-75418643D01*
X130277100Y-75231560D01*
X130647247Y-75010407D01*
X130996080Y-74756965D01*
X131320790Y-74473274D01*
X131618764Y-74161619D01*
X131698892Y-74061142D01*
X131816348Y-73913856D01*
X131887601Y-73824507D01*
X131897738Y-73809151D01*
X132125132Y-73464662D01*
X132125137Y-73464655D01*
X132329461Y-73084958D01*
X132498926Y-72688475D01*
X132632168Y-72278397D01*
X132679607Y-72070549D01*
X132713716Y-72009570D01*
X132775378Y-71976712D01*
X132845015Y-71982407D01*
X132900519Y-72024847D01*
X132924267Y-72090557D01*
X132924499Y-72098141D01*
X132924499Y-104901862D01*
X132904814Y-104968901D01*
X132852010Y-105014656D01*
X132782852Y-105024600D01*
X132719296Y-104995575D01*
X132681522Y-104936797D01*
X132679613Y-104929474D01*
X132632168Y-104721603D01*
X132498926Y-104311525D01*
X132345454Y-103952459D01*
X132329466Y-103915052D01*
X132329462Y-103915044D01*
X132307163Y-103873606D01*
X132125137Y-103535345D01*
X132083913Y-103472893D01*
X131887605Y-103175498D01*
X131887595Y-103175485D01*
X131618774Y-102838392D01*
X131618762Y-102838379D01*
X131320794Y-102526730D01*
X131320793Y-102526729D01*
X131320790Y-102526726D01*
X130996080Y-102243035D01*
X130996068Y-102243026D01*
X130647256Y-101989599D01*
X130647251Y-101989596D01*
X130647247Y-101989593D01*
X130277100Y-101768440D01*
X130277095Y-101768437D01*
X130277093Y-101768436D01*
X129888627Y-101581360D01*
X129888613Y-101581354D01*
X129484944Y-101429855D01*
X129484919Y-101429847D01*
X129069295Y-101315142D01*
X128645043Y-101238151D01*
X128645040Y-101238150D01*
X128645036Y-101238150D01*
X128215591Y-101199500D01*
X127784409Y-101199500D01*
X127354964Y-101238150D01*
X127354960Y-101238150D01*
X127354956Y-101238151D01*
X126930704Y-101315142D01*
X126515080Y-101429847D01*
X126515055Y-101429855D01*
X126111386Y-101581354D01*
X126111372Y-101581360D01*
X125722906Y-101768436D01*
X125722904Y-101768437D01*
X125352743Y-101989599D01*
X125003931Y-102243026D01*
X125003914Y-102243039D01*
X124679210Y-102526726D01*
X124679205Y-102526730D01*
X124381237Y-102838379D01*
X124381225Y-102838392D01*
X124112404Y-103175485D01*
X124112394Y-103175498D01*
X123874867Y-103535337D01*
X123874867Y-103535338D01*
X123670537Y-103915044D01*
X123670533Y-103915052D01*
X123501076Y-104311519D01*
X123501073Y-104311527D01*
X123367830Y-104721608D01*
X123271885Y-105141972D01*
X123214006Y-105569253D01*
X123214005Y-105569262D01*
X123194661Y-105999996D01*
X123194661Y-106000003D01*
X123214005Y-106430737D01*
X123214006Y-106430746D01*
X123271885Y-106858027D01*
X123367830Y-107278391D01*
X123501073Y-107688472D01*
X123501076Y-107688480D01*
X123670533Y-108084947D01*
X123670537Y-108084955D01*
X123670539Y-108084958D01*
X123874863Y-108464655D01*
X123874867Y-108464661D01*
X123874867Y-108464662D01*
X124112394Y-108824501D01*
X124112404Y-108824514D01*
X124381225Y-109161607D01*
X124381235Y-109161618D01*
X124381236Y-109161619D01*
X124679210Y-109473274D01*
X125003920Y-109756965D01*
X125352753Y-110010407D01*
X125722900Y-110231560D01*
X125722903Y-110231561D01*
X125722904Y-110231562D01*
X125722906Y-110231563D01*
X126111372Y-110418639D01*
X126111386Y-110418645D01*
X126515055Y-110570144D01*
X126515059Y-110570145D01*
X126515069Y-110570149D01*
X126515080Y-110570152D01*
X126916614Y-110680969D01*
X126976000Y-110717779D01*
X127006059Y-110780852D01*
X126997245Y-110850164D01*
X126952358Y-110903708D01*
X126885648Y-110924483D01*
X126883625Y-110924500D01*
X86116375Y-110924500D01*
X86049336Y-110904815D01*
X86003581Y-110852011D01*
X85993637Y-110782853D01*
X86022662Y-110719297D01*
X86081440Y-110681523D01*
X86083386Y-110680969D01*
X86335853Y-110611291D01*
X86484931Y-110570149D01*
X86888619Y-110418643D01*
X87277100Y-110231560D01*
X87647247Y-110010407D01*
X87996080Y-109756965D01*
X88320790Y-109473274D01*
X88618764Y-109161619D01*
X88887601Y-108824507D01*
X89125137Y-108464655D01*
X89329461Y-108084958D01*
X89498926Y-107688475D01*
X89632168Y-107278397D01*
X89728115Y-106858026D01*
X89785994Y-106430747D01*
X89805339Y-106000000D01*
X89785994Y-105569253D01*
X89728115Y-105141974D01*
X89632168Y-104721603D01*
X89535796Y-104425000D01*
X94225001Y-104425000D01*
X94225001Y-104556582D01*
X94231408Y-104627102D01*
X94231409Y-104627107D01*
X94281981Y-104789396D01*
X94369927Y-104934877D01*
X94490122Y-105055072D01*
X94635604Y-105143019D01*
X94635603Y-105143019D01*
X94749999Y-105178666D01*
X94750000Y-105178666D01*
X94750000Y-104425000D01*
X94225001Y-104425000D01*
X89535796Y-104425000D01*
X89498926Y-104311525D01*
X89387146Y-104050002D01*
X94870102Y-104050002D01*
X94889503Y-104147540D01*
X94889504Y-104147543D01*
X94889505Y-104147545D01*
X94944760Y-104230240D01*
X95027455Y-104285495D01*
X95027458Y-104285495D01*
X95027459Y-104285496D01*
X95100371Y-104299999D01*
X95100374Y-104300000D01*
X95100376Y-104300000D01*
X95149626Y-104300000D01*
X95149627Y-104299999D01*
X95222545Y-104285495D01*
X95281611Y-104246028D01*
X95348286Y-104225151D01*
X95415666Y-104243635D01*
X95462357Y-104295614D01*
X95473335Y-104343999D01*
X95474330Y-104343947D01*
X95474499Y-104347187D01*
X95474500Y-104347192D01*
X95489326Y-104488256D01*
X95493931Y-104502430D01*
X95500000Y-104540746D01*
X95500000Y-105178666D01*
X95614395Y-105143019D01*
X95756228Y-105057278D01*
X95823782Y-105039442D01*
X95890256Y-105060959D01*
X95893263Y-105063077D01*
X95922265Y-105084148D01*
X95922270Y-105084151D01*
X96095192Y-105161142D01*
X96095197Y-105161144D01*
X96280354Y-105200500D01*
X96280355Y-105200500D01*
X96469644Y-105200500D01*
X96469646Y-105200500D01*
X96654803Y-105161144D01*
X96827730Y-105084151D01*
X96911497Y-105023291D01*
X96927115Y-105011944D01*
X96992921Y-104988464D01*
X97060975Y-105004289D01*
X97072885Y-105011944D01*
X97172265Y-105084148D01*
X97172270Y-105084151D01*
X97345192Y-105161142D01*
X97345197Y-105161144D01*
X97530354Y-105200500D01*
X97530355Y-105200500D01*
X97719644Y-105200500D01*
X97719646Y-105200500D01*
X97904803Y-105161144D01*
X98077730Y-105084151D01*
X98161497Y-105023291D01*
X98177115Y-105011944D01*
X98242921Y-104988464D01*
X98310975Y-105004289D01*
X98322885Y-105011944D01*
X98422265Y-105084148D01*
X98422270Y-105084151D01*
X98595192Y-105161142D01*
X98595197Y-105161144D01*
X98780354Y-105200500D01*
X98780355Y-105200500D01*
X98969644Y-105200500D01*
X98969646Y-105200500D01*
X99154803Y-105161144D01*
X99327730Y-105084151D01*
X99480871Y-104972888D01*
X99607533Y-104832216D01*
X99702179Y-104668284D01*
X99760674Y-104488256D01*
X99775500Y-104347192D01*
X99775500Y-103752808D01*
X99760674Y-103611744D01*
X99702179Y-103431716D01*
X99607533Y-103267784D01*
X99480871Y-103127112D01*
X99480870Y-103127111D01*
X99327734Y-103015851D01*
X99327729Y-103015848D01*
X99154807Y-102938857D01*
X99154802Y-102938855D01*
X99009001Y-102907865D01*
X98969646Y-102899500D01*
X98780354Y-102899500D01*
X98747897Y-102906398D01*
X98595197Y-102938855D01*
X98595192Y-102938857D01*
X98422270Y-103015848D01*
X98422266Y-103015850D01*
X98322883Y-103088056D01*
X98257077Y-103111535D01*
X98189023Y-103095709D01*
X98177114Y-103088055D01*
X98077734Y-103015851D01*
X98077729Y-103015848D01*
X97904807Y-102938857D01*
X97904802Y-102938855D01*
X97759000Y-102907865D01*
X97719646Y-102899500D01*
X97530354Y-102899500D01*
X97497897Y-102906398D01*
X97345197Y-102938855D01*
X97345192Y-102938857D01*
X97172271Y-103015848D01*
X97072885Y-103088056D01*
X97007078Y-103111535D01*
X96939025Y-103095709D01*
X96927115Y-103088056D01*
X96889052Y-103060402D01*
X96827730Y-103015849D01*
X96827728Y-103015848D01*
X96827729Y-103015848D01*
X96654807Y-102938857D01*
X96654802Y-102938855D01*
X96509000Y-102907865D01*
X96469646Y-102899500D01*
X96280354Y-102899500D01*
X96247897Y-102906398D01*
X96095197Y-102938855D01*
X96095192Y-102938857D01*
X95922272Y-103015848D01*
X95922270Y-103015849D01*
X95912654Y-103022835D01*
X95893260Y-103036925D01*
X95827452Y-103060402D01*
X95759399Y-103044574D01*
X95756228Y-103042721D01*
X95614396Y-102956981D01*
X95614394Y-102956980D01*
X95500000Y-102921332D01*
X95500000Y-103559253D01*
X95493930Y-103597571D01*
X95489326Y-103611744D01*
X95482678Y-103675000D01*
X95474499Y-103752812D01*
X95474330Y-103756053D01*
X95472998Y-103755983D01*
X95454815Y-103817907D01*
X95402011Y-103863662D01*
X95332853Y-103873606D01*
X95281610Y-103853971D01*
X95227636Y-103817907D01*
X95222545Y-103814505D01*
X95222544Y-103814504D01*
X95222543Y-103814504D01*
X95222540Y-103814503D01*
X95149627Y-103800000D01*
X95149624Y-103800000D01*
X95100376Y-103800000D01*
X95100373Y-103800000D01*
X95027459Y-103814503D01*
X95027455Y-103814505D01*
X94944760Y-103869760D01*
X94889505Y-103952455D01*
X94889503Y-103952459D01*
X94870102Y-104049997D01*
X94870102Y-104050002D01*
X89387146Y-104050002D01*
X89345454Y-103952459D01*
X89329466Y-103915052D01*
X89329462Y-103915044D01*
X89307163Y-103873606D01*
X89200289Y-103675000D01*
X94225000Y-103675000D01*
X94750000Y-103675000D01*
X94750000Y-102921333D01*
X94749999Y-102921332D01*
X94635605Y-102956980D01*
X94635603Y-102956981D01*
X94490122Y-103044927D01*
X94369927Y-103165122D01*
X94281980Y-103310604D01*
X94231409Y-103472893D01*
X94225000Y-103543427D01*
X94225000Y-103675000D01*
X89200289Y-103675000D01*
X89125137Y-103535345D01*
X89083913Y-103472893D01*
X88887605Y-103175498D01*
X88887595Y-103175485D01*
X88618774Y-102838392D01*
X88618762Y-102838379D01*
X88320794Y-102526730D01*
X88320793Y-102526729D01*
X88320790Y-102526726D01*
X87996080Y-102243035D01*
X87996068Y-102243026D01*
X87647256Y-101989599D01*
X87647251Y-101989596D01*
X87647247Y-101989593D01*
X87277100Y-101768440D01*
X87277095Y-101768437D01*
X87277093Y-101768436D01*
X86888627Y-101581360D01*
X86888613Y-101581354D01*
X86484944Y-101429855D01*
X86484919Y-101429847D01*
X86069295Y-101315142D01*
X85645043Y-101238151D01*
X85645040Y-101238150D01*
X85645036Y-101238150D01*
X85215591Y-101199500D01*
X84784409Y-101199500D01*
X84354964Y-101238150D01*
X84354960Y-101238150D01*
X84354956Y-101238151D01*
X83930704Y-101315142D01*
X83515080Y-101429847D01*
X83515055Y-101429855D01*
X83111386Y-101581354D01*
X83111372Y-101581360D01*
X82722906Y-101768436D01*
X82722904Y-101768437D01*
X82352743Y-101989599D01*
X82003931Y-102243026D01*
X82003914Y-102243039D01*
X81679210Y-102526726D01*
X81679205Y-102526730D01*
X81381237Y-102838379D01*
X81381225Y-102838392D01*
X81112404Y-103175485D01*
X81112394Y-103175498D01*
X80874867Y-103535337D01*
X80874867Y-103535338D01*
X80670537Y-103915044D01*
X80670533Y-103915052D01*
X80501076Y-104311519D01*
X80501073Y-104311527D01*
X80367831Y-104721605D01*
X80320391Y-104929455D01*
X80286282Y-104990433D01*
X80224621Y-105023291D01*
X80154984Y-105017596D01*
X80099480Y-104975156D01*
X80075732Y-104909446D01*
X80075500Y-104901862D01*
X80075500Y-98175000D01*
X104394540Y-98175000D01*
X104414326Y-98363256D01*
X104414327Y-98363259D01*
X104472818Y-98543277D01*
X104472821Y-98543284D01*
X104567467Y-98707216D01*
X104614227Y-98759148D01*
X104694129Y-98847888D01*
X104847265Y-98959148D01*
X104847270Y-98959151D01*
X105020192Y-99036142D01*
X105020197Y-99036144D01*
X105205354Y-99075500D01*
X105205355Y-99075500D01*
X105394644Y-99075500D01*
X105394646Y-99075500D01*
X105579803Y-99036144D01*
X105752730Y-98959151D01*
X105905871Y-98847888D01*
X106014477Y-98727268D01*
X106073964Y-98690620D01*
X106143821Y-98691951D01*
X106179512Y-98709923D01*
X106247265Y-98759148D01*
X106247270Y-98759151D01*
X106420192Y-98836142D01*
X106420197Y-98836144D01*
X106605354Y-98875500D01*
X106605355Y-98875500D01*
X106794644Y-98875500D01*
X106794646Y-98875500D01*
X106979803Y-98836144D01*
X107152730Y-98759151D01*
X107305871Y-98647888D01*
X107432533Y-98507216D01*
X107527179Y-98343284D01*
X107585674Y-98163256D01*
X107605460Y-97975000D01*
X107585674Y-97786744D01*
X107527179Y-97606716D01*
X107432533Y-97442784D01*
X107305871Y-97302112D01*
X107305867Y-97302109D01*
X107152734Y-97190851D01*
X107152729Y-97190848D01*
X106979807Y-97113857D01*
X106979802Y-97113855D01*
X106834001Y-97082865D01*
X106794646Y-97074500D01*
X106605354Y-97074500D01*
X106572897Y-97081398D01*
X106420197Y-97113855D01*
X106420192Y-97113857D01*
X106247270Y-97190848D01*
X106247265Y-97190851D01*
X106094132Y-97302109D01*
X105985522Y-97422732D01*
X105926035Y-97459380D01*
X105856178Y-97458049D01*
X105820488Y-97440078D01*
X105752730Y-97390849D01*
X105752729Y-97390848D01*
X105579807Y-97313857D01*
X105579802Y-97313855D01*
X105434000Y-97282865D01*
X105394646Y-97274500D01*
X105205354Y-97274500D01*
X105172897Y-97281398D01*
X105020197Y-97313855D01*
X105020192Y-97313857D01*
X104847270Y-97390848D01*
X104847265Y-97390851D01*
X104694129Y-97502111D01*
X104567466Y-97642785D01*
X104472821Y-97806715D01*
X104472818Y-97806722D01*
X104418142Y-97975000D01*
X104414326Y-97986744D01*
X104394540Y-98175000D01*
X80075500Y-98175000D01*
X80075500Y-96343933D01*
X125620668Y-96343933D01*
X125636058Y-96431210D01*
X125651135Y-96516711D01*
X125720623Y-96677804D01*
X125720624Y-96677806D01*
X125720626Y-96677809D01*
X125775278Y-96751218D01*
X125825390Y-96818530D01*
X125959786Y-96931302D01*
X126037488Y-96970325D01*
X126116562Y-97010038D01*
X126116563Y-97010038D01*
X126116567Y-97010040D01*
X126287279Y-97050500D01*
X126287282Y-97050500D01*
X126418701Y-97050500D01*
X126418709Y-97050500D01*
X126549255Y-97035241D01*
X126714117Y-96975237D01*
X126860696Y-96878830D01*
X126981092Y-96751218D01*
X127068812Y-96599281D01*
X127119130Y-96431210D01*
X127129331Y-96256065D01*
X127098865Y-96083289D01*
X127029377Y-95922196D01*
X126924610Y-95781470D01*
X126852747Y-95721170D01*
X126790214Y-95668698D01*
X126790212Y-95668697D01*
X126633437Y-95589961D01*
X126633433Y-95589960D01*
X126462721Y-95549500D01*
X126331291Y-95549500D01*
X126226854Y-95561707D01*
X126200743Y-95564759D01*
X126200740Y-95564760D01*
X126035884Y-95624762D01*
X126035880Y-95624764D01*
X125889306Y-95721167D01*
X125889305Y-95721168D01*
X125768910Y-95848778D01*
X125681188Y-96000718D01*
X125630870Y-96168789D01*
X125630869Y-96168794D01*
X125620668Y-96343933D01*
X80075500Y-96343933D01*
X80075500Y-95000000D01*
X93519540Y-95000000D01*
X93539326Y-95188256D01*
X93539327Y-95188259D01*
X93597818Y-95368277D01*
X93597821Y-95368284D01*
X93692467Y-95532216D01*
X93744461Y-95589961D01*
X93819129Y-95672888D01*
X93972265Y-95784148D01*
X93972270Y-95784151D01*
X94145192Y-95861142D01*
X94145197Y-95861144D01*
X94330354Y-95900500D01*
X94330355Y-95900500D01*
X94519644Y-95900500D01*
X94519646Y-95900500D01*
X94704803Y-95861144D01*
X94837063Y-95802257D01*
X94906314Y-95792972D01*
X94937936Y-95802257D01*
X95070192Y-95861142D01*
X95070197Y-95861144D01*
X95255354Y-95900500D01*
X95255355Y-95900500D01*
X95444644Y-95900500D01*
X95444646Y-95900500D01*
X95629803Y-95861144D01*
X95802730Y-95784151D01*
X95955871Y-95672888D01*
X96082533Y-95532216D01*
X96177179Y-95368284D01*
X96235674Y-95188256D01*
X96255460Y-95000000D01*
X109344540Y-95000000D01*
X109364326Y-95188256D01*
X109364327Y-95188259D01*
X109422818Y-95368277D01*
X109422821Y-95368284D01*
X109517467Y-95532216D01*
X109569461Y-95589961D01*
X109644129Y-95672888D01*
X109797265Y-95784148D01*
X109797270Y-95784151D01*
X109970192Y-95861142D01*
X109970197Y-95861144D01*
X110155354Y-95900500D01*
X110155355Y-95900500D01*
X110344644Y-95900500D01*
X110344646Y-95900500D01*
X110529803Y-95861144D01*
X110702730Y-95784151D01*
X110855871Y-95672888D01*
X110982533Y-95532216D01*
X111077179Y-95368284D01*
X111135674Y-95188256D01*
X111155460Y-95000000D01*
X111135674Y-94811744D01*
X111077179Y-94631716D01*
X110982533Y-94467784D01*
X110855871Y-94327112D01*
X110855870Y-94327111D01*
X110702734Y-94215851D01*
X110702729Y-94215848D01*
X110529807Y-94138857D01*
X110529802Y-94138855D01*
X110384000Y-94107865D01*
X110344646Y-94099500D01*
X110155354Y-94099500D01*
X110122897Y-94106398D01*
X109970197Y-94138855D01*
X109970192Y-94138857D01*
X109797270Y-94215848D01*
X109797265Y-94215851D01*
X109644129Y-94327111D01*
X109517466Y-94467785D01*
X109422821Y-94631715D01*
X109422818Y-94631722D01*
X109364327Y-94811740D01*
X109364326Y-94811744D01*
X109344540Y-95000000D01*
X96255460Y-95000000D01*
X96235674Y-94811744D01*
X96177179Y-94631716D01*
X96082533Y-94467784D01*
X95955871Y-94327112D01*
X95955870Y-94327111D01*
X95802734Y-94215851D01*
X95802729Y-94215848D01*
X95629807Y-94138857D01*
X95629802Y-94138855D01*
X95484001Y-94107865D01*
X95444646Y-94099500D01*
X95255354Y-94099500D01*
X95205375Y-94110123D01*
X95070199Y-94138855D01*
X94937936Y-94197743D01*
X94868686Y-94207027D01*
X94837064Y-94197743D01*
X94781239Y-94172888D01*
X94704803Y-94138856D01*
X94704801Y-94138855D01*
X94704800Y-94138855D01*
X94588102Y-94114050D01*
X94519646Y-94099500D01*
X94330354Y-94099500D01*
X94297897Y-94106398D01*
X94145197Y-94138855D01*
X94145192Y-94138857D01*
X93972270Y-94215848D01*
X93972265Y-94215851D01*
X93819129Y-94327111D01*
X93692466Y-94467785D01*
X93597821Y-94631715D01*
X93597818Y-94631722D01*
X93539327Y-94811740D01*
X93539326Y-94811744D01*
X93519540Y-95000000D01*
X80075500Y-95000000D01*
X80075500Y-92925000D01*
X87119540Y-92925000D01*
X87139326Y-93113256D01*
X87139327Y-93113259D01*
X87197818Y-93293277D01*
X87197821Y-93293284D01*
X87292467Y-93457216D01*
X87419129Y-93597888D01*
X87572265Y-93709148D01*
X87572270Y-93709151D01*
X87745192Y-93786142D01*
X87745197Y-93786144D01*
X87930354Y-93825500D01*
X87930355Y-93825500D01*
X88119644Y-93825500D01*
X88119646Y-93825500D01*
X88304803Y-93786144D01*
X88477730Y-93709151D01*
X88630871Y-93597888D01*
X88719010Y-93500000D01*
X110844540Y-93500000D01*
X110864326Y-93688256D01*
X110864327Y-93688259D01*
X110922818Y-93868277D01*
X110922821Y-93868284D01*
X111017467Y-94032216D01*
X111113487Y-94138857D01*
X111144129Y-94172888D01*
X111297265Y-94284148D01*
X111297270Y-94284151D01*
X111470192Y-94361142D01*
X111470197Y-94361144D01*
X111655354Y-94400500D01*
X111655355Y-94400500D01*
X111844644Y-94400500D01*
X111844646Y-94400500D01*
X112029803Y-94361144D01*
X112202730Y-94284151D01*
X112355871Y-94172888D01*
X112482533Y-94032216D01*
X112577179Y-93868284D01*
X112635674Y-93688256D01*
X112655460Y-93500000D01*
X112635674Y-93311744D01*
X112577179Y-93131716D01*
X112482533Y-92967784D01*
X112355871Y-92827112D01*
X112355870Y-92827111D01*
X112202734Y-92715851D01*
X112202729Y-92715848D01*
X112029807Y-92638857D01*
X112029802Y-92638855D01*
X111884001Y-92607865D01*
X111844646Y-92599500D01*
X111655354Y-92599500D01*
X111622897Y-92606398D01*
X111470197Y-92638855D01*
X111470192Y-92638857D01*
X111297270Y-92715848D01*
X111297265Y-92715851D01*
X111144129Y-92827111D01*
X111017466Y-92967785D01*
X110922821Y-93131715D01*
X110922818Y-93131722D01*
X110864327Y-93311740D01*
X110864326Y-93311744D01*
X110844540Y-93500000D01*
X88719010Y-93500000D01*
X88757533Y-93457216D01*
X88852179Y-93293284D01*
X88910674Y-93113256D01*
X88922210Y-93003487D01*
X88948793Y-92938878D01*
X89006090Y-92898892D01*
X89019716Y-92895171D01*
X89179803Y-92861144D01*
X89179807Y-92861142D01*
X89179808Y-92861142D01*
X89256241Y-92827111D01*
X89352730Y-92784151D01*
X89505871Y-92672888D01*
X89616520Y-92550000D01*
X120469540Y-92550000D01*
X120489326Y-92738256D01*
X120489327Y-92738259D01*
X120547818Y-92918277D01*
X120547821Y-92918284D01*
X120642467Y-93082216D01*
X120687043Y-93131722D01*
X120769129Y-93222888D01*
X120922265Y-93334148D01*
X120922270Y-93334151D01*
X121095192Y-93411142D01*
X121095197Y-93411144D01*
X121280354Y-93450500D01*
X121280355Y-93450500D01*
X121469644Y-93450500D01*
X121469646Y-93450500D01*
X121654803Y-93411144D01*
X121777639Y-93356452D01*
X121846888Y-93347168D01*
X121878509Y-93356452D01*
X121945197Y-93386144D01*
X122130354Y-93425500D01*
X122130355Y-93425500D01*
X122319644Y-93425500D01*
X122319646Y-93425500D01*
X122504803Y-93386144D01*
X122677730Y-93309151D01*
X122830871Y-93197888D01*
X122957533Y-93057216D01*
X123052179Y-92893284D01*
X123110674Y-92713256D01*
X123130460Y-92525000D01*
X123110674Y-92336744D01*
X123066072Y-92199476D01*
X123064078Y-92129637D01*
X123076614Y-92099165D01*
X123152179Y-91968284D01*
X123160091Y-91943933D01*
X125620668Y-91943933D01*
X125645745Y-92086144D01*
X125651135Y-92116711D01*
X125720623Y-92277804D01*
X125720624Y-92277806D01*
X125720626Y-92277809D01*
X125764502Y-92336744D01*
X125825390Y-92418530D01*
X125959786Y-92531302D01*
X125997017Y-92550000D01*
X126116562Y-92610038D01*
X126116563Y-92610038D01*
X126116567Y-92610040D01*
X126287279Y-92650500D01*
X126287282Y-92650500D01*
X126418701Y-92650500D01*
X126418709Y-92650500D01*
X126549255Y-92635241D01*
X126714117Y-92575237D01*
X126860696Y-92478830D01*
X126981092Y-92351218D01*
X127068812Y-92199281D01*
X127119130Y-92031210D01*
X127129331Y-91856065D01*
X127098865Y-91683289D01*
X127029377Y-91522196D01*
X127020035Y-91509648D01*
X126924609Y-91381469D01*
X126790214Y-91268698D01*
X126790212Y-91268697D01*
X126633437Y-91189961D01*
X126633433Y-91189960D01*
X126462721Y-91149500D01*
X126331291Y-91149500D01*
X126226854Y-91161707D01*
X126200743Y-91164759D01*
X126200740Y-91164760D01*
X126035884Y-91224762D01*
X126035880Y-91224764D01*
X125889306Y-91321167D01*
X125889305Y-91321168D01*
X125768910Y-91448778D01*
X125681188Y-91600718D01*
X125630870Y-91768789D01*
X125630869Y-91768794D01*
X125620668Y-91943933D01*
X123160091Y-91943933D01*
X123210674Y-91788256D01*
X123230460Y-91600000D01*
X123210674Y-91411744D01*
X123152179Y-91231716D01*
X123057533Y-91067784D01*
X122930871Y-90927112D01*
X122909719Y-90911744D01*
X122777734Y-90815851D01*
X122777729Y-90815848D01*
X122604807Y-90738857D01*
X122604802Y-90738855D01*
X122459001Y-90707865D01*
X122419646Y-90699500D01*
X122230354Y-90699500D01*
X122197897Y-90706398D01*
X122045197Y-90738855D01*
X122045192Y-90738857D01*
X121872361Y-90815808D01*
X121803111Y-90825093D01*
X121771489Y-90815808D01*
X121654807Y-90763857D01*
X121654802Y-90763855D01*
X121503590Y-90731715D01*
X121469646Y-90724500D01*
X121280354Y-90724500D01*
X121247897Y-90731398D01*
X121095197Y-90763855D01*
X121095192Y-90763857D01*
X120922270Y-90840848D01*
X120922265Y-90840851D01*
X120769129Y-90952111D01*
X120642466Y-91092785D01*
X120547821Y-91256715D01*
X120547818Y-91256722D01*
X120489327Y-91436740D01*
X120489326Y-91436744D01*
X120469540Y-91625000D01*
X120489326Y-91813256D01*
X120489327Y-91813259D01*
X120547818Y-91993277D01*
X120547820Y-91993282D01*
X120547821Y-91993284D01*
X120556980Y-92009148D01*
X120566421Y-92025500D01*
X120582892Y-92093401D01*
X120566422Y-92149496D01*
X120547821Y-92181715D01*
X120497449Y-92336744D01*
X120489326Y-92361744D01*
X120469540Y-92550000D01*
X89616520Y-92550000D01*
X89632533Y-92532216D01*
X89727179Y-92368284D01*
X89785674Y-92188256D01*
X89805460Y-92000000D01*
X89785674Y-91811744D01*
X89727179Y-91631716D01*
X89727176Y-91631710D01*
X89724538Y-91625786D01*
X89726207Y-91625042D01*
X89711822Y-91565757D01*
X89728294Y-91509652D01*
X89752179Y-91468284D01*
X89810674Y-91288256D01*
X89817322Y-91225000D01*
X90544540Y-91225000D01*
X90564326Y-91413256D01*
X90564327Y-91413259D01*
X90622818Y-91593277D01*
X90622821Y-91593284D01*
X90717467Y-91757216D01*
X90844128Y-91897888D01*
X90844129Y-91897888D01*
X90997265Y-92009148D01*
X90997270Y-92009151D01*
X91170192Y-92086142D01*
X91170197Y-92086144D01*
X91355354Y-92125500D01*
X91355355Y-92125500D01*
X91544644Y-92125500D01*
X91544646Y-92125500D01*
X91729803Y-92086144D01*
X91902730Y-92009151D01*
X92055871Y-91897888D01*
X92182533Y-91757216D01*
X92277179Y-91593284D01*
X92335674Y-91413256D01*
X92355460Y-91225000D01*
X92335674Y-91036744D01*
X92277179Y-90856716D01*
X92182533Y-90692784D01*
X92055871Y-90552112D01*
X92026404Y-90530703D01*
X91902734Y-90440851D01*
X91902729Y-90440848D01*
X91729807Y-90363857D01*
X91729802Y-90363855D01*
X91584001Y-90332865D01*
X91544646Y-90324500D01*
X91355354Y-90324500D01*
X91322897Y-90331398D01*
X91170197Y-90363855D01*
X91170192Y-90363857D01*
X90997270Y-90440848D01*
X90997265Y-90440851D01*
X90844129Y-90552111D01*
X90717466Y-90692785D01*
X90622821Y-90856715D01*
X90622818Y-90856722D01*
X90564327Y-91036740D01*
X90564326Y-91036744D01*
X90544540Y-91225000D01*
X89817322Y-91225000D01*
X89830460Y-91100000D01*
X89810674Y-90911744D01*
X89752179Y-90731716D01*
X89657533Y-90567784D01*
X89530871Y-90427112D01*
X89530870Y-90427111D01*
X89377734Y-90315851D01*
X89377729Y-90315848D01*
X89204807Y-90238857D01*
X89204802Y-90238855D01*
X89059001Y-90207865D01*
X89019646Y-90199500D01*
X88842888Y-90199500D01*
X88775849Y-90179815D01*
X88730094Y-90127011D01*
X88720150Y-90057853D01*
X88749175Y-89994297D01*
X88750738Y-89992528D01*
X88753310Y-89989670D01*
X88782533Y-89957216D01*
X88877179Y-89793284D01*
X88935674Y-89613256D01*
X88955460Y-89425000D01*
X88935674Y-89236744D01*
X88877179Y-89056716D01*
X88844434Y-89000000D01*
X110969540Y-89000000D01*
X110989326Y-89188256D01*
X110989327Y-89188259D01*
X111047818Y-89368277D01*
X111047821Y-89368284D01*
X111142467Y-89532216D01*
X111215436Y-89613256D01*
X111269129Y-89672888D01*
X111422265Y-89784148D01*
X111422270Y-89784151D01*
X111595192Y-89861142D01*
X111595197Y-89861144D01*
X111780354Y-89900500D01*
X111780355Y-89900500D01*
X111969644Y-89900500D01*
X111969646Y-89900500D01*
X112154803Y-89861144D01*
X112327730Y-89784151D01*
X112480871Y-89672888D01*
X112607533Y-89532216D01*
X112702179Y-89368284D01*
X112760674Y-89188256D01*
X112780460Y-89000000D01*
X112760674Y-88811744D01*
X112702179Y-88631716D01*
X112607533Y-88467784D01*
X112480871Y-88327112D01*
X112480870Y-88327111D01*
X112327734Y-88215851D01*
X112327729Y-88215848D01*
X112154807Y-88138857D01*
X112154802Y-88138855D01*
X112009000Y-88107865D01*
X111969646Y-88099500D01*
X111780354Y-88099500D01*
X111747897Y-88106398D01*
X111595197Y-88138855D01*
X111595192Y-88138857D01*
X111422270Y-88215848D01*
X111422265Y-88215851D01*
X111269129Y-88327111D01*
X111142466Y-88467785D01*
X111047821Y-88631715D01*
X111047818Y-88631722D01*
X110989327Y-88811740D01*
X110989326Y-88811744D01*
X110969540Y-89000000D01*
X88844434Y-89000000D01*
X88782533Y-88892784D01*
X88655871Y-88752112D01*
X88655870Y-88752111D01*
X88502734Y-88640851D01*
X88502729Y-88640848D01*
X88329807Y-88563857D01*
X88329802Y-88563855D01*
X88184001Y-88532865D01*
X88144646Y-88524500D01*
X87955354Y-88524500D01*
X87922897Y-88531398D01*
X87770197Y-88563855D01*
X87770192Y-88563857D01*
X87597270Y-88640848D01*
X87597265Y-88640851D01*
X87444129Y-88752111D01*
X87317466Y-88892785D01*
X87222821Y-89056715D01*
X87222818Y-89056722D01*
X87164327Y-89236740D01*
X87164326Y-89236744D01*
X87144540Y-89425000D01*
X87164326Y-89613256D01*
X87164327Y-89613259D01*
X87222818Y-89793277D01*
X87222821Y-89793284D01*
X87317467Y-89957216D01*
X87408081Y-90057853D01*
X87444129Y-90097888D01*
X87597265Y-90209148D01*
X87597270Y-90209151D01*
X87770192Y-90286142D01*
X87770197Y-90286144D01*
X87955354Y-90325500D01*
X87955355Y-90325500D01*
X88132112Y-90325500D01*
X88199151Y-90345185D01*
X88244906Y-90397989D01*
X88254850Y-90467147D01*
X88225825Y-90530703D01*
X88224262Y-90532472D01*
X88192466Y-90567785D01*
X88097821Y-90731715D01*
X88097818Y-90731722D01*
X88039327Y-90911740D01*
X88039326Y-90911744D01*
X88019540Y-91100000D01*
X88039326Y-91288256D01*
X88039327Y-91288259D01*
X88097821Y-91468286D01*
X88100464Y-91474222D01*
X88098794Y-91474965D01*
X88113175Y-91534253D01*
X88096704Y-91590348D01*
X88072820Y-91631716D01*
X88014327Y-91811740D01*
X88014326Y-91811744D01*
X88002790Y-91921508D01*
X87976205Y-91986122D01*
X87918908Y-92026107D01*
X87905250Y-92029836D01*
X87745197Y-92063855D01*
X87745192Y-92063857D01*
X87572270Y-92140848D01*
X87572265Y-92140851D01*
X87419129Y-92252111D01*
X87292466Y-92392785D01*
X87197821Y-92556715D01*
X87197818Y-92556722D01*
X87139327Y-92736740D01*
X87139326Y-92736744D01*
X87119540Y-92925000D01*
X80075500Y-92925000D01*
X80075500Y-86000000D01*
X89844540Y-86000000D01*
X89864326Y-86188256D01*
X89864327Y-86188259D01*
X89922818Y-86368277D01*
X89922821Y-86368284D01*
X90017467Y-86532216D01*
X90144129Y-86672888D01*
X90297265Y-86784148D01*
X90297270Y-86784151D01*
X90470192Y-86861142D01*
X90470197Y-86861144D01*
X90655354Y-86900500D01*
X90655355Y-86900500D01*
X90844644Y-86900500D01*
X90844646Y-86900500D01*
X91029803Y-86861144D01*
X91202730Y-86784151D01*
X91355871Y-86672888D01*
X91482533Y-86532216D01*
X91577179Y-86368284D01*
X91635674Y-86188256D01*
X91655460Y-86000000D01*
X91635749Y-85812459D01*
X91648319Y-85743731D01*
X91696051Y-85692708D01*
X91759070Y-85675500D01*
X91794644Y-85675500D01*
X91794646Y-85675500D01*
X91979803Y-85636144D01*
X92152730Y-85559151D01*
X92305871Y-85447888D01*
X92432533Y-85307216D01*
X92527179Y-85143284D01*
X92573735Y-85000000D01*
X103094540Y-85000000D01*
X103114326Y-85188256D01*
X103114327Y-85188259D01*
X103172818Y-85368277D01*
X103172821Y-85368284D01*
X103267467Y-85532216D01*
X103393613Y-85672315D01*
X103394129Y-85672888D01*
X103547265Y-85784148D01*
X103547270Y-85784151D01*
X103720192Y-85861142D01*
X103720197Y-85861144D01*
X103905354Y-85900500D01*
X103905355Y-85900500D01*
X104094644Y-85900500D01*
X104094646Y-85900500D01*
X104279803Y-85861144D01*
X104452730Y-85784151D01*
X104605871Y-85672888D01*
X104732533Y-85532216D01*
X104827179Y-85368284D01*
X104885674Y-85188256D01*
X104905460Y-85000000D01*
X104885674Y-84811744D01*
X104827179Y-84631716D01*
X104732533Y-84467784D01*
X104605871Y-84327112D01*
X104605870Y-84327111D01*
X104452734Y-84215851D01*
X104452729Y-84215848D01*
X104279807Y-84138857D01*
X104279802Y-84138855D01*
X104134000Y-84107865D01*
X104094646Y-84099500D01*
X103905354Y-84099500D01*
X103872897Y-84106398D01*
X103720197Y-84138855D01*
X103720192Y-84138857D01*
X103547270Y-84215848D01*
X103547265Y-84215851D01*
X103394129Y-84327111D01*
X103267466Y-84467785D01*
X103172821Y-84631715D01*
X103172818Y-84631722D01*
X103114327Y-84811740D01*
X103114326Y-84811744D01*
X103094540Y-85000000D01*
X92573735Y-85000000D01*
X92585674Y-84963256D01*
X92605460Y-84775000D01*
X92585674Y-84586744D01*
X92527179Y-84406716D01*
X92432533Y-84242784D01*
X92305871Y-84102112D01*
X92305870Y-84102111D01*
X92152734Y-83990851D01*
X92152729Y-83990848D01*
X91979807Y-83913857D01*
X91979802Y-83913855D01*
X91834000Y-83882865D01*
X91794646Y-83874500D01*
X91605354Y-83874500D01*
X91572897Y-83881398D01*
X91420197Y-83913855D01*
X91420192Y-83913857D01*
X91247270Y-83990848D01*
X91247265Y-83990851D01*
X91094129Y-84102111D01*
X90967466Y-84242785D01*
X90872821Y-84406715D01*
X90872818Y-84406722D01*
X90814327Y-84586740D01*
X90814326Y-84586744D01*
X90794540Y-84775000D01*
X90812710Y-84947883D01*
X90814251Y-84962539D01*
X90801681Y-85031269D01*
X90753949Y-85082292D01*
X90690930Y-85099500D01*
X90655354Y-85099500D01*
X90622897Y-85106398D01*
X90470197Y-85138855D01*
X90470192Y-85138857D01*
X90297270Y-85215848D01*
X90297265Y-85215851D01*
X90144129Y-85327111D01*
X90017466Y-85467785D01*
X89922821Y-85631715D01*
X89922818Y-85631722D01*
X89864327Y-85811740D01*
X89864326Y-85811744D01*
X89844540Y-86000000D01*
X80075500Y-86000000D01*
X80075500Y-83500000D01*
X83944540Y-83500000D01*
X83964326Y-83688256D01*
X83964327Y-83688259D01*
X84022818Y-83868277D01*
X84022821Y-83868284D01*
X84117467Y-84032216D01*
X84213487Y-84138857D01*
X84244129Y-84172888D01*
X84397265Y-84284148D01*
X84397270Y-84284151D01*
X84570192Y-84361142D01*
X84570197Y-84361144D01*
X84755354Y-84400500D01*
X84755355Y-84400500D01*
X84944644Y-84400500D01*
X84944646Y-84400500D01*
X85129803Y-84361144D01*
X85302730Y-84284151D01*
X85455871Y-84172888D01*
X85582533Y-84032216D01*
X85677179Y-83868284D01*
X85735674Y-83688256D01*
X85755460Y-83500000D01*
X85735674Y-83311744D01*
X85699366Y-83200000D01*
X106619540Y-83200000D01*
X106639326Y-83388256D01*
X106639327Y-83388259D01*
X106697818Y-83568277D01*
X106697821Y-83568284D01*
X106792467Y-83732216D01*
X106861737Y-83809148D01*
X106919129Y-83872888D01*
X107072265Y-83984148D01*
X107072270Y-83984151D01*
X107245192Y-84061142D01*
X107245197Y-84061144D01*
X107430354Y-84100500D01*
X107430355Y-84100500D01*
X107619644Y-84100500D01*
X107619646Y-84100500D01*
X107804803Y-84061144D01*
X107977730Y-83984151D01*
X108130871Y-83872888D01*
X108257533Y-83732216D01*
X108352179Y-83568284D01*
X108410674Y-83388256D01*
X108430460Y-83200000D01*
X108410674Y-83011744D01*
X108394777Y-82962818D01*
X108392782Y-82892977D01*
X108428862Y-82833144D01*
X108491563Y-82802316D01*
X108512708Y-82800500D01*
X108644644Y-82800500D01*
X108644646Y-82800500D01*
X108829803Y-82761144D01*
X108842491Y-82755494D01*
X108846835Y-82753561D01*
X108916085Y-82744274D01*
X108979362Y-82773901D01*
X109016577Y-82833036D01*
X109015913Y-82902902D01*
X109015204Y-82905157D01*
X108980573Y-83011740D01*
X108964326Y-83061744D01*
X108944540Y-83250000D01*
X108964326Y-83438256D01*
X108964327Y-83438259D01*
X109022818Y-83618277D01*
X109022821Y-83618284D01*
X109117465Y-83782214D01*
X109117470Y-83782221D01*
X109124186Y-83789679D01*
X109154417Y-83852670D01*
X109145794Y-83922005D01*
X109139426Y-83934652D01*
X109097820Y-84006716D01*
X109043828Y-84172888D01*
X109039326Y-84186744D01*
X109019540Y-84375000D01*
X109039326Y-84563256D01*
X109039327Y-84563259D01*
X109097818Y-84743277D01*
X109097821Y-84743284D01*
X109192467Y-84907216D01*
X109282747Y-85007482D01*
X109319129Y-85047888D01*
X109472265Y-85159148D01*
X109472270Y-85159151D01*
X109645192Y-85236142D01*
X109645197Y-85236144D01*
X109830354Y-85275500D01*
X109830355Y-85275500D01*
X110019644Y-85275500D01*
X110019646Y-85275500D01*
X110204803Y-85236144D01*
X110377730Y-85159151D01*
X110530871Y-85047888D01*
X110657533Y-84907216D01*
X110752179Y-84743284D01*
X110810674Y-84563256D01*
X110830460Y-84375000D01*
X110810674Y-84186744D01*
X110752179Y-84006716D01*
X110674914Y-83872888D01*
X110657534Y-83842785D01*
X110657533Y-83842784D01*
X110650812Y-83835320D01*
X110620581Y-83772329D01*
X110629204Y-83702994D01*
X110635567Y-83690355D01*
X110677179Y-83618284D01*
X110735674Y-83438256D01*
X110755460Y-83250000D01*
X110735674Y-83061744D01*
X110723735Y-83025000D01*
X121019540Y-83025000D01*
X121039326Y-83213256D01*
X121039327Y-83213259D01*
X121097818Y-83393277D01*
X121097821Y-83393284D01*
X121192467Y-83557216D01*
X121202433Y-83568284D01*
X121319129Y-83697888D01*
X121472265Y-83809148D01*
X121472270Y-83809151D01*
X121645192Y-83886142D01*
X121645197Y-83886144D01*
X121830354Y-83925500D01*
X121830355Y-83925500D01*
X122019644Y-83925500D01*
X122019646Y-83925500D01*
X122204803Y-83886144D01*
X122377730Y-83809151D01*
X122530871Y-83697888D01*
X122657533Y-83557216D01*
X122752179Y-83393284D01*
X122810674Y-83213256D01*
X122830460Y-83025000D01*
X122810674Y-82836744D01*
X122752179Y-82656716D01*
X122752176Y-82656710D01*
X122749538Y-82650786D01*
X122752210Y-82649595D01*
X122738759Y-82594049D01*
X122751700Y-82550177D01*
X122749538Y-82549214D01*
X122752174Y-82543292D01*
X122752179Y-82543284D01*
X122810674Y-82363256D01*
X122830460Y-82175000D01*
X122810674Y-81986744D01*
X122752179Y-81806716D01*
X122657533Y-81642784D01*
X122530871Y-81502112D01*
X122530870Y-81502111D01*
X122377734Y-81390851D01*
X122377729Y-81390848D01*
X122204807Y-81313857D01*
X122204802Y-81313855D01*
X122053590Y-81281715D01*
X122019646Y-81274500D01*
X121830354Y-81274500D01*
X121797897Y-81281398D01*
X121645197Y-81313855D01*
X121645192Y-81313857D01*
X121472270Y-81390848D01*
X121472265Y-81390851D01*
X121319129Y-81502111D01*
X121192466Y-81642785D01*
X121097821Y-81806715D01*
X121097818Y-81806722D01*
X121053002Y-81944653D01*
X121039326Y-81986744D01*
X121019540Y-82175000D01*
X121039326Y-82363256D01*
X121039327Y-82363259D01*
X121097821Y-82543285D01*
X121100464Y-82549221D01*
X121097790Y-82550411D01*
X121111240Y-82605950D01*
X121098353Y-82649839D01*
X121100464Y-82650779D01*
X121097821Y-82656714D01*
X121039874Y-82835056D01*
X121039326Y-82836744D01*
X121019540Y-83025000D01*
X110723735Y-83025000D01*
X110677179Y-82881716D01*
X110589654Y-82730119D01*
X110573182Y-82662220D01*
X110596035Y-82596193D01*
X110604896Y-82585143D01*
X110607533Y-82582216D01*
X110702179Y-82418284D01*
X110760674Y-82238256D01*
X110780460Y-82050000D01*
X110760674Y-81861744D01*
X110702179Y-81681716D01*
X110607533Y-81517784D01*
X110480871Y-81377112D01*
X110480870Y-81377111D01*
X110327734Y-81265851D01*
X110327729Y-81265848D01*
X110154807Y-81188857D01*
X110154802Y-81188855D01*
X110009001Y-81157865D01*
X109969646Y-81149500D01*
X109780354Y-81149500D01*
X109747897Y-81156398D01*
X109595197Y-81188855D01*
X109595192Y-81188857D01*
X109422271Y-81265848D01*
X109372633Y-81301911D01*
X109306826Y-81325389D01*
X109238772Y-81309562D01*
X109207600Y-81284563D01*
X109198539Y-81274500D01*
X109155871Y-81227112D01*
X109155870Y-81227111D01*
X109155864Y-81227106D01*
X109002734Y-81115851D01*
X109002730Y-81115849D01*
X108968880Y-81100778D01*
X108915645Y-81055529D01*
X108895324Y-80988680D01*
X108914369Y-80921457D01*
X108966735Y-80875201D01*
X108968809Y-80874253D01*
X109002730Y-80859151D01*
X109155871Y-80747888D01*
X109282533Y-80607216D01*
X109377179Y-80443284D01*
X109435674Y-80263256D01*
X109442322Y-80200004D01*
X125594732Y-80200004D01*
X125613777Y-80454154D01*
X125648712Y-80607216D01*
X125670492Y-80702637D01*
X125737834Y-80874221D01*
X125763608Y-80939890D01*
X125785098Y-80977112D01*
X125891041Y-81160612D01*
X126049950Y-81359877D01*
X126236783Y-81533232D01*
X126447366Y-81676805D01*
X126447371Y-81676807D01*
X126447372Y-81676808D01*
X126447373Y-81676809D01*
X126572126Y-81736886D01*
X126627972Y-81763780D01*
X126679832Y-81810602D01*
X126698145Y-81878029D01*
X126677097Y-81944653D01*
X126623371Y-81989321D01*
X126574171Y-81999500D01*
X126052129Y-81999500D01*
X126052123Y-81999501D01*
X125992516Y-82005908D01*
X125857671Y-82056202D01*
X125857664Y-82056206D01*
X125742455Y-82142452D01*
X125742452Y-82142455D01*
X125656206Y-82257664D01*
X125656202Y-82257671D01*
X125605908Y-82392517D01*
X125599501Y-82452116D01*
X125599501Y-82452123D01*
X125599500Y-82452135D01*
X125599500Y-84947870D01*
X125599501Y-84947876D01*
X125605908Y-85007483D01*
X125656202Y-85142328D01*
X125656206Y-85142335D01*
X125742452Y-85257544D01*
X125742455Y-85257547D01*
X125857664Y-85343793D01*
X125857671Y-85343797D01*
X125992517Y-85394091D01*
X125992516Y-85394091D01*
X125999444Y-85394835D01*
X126052127Y-85400500D01*
X128547872Y-85400499D01*
X128607483Y-85394091D01*
X128742331Y-85343796D01*
X128857546Y-85257546D01*
X128943796Y-85142331D01*
X128994091Y-85007483D01*
X129000500Y-84947873D01*
X129000499Y-82452128D01*
X128994091Y-82392517D01*
X128983178Y-82363259D01*
X128943797Y-82257671D01*
X128943793Y-82257664D01*
X128857547Y-82142455D01*
X128857544Y-82142452D01*
X128742335Y-82056206D01*
X128742328Y-82056202D01*
X128607482Y-82005908D01*
X128607483Y-82005908D01*
X128547883Y-81999501D01*
X128547881Y-81999500D01*
X128547873Y-81999500D01*
X128547865Y-81999500D01*
X128025829Y-81999500D01*
X127958790Y-81979815D01*
X127913035Y-81927011D01*
X127903091Y-81857853D01*
X127932116Y-81794297D01*
X127972027Y-81763780D01*
X128142436Y-81681716D01*
X128152626Y-81676809D01*
X128152626Y-81676808D01*
X128152634Y-81676805D01*
X128363217Y-81533232D01*
X128550050Y-81359877D01*
X128708959Y-81160612D01*
X128836393Y-80939888D01*
X128929508Y-80702637D01*
X128986222Y-80454157D01*
X128999409Y-80278183D01*
X129005268Y-80200004D01*
X129005268Y-80199995D01*
X128986222Y-79945845D01*
X128975276Y-79897888D01*
X128929508Y-79697363D01*
X128836393Y-79460112D01*
X128708959Y-79239388D01*
X128550050Y-79040123D01*
X128363217Y-78866768D01*
X128152634Y-78723195D01*
X128152630Y-78723193D01*
X128152627Y-78723191D01*
X128152626Y-78723190D01*
X127923006Y-78612612D01*
X127923008Y-78612612D01*
X127679466Y-78537489D01*
X127679462Y-78537488D01*
X127679458Y-78537487D01*
X127558231Y-78519214D01*
X127427440Y-78499500D01*
X127427435Y-78499500D01*
X127172565Y-78499500D01*
X127172559Y-78499500D01*
X127015609Y-78523157D01*
X126920542Y-78537487D01*
X126920538Y-78537488D01*
X126920539Y-78537488D01*
X126920533Y-78537489D01*
X126676992Y-78612612D01*
X126447373Y-78723190D01*
X126447372Y-78723191D01*
X126236782Y-78866768D01*
X126049952Y-79040121D01*
X126049950Y-79040123D01*
X125891041Y-79239388D01*
X125763608Y-79460109D01*
X125670492Y-79697362D01*
X125670490Y-79697369D01*
X125613777Y-79945845D01*
X125594732Y-80199995D01*
X125594732Y-80200004D01*
X109442322Y-80200004D01*
X109455460Y-80075000D01*
X109435674Y-79886744D01*
X109377179Y-79706716D01*
X109282533Y-79542784D01*
X109155871Y-79402112D01*
X109155870Y-79402111D01*
X109002734Y-79290851D01*
X109002729Y-79290848D01*
X108829801Y-79213854D01*
X108828202Y-79213335D01*
X108827395Y-79212783D01*
X108823866Y-79211212D01*
X108824153Y-79210566D01*
X108770527Y-79173897D01*
X108743330Y-79109538D01*
X108743201Y-79108366D01*
X108735674Y-79036744D01*
X108677179Y-78856716D01*
X108677176Y-78856712D01*
X108675262Y-78850819D01*
X108673267Y-78780977D01*
X108675262Y-78774181D01*
X108677176Y-78768287D01*
X108677179Y-78768284D01*
X108735674Y-78588256D01*
X108737067Y-78575000D01*
X112144540Y-78575000D01*
X112164326Y-78763256D01*
X112164327Y-78763259D01*
X112222818Y-78943277D01*
X112222821Y-78943284D01*
X112317467Y-79107216D01*
X112436476Y-79239388D01*
X112444129Y-79247888D01*
X112597265Y-79359148D01*
X112597270Y-79359151D01*
X112770192Y-79436142D01*
X112770197Y-79436144D01*
X112955354Y-79475500D01*
X112955355Y-79475500D01*
X113144644Y-79475500D01*
X113144646Y-79475500D01*
X113329803Y-79436144D01*
X113502730Y-79359151D01*
X113655871Y-79247888D01*
X113782533Y-79107216D01*
X113877179Y-78943284D01*
X113935674Y-78763256D01*
X113955460Y-78575000D01*
X113935674Y-78386744D01*
X113877179Y-78206716D01*
X113782533Y-78042784D01*
X113655871Y-77902112D01*
X113652964Y-77900000D01*
X120319540Y-77900000D01*
X120339326Y-78088256D01*
X120339327Y-78088259D01*
X120397818Y-78268277D01*
X120397821Y-78268284D01*
X120492467Y-78432216D01*
X120553050Y-78499500D01*
X120619129Y-78572888D01*
X120772265Y-78684148D01*
X120772270Y-78684151D01*
X120945192Y-78761142D01*
X120945197Y-78761144D01*
X121130354Y-78800500D01*
X121130355Y-78800500D01*
X121319644Y-78800500D01*
X121319646Y-78800500D01*
X121504803Y-78761144D01*
X121677730Y-78684151D01*
X121830871Y-78572888D01*
X121957533Y-78432216D01*
X122052179Y-78268284D01*
X122110674Y-78088256D01*
X122130460Y-77900000D01*
X122110674Y-77711744D01*
X122052179Y-77531716D01*
X121957533Y-77367784D01*
X121830871Y-77227112D01*
X121830870Y-77227111D01*
X121677734Y-77115851D01*
X121677729Y-77115848D01*
X121504807Y-77038857D01*
X121504802Y-77038855D01*
X121359001Y-77007865D01*
X121319646Y-76999500D01*
X121130354Y-76999500D01*
X121097897Y-77006398D01*
X120945197Y-77038855D01*
X120945192Y-77038857D01*
X120772270Y-77115848D01*
X120772265Y-77115851D01*
X120619129Y-77227111D01*
X120492466Y-77367785D01*
X120397821Y-77531715D01*
X120397818Y-77531722D01*
X120351427Y-77674500D01*
X120339326Y-77711744D01*
X120319540Y-77900000D01*
X113652964Y-77900000D01*
X113608624Y-77867785D01*
X113502734Y-77790851D01*
X113502729Y-77790848D01*
X113329807Y-77713857D01*
X113329802Y-77713855D01*
X113184001Y-77682865D01*
X113144646Y-77674500D01*
X112955354Y-77674500D01*
X112922897Y-77681398D01*
X112770197Y-77713855D01*
X112770192Y-77713857D01*
X112597270Y-77790848D01*
X112597265Y-77790851D01*
X112444129Y-77902111D01*
X112317466Y-78042785D01*
X112222821Y-78206715D01*
X112222818Y-78206722D01*
X112164327Y-78386740D01*
X112164326Y-78386744D01*
X112144540Y-78575000D01*
X108737067Y-78575000D01*
X108755460Y-78400000D01*
X108735674Y-78211744D01*
X108677179Y-78031716D01*
X108582533Y-77867784D01*
X108455871Y-77727112D01*
X108437626Y-77713856D01*
X108302734Y-77615851D01*
X108302729Y-77615848D01*
X108129807Y-77538857D01*
X108129802Y-77538855D01*
X107984000Y-77507865D01*
X107944646Y-77499500D01*
X107755354Y-77499500D01*
X107722897Y-77506398D01*
X107570197Y-77538855D01*
X107570192Y-77538857D01*
X107397270Y-77615848D01*
X107397265Y-77615851D01*
X107244129Y-77727111D01*
X107117466Y-77867785D01*
X107022821Y-78031715D01*
X107022818Y-78031722D01*
X106964327Y-78211740D01*
X106964326Y-78211744D01*
X106944540Y-78400000D01*
X106964326Y-78588256D01*
X106964327Y-78588259D01*
X107024737Y-78774181D01*
X107026732Y-78844022D01*
X107024737Y-78850817D01*
X106964327Y-79036740D01*
X106964326Y-79036744D01*
X106944540Y-79225000D01*
X106964326Y-79413256D01*
X106964327Y-79413259D01*
X107022818Y-79593277D01*
X107022821Y-79593284D01*
X107117467Y-79757216D01*
X107187554Y-79835055D01*
X107244129Y-79897888D01*
X107397265Y-80009148D01*
X107397270Y-80009151D01*
X107570197Y-80086144D01*
X107570203Y-80086145D01*
X107571788Y-80086661D01*
X107572593Y-80087211D01*
X107576134Y-80088788D01*
X107575845Y-80089435D01*
X107629466Y-80126094D01*
X107656668Y-80190451D01*
X107656793Y-80191588D01*
X107664326Y-80263256D01*
X107664327Y-80263258D01*
X107664327Y-80263260D01*
X107722818Y-80443277D01*
X107722821Y-80443284D01*
X107817467Y-80607216D01*
X107903385Y-80702637D01*
X107944129Y-80747888D01*
X108097265Y-80859148D01*
X108097270Y-80859151D01*
X108131117Y-80874221D01*
X108184354Y-80919472D01*
X108204675Y-80986321D01*
X108185629Y-81053544D01*
X108133263Y-81099799D01*
X108131117Y-81100779D01*
X108097270Y-81115848D01*
X108097265Y-81115851D01*
X107944129Y-81227111D01*
X107817466Y-81367785D01*
X107722821Y-81531715D01*
X107722818Y-81531722D01*
X107664327Y-81711740D01*
X107664326Y-81711744D01*
X107644540Y-81900000D01*
X107664326Y-82088256D01*
X107664327Y-82088259D01*
X107680223Y-82137182D01*
X107682218Y-82207023D01*
X107646138Y-82266856D01*
X107583437Y-82297684D01*
X107562292Y-82299500D01*
X107430354Y-82299500D01*
X107397897Y-82306398D01*
X107245197Y-82338855D01*
X107245192Y-82338857D01*
X107072270Y-82415848D01*
X107072265Y-82415851D01*
X106919129Y-82527111D01*
X106792466Y-82667785D01*
X106697821Y-82831715D01*
X106697818Y-82831722D01*
X106643068Y-83000226D01*
X106639326Y-83011744D01*
X106619540Y-83200000D01*
X85699366Y-83200000D01*
X85677179Y-83131716D01*
X85582533Y-82967784D01*
X85455871Y-82827112D01*
X85455870Y-82827111D01*
X85302734Y-82715851D01*
X85302729Y-82715848D01*
X85129807Y-82638857D01*
X85129802Y-82638855D01*
X84974991Y-82605950D01*
X84944646Y-82599500D01*
X84755354Y-82599500D01*
X84725009Y-82605950D01*
X84570197Y-82638855D01*
X84570192Y-82638857D01*
X84397270Y-82715848D01*
X84397265Y-82715851D01*
X84244129Y-82827111D01*
X84117466Y-82967785D01*
X84022821Y-83131715D01*
X84022818Y-83131722D01*
X83964327Y-83311740D01*
X83964326Y-83311744D01*
X83944540Y-83500000D01*
X80075500Y-83500000D01*
X80075500Y-82835055D01*
X81219500Y-82835055D01*
X81260210Y-83000226D01*
X81339263Y-83150849D01*
X81339266Y-83150852D01*
X81452071Y-83278183D01*
X81542318Y-83340476D01*
X81592068Y-83374817D01*
X81592069Y-83374817D01*
X81592070Y-83374818D01*
X81751128Y-83435140D01*
X81827028Y-83444356D01*
X81877626Y-83450500D01*
X81877628Y-83450500D01*
X81962374Y-83450500D01*
X82004538Y-83445380D01*
X82088872Y-83435140D01*
X82247930Y-83374818D01*
X82387929Y-83278183D01*
X82500734Y-83150852D01*
X82510775Y-83131722D01*
X82579789Y-83000226D01*
X82579790Y-83000225D01*
X82620500Y-82835056D01*
X82620500Y-82664944D01*
X82579790Y-82499775D01*
X82579789Y-82499773D01*
X82500736Y-82349150D01*
X82455141Y-82297684D01*
X82387929Y-82221817D01*
X82338177Y-82187475D01*
X82247931Y-82125182D01*
X82088874Y-82064860D01*
X82088868Y-82064859D01*
X81962374Y-82049500D01*
X81962372Y-82049500D01*
X81877628Y-82049500D01*
X81877626Y-82049500D01*
X81751131Y-82064859D01*
X81751125Y-82064860D01*
X81592068Y-82125182D01*
X81452072Y-82221816D01*
X81339263Y-82349150D01*
X81260210Y-82499773D01*
X81219500Y-82664944D01*
X81219500Y-82835055D01*
X80075500Y-82835055D01*
X80075500Y-81650000D01*
X96744540Y-81650000D01*
X96764326Y-81838256D01*
X96764327Y-81838259D01*
X96822818Y-82018277D01*
X96822821Y-82018284D01*
X96917467Y-82182216D01*
X97021435Y-82297684D01*
X97044129Y-82322888D01*
X97197265Y-82434148D01*
X97197270Y-82434151D01*
X97370192Y-82511142D01*
X97370197Y-82511144D01*
X97555354Y-82550500D01*
X97555355Y-82550500D01*
X97744644Y-82550500D01*
X97744646Y-82550500D01*
X97929803Y-82511144D01*
X98102730Y-82434151D01*
X98255871Y-82322888D01*
X98382533Y-82182216D01*
X98477179Y-82018284D01*
X98535674Y-81838256D01*
X98555460Y-81650000D01*
X98535674Y-81461744D01*
X98477179Y-81281716D01*
X98382533Y-81117784D01*
X98255871Y-80977112D01*
X98255870Y-80977111D01*
X98102734Y-80865851D01*
X98102729Y-80865848D01*
X97929807Y-80788857D01*
X97929802Y-80788855D01*
X97784000Y-80757865D01*
X97744646Y-80749500D01*
X97555354Y-80749500D01*
X97522897Y-80756398D01*
X97370197Y-80788855D01*
X97370192Y-80788857D01*
X97197270Y-80865848D01*
X97197265Y-80865851D01*
X97044129Y-80977111D01*
X96917466Y-81117785D01*
X96822821Y-81281715D01*
X96822818Y-81281722D01*
X96764327Y-81461740D01*
X96764326Y-81461744D01*
X96744540Y-81650000D01*
X80075500Y-81650000D01*
X80075500Y-79835055D01*
X81219500Y-79835055D01*
X81260210Y-80000226D01*
X81339263Y-80150849D01*
X81339266Y-80150852D01*
X81452071Y-80278183D01*
X81542318Y-80340476D01*
X81592068Y-80374817D01*
X81592069Y-80374817D01*
X81592070Y-80374818D01*
X81751128Y-80435140D01*
X81827028Y-80444356D01*
X81877626Y-80450500D01*
X81877628Y-80450500D01*
X81962374Y-80450500D01*
X82004538Y-80445380D01*
X82088872Y-80435140D01*
X82247930Y-80374818D01*
X82387929Y-80278183D01*
X82500734Y-80150852D01*
X82532969Y-80089435D01*
X82575105Y-80009151D01*
X82579790Y-80000225D01*
X82620500Y-79835056D01*
X82620500Y-79664944D01*
X82579790Y-79499775D01*
X82572424Y-79485741D01*
X82500736Y-79349150D01*
X82481560Y-79327505D01*
X82387929Y-79221817D01*
X82328984Y-79181130D01*
X82247931Y-79125182D01*
X82088874Y-79064860D01*
X82088868Y-79064859D01*
X81962374Y-79049500D01*
X81962372Y-79049500D01*
X81877628Y-79049500D01*
X81877626Y-79049500D01*
X81751131Y-79064859D01*
X81751125Y-79064860D01*
X81592068Y-79125182D01*
X81452072Y-79221816D01*
X81339263Y-79349150D01*
X81260210Y-79499773D01*
X81219500Y-79664944D01*
X81219500Y-79835055D01*
X80075500Y-79835055D01*
X80075500Y-78812853D01*
X103032393Y-78812853D01*
X103052179Y-79001109D01*
X103052180Y-79001112D01*
X103110671Y-79181130D01*
X103110674Y-79181137D01*
X103205320Y-79345069D01*
X103322761Y-79475500D01*
X103331982Y-79485741D01*
X103485118Y-79597001D01*
X103485123Y-79597004D01*
X103658045Y-79673995D01*
X103658050Y-79673997D01*
X103843207Y-79713353D01*
X103843208Y-79713353D01*
X104032497Y-79713353D01*
X104032499Y-79713353D01*
X104217656Y-79673997D01*
X104390583Y-79597004D01*
X104543724Y-79485741D01*
X104670386Y-79345069D01*
X104765032Y-79181137D01*
X104823527Y-79001109D01*
X104843313Y-78812853D01*
X104823527Y-78624597D01*
X104765032Y-78444569D01*
X104670386Y-78280637D01*
X104543724Y-78139965D01*
X104472557Y-78088259D01*
X104390587Y-78028704D01*
X104390582Y-78028701D01*
X104217660Y-77951710D01*
X104217655Y-77951708D01*
X104071854Y-77920718D01*
X104032499Y-77912353D01*
X103843207Y-77912353D01*
X103810750Y-77919251D01*
X103658050Y-77951708D01*
X103658045Y-77951710D01*
X103485123Y-78028701D01*
X103485118Y-78028704D01*
X103331982Y-78139964D01*
X103205319Y-78280638D01*
X103110674Y-78444568D01*
X103110671Y-78444575D01*
X103056073Y-78612612D01*
X103052179Y-78624597D01*
X103032393Y-78812853D01*
X80075500Y-78812853D01*
X80075500Y-72098137D01*
X80095185Y-72031098D01*
X80147989Y-71985343D01*
X80217147Y-71975399D01*
X80280703Y-72004424D01*
X80318477Y-72063202D01*
X80320391Y-72070545D01*
X80367830Y-72278391D01*
X80501073Y-72688472D01*
X80501076Y-72688480D01*
X80670533Y-73084947D01*
X80670537Y-73084955D01*
X80670539Y-73084958D01*
X80874863Y-73464655D01*
X80874867Y-73464661D01*
X80874867Y-73464662D01*
X81112394Y-73824500D01*
X81112404Y-73824514D01*
X81381225Y-74161607D01*
X81381235Y-74161618D01*
X81381236Y-74161619D01*
X81679210Y-74473274D01*
X82003920Y-74756965D01*
X82352753Y-75010407D01*
X82722900Y-75231560D01*
X82722903Y-75231561D01*
X82722904Y-75231562D01*
X82722906Y-75231563D01*
X83111372Y-75418639D01*
X83111386Y-75418645D01*
X83515055Y-75570144D01*
X83515059Y-75570145D01*
X83515069Y-75570149D01*
X83930711Y-75684859D01*
X84354964Y-75761850D01*
X84784409Y-75800500D01*
X84784416Y-75800500D01*
X85215584Y-75800500D01*
X85215591Y-75800500D01*
X85645036Y-75761850D01*
X86069289Y-75684859D01*
X86484931Y-75570149D01*
X86888619Y-75418643D01*
X87277100Y-75231560D01*
X87647247Y-75010407D01*
X87971257Y-74775000D01*
X113169540Y-74775000D01*
X113189326Y-74963256D01*
X113189327Y-74963259D01*
X113247818Y-75143277D01*
X113247821Y-75143284D01*
X113342467Y-75307216D01*
X113469129Y-75447888D01*
X113622265Y-75559148D01*
X113622270Y-75559151D01*
X113795192Y-75636142D01*
X113795197Y-75636144D01*
X113980354Y-75675500D01*
X113980355Y-75675500D01*
X114169644Y-75675500D01*
X114169646Y-75675500D01*
X114354803Y-75636144D01*
X114527730Y-75559151D01*
X114680871Y-75447888D01*
X114807533Y-75307216D01*
X114902179Y-75143284D01*
X114960674Y-74963256D01*
X114980460Y-74775000D01*
X114960674Y-74586744D01*
X114902179Y-74406716D01*
X114807533Y-74242784D01*
X114680871Y-74102112D01*
X114680870Y-74102111D01*
X114527734Y-73990851D01*
X114527729Y-73990848D01*
X114354807Y-73913857D01*
X114354802Y-73913855D01*
X114209001Y-73882865D01*
X114169646Y-73874500D01*
X113980354Y-73874500D01*
X113947897Y-73881398D01*
X113795197Y-73913855D01*
X113795192Y-73913857D01*
X113622270Y-73990848D01*
X113622265Y-73990851D01*
X113469129Y-74102111D01*
X113342466Y-74242785D01*
X113247821Y-74406715D01*
X113247818Y-74406722D01*
X113189327Y-74586740D01*
X113189326Y-74586744D01*
X113169540Y-74775000D01*
X87971257Y-74775000D01*
X87996080Y-74756965D01*
X88320790Y-74473274D01*
X88618764Y-74161619D01*
X88698892Y-74061142D01*
X88816348Y-73913856D01*
X88887601Y-73824507D01*
X88897738Y-73809151D01*
X89125132Y-73464662D01*
X89125137Y-73464655D01*
X89242159Y-73247192D01*
X94224500Y-73247192D01*
X94239326Y-73388256D01*
X94239327Y-73388259D01*
X94297818Y-73568277D01*
X94297821Y-73568284D01*
X94392467Y-73732216D01*
X94475573Y-73824514D01*
X94519129Y-73872888D01*
X94672265Y-73984148D01*
X94672270Y-73984151D01*
X94845192Y-74061142D01*
X94845197Y-74061144D01*
X95030354Y-74100500D01*
X95030355Y-74100500D01*
X95219644Y-74100500D01*
X95219646Y-74100500D01*
X95404803Y-74061144D01*
X95577730Y-73984151D01*
X95677114Y-73911944D01*
X95742921Y-73888464D01*
X95810975Y-73904289D01*
X95822885Y-73911944D01*
X95922265Y-73984148D01*
X95922270Y-73984151D01*
X96095192Y-74061142D01*
X96095197Y-74061144D01*
X96280354Y-74100500D01*
X96280355Y-74100500D01*
X96469644Y-74100500D01*
X96469646Y-74100500D01*
X96654803Y-74061144D01*
X96827730Y-73984151D01*
X96927114Y-73911944D01*
X96992921Y-73888464D01*
X97060975Y-73904289D01*
X97072885Y-73911944D01*
X97172265Y-73984148D01*
X97172270Y-73984151D01*
X97345192Y-74061142D01*
X97345197Y-74061144D01*
X97530354Y-74100500D01*
X97530355Y-74100500D01*
X97719644Y-74100500D01*
X97719646Y-74100500D01*
X97904803Y-74061144D01*
X98077730Y-73984151D01*
X98106734Y-73963078D01*
X98172541Y-73939597D01*
X98240595Y-73955422D01*
X98243771Y-73957278D01*
X98385604Y-74043019D01*
X98385603Y-74043019D01*
X98499999Y-74078666D01*
X98500000Y-74078666D01*
X98500000Y-73440746D01*
X98506068Y-73402430D01*
X98510674Y-73388256D01*
X98517322Y-73325000D01*
X99250000Y-73325000D01*
X99250000Y-74078666D01*
X99364395Y-74043019D01*
X99509877Y-73955072D01*
X99630072Y-73834877D01*
X99718019Y-73689395D01*
X99768590Y-73527106D01*
X99775000Y-73456572D01*
X99775000Y-73325000D01*
X99250000Y-73325000D01*
X98517322Y-73325000D01*
X98525500Y-73247192D01*
X98525500Y-73247187D01*
X98525670Y-73243947D01*
X98527001Y-73244016D01*
X98545185Y-73182092D01*
X98597989Y-73136337D01*
X98667147Y-73126393D01*
X98718388Y-73146028D01*
X98751697Y-73168284D01*
X98777455Y-73185495D01*
X98777459Y-73185496D01*
X98850371Y-73199999D01*
X98850374Y-73200000D01*
X98850376Y-73200000D01*
X98899626Y-73200000D01*
X98899627Y-73199999D01*
X98972545Y-73185495D01*
X99055240Y-73130240D01*
X99110495Y-73047545D01*
X99122288Y-72988259D01*
X99129898Y-72950002D01*
X99129898Y-72949997D01*
X99110496Y-72852459D01*
X99110495Y-72852458D01*
X99110495Y-72852455D01*
X99075446Y-72800000D01*
X108594540Y-72800000D01*
X108614326Y-72988256D01*
X108614327Y-72988259D01*
X108672818Y-73168277D01*
X108672821Y-73168284D01*
X108767467Y-73332216D01*
X108865188Y-73440746D01*
X108894129Y-73472888D01*
X109047265Y-73584148D01*
X109047270Y-73584151D01*
X109220192Y-73661142D01*
X109220197Y-73661144D01*
X109405354Y-73700500D01*
X109405355Y-73700500D01*
X109594644Y-73700500D01*
X109594646Y-73700500D01*
X109779803Y-73661144D01*
X109952730Y-73584151D01*
X110105871Y-73472888D01*
X110232533Y-73332216D01*
X110327179Y-73168284D01*
X110385674Y-72988256D01*
X110405460Y-72800000D01*
X110385674Y-72611744D01*
X110327179Y-72431716D01*
X110272493Y-72336997D01*
X110256021Y-72269100D01*
X110272494Y-72213001D01*
X110327179Y-72118284D01*
X110373735Y-71975000D01*
X115144540Y-71975000D01*
X115164326Y-72163256D01*
X115164327Y-72163259D01*
X115222818Y-72343277D01*
X115222819Y-72343279D01*
X115222821Y-72343284D01*
X115273875Y-72431713D01*
X115290005Y-72459650D01*
X115306478Y-72527550D01*
X115290005Y-72583650D01*
X115247821Y-72656714D01*
X115209437Y-72774848D01*
X115189326Y-72836744D01*
X115169540Y-73025000D01*
X115189326Y-73213256D01*
X115189327Y-73213259D01*
X115247818Y-73393277D01*
X115247821Y-73393284D01*
X115342467Y-73557216D01*
X115461482Y-73689395D01*
X115469129Y-73697888D01*
X115622265Y-73809148D01*
X115622270Y-73809151D01*
X115795192Y-73886142D01*
X115795197Y-73886144D01*
X115980354Y-73925500D01*
X115980355Y-73925500D01*
X116169644Y-73925500D01*
X116169646Y-73925500D01*
X116354803Y-73886144D01*
X116527730Y-73809151D01*
X116680871Y-73697888D01*
X116807533Y-73557216D01*
X116902179Y-73393284D01*
X116960674Y-73213256D01*
X116980460Y-73025000D01*
X116960674Y-72836744D01*
X116902179Y-72656716D01*
X116834993Y-72540347D01*
X116818521Y-72472449D01*
X116834992Y-72416352D01*
X116877179Y-72343284D01*
X116935674Y-72163256D01*
X116955460Y-71975000D01*
X116935674Y-71786744D01*
X116877179Y-71606716D01*
X116782533Y-71442784D01*
X116655871Y-71302112D01*
X116655870Y-71302111D01*
X116502734Y-71190851D01*
X116502729Y-71190848D01*
X116329807Y-71113857D01*
X116329802Y-71113855D01*
X116184000Y-71082865D01*
X116144646Y-71074500D01*
X115955354Y-71074500D01*
X115922897Y-71081398D01*
X115770197Y-71113855D01*
X115770192Y-71113857D01*
X115597270Y-71190848D01*
X115597265Y-71190851D01*
X115444129Y-71302111D01*
X115317466Y-71442785D01*
X115222821Y-71606715D01*
X115222818Y-71606722D01*
X115164327Y-71786740D01*
X115164326Y-71786744D01*
X115144540Y-71975000D01*
X110373735Y-71975000D01*
X110385674Y-71938256D01*
X110405460Y-71750000D01*
X110385674Y-71561744D01*
X110327179Y-71381716D01*
X110232533Y-71217784D01*
X110105871Y-71077112D01*
X110102276Y-71074500D01*
X109952734Y-70965851D01*
X109952729Y-70965848D01*
X109779807Y-70888857D01*
X109779802Y-70888855D01*
X109634000Y-70857865D01*
X109594646Y-70849500D01*
X109405354Y-70849500D01*
X109372897Y-70856398D01*
X109220197Y-70888855D01*
X109220192Y-70888857D01*
X109047270Y-70965848D01*
X109047265Y-70965851D01*
X108894129Y-71077111D01*
X108767466Y-71217785D01*
X108672821Y-71381715D01*
X108672818Y-71381722D01*
X108652978Y-71442785D01*
X108614326Y-71561744D01*
X108594540Y-71750000D01*
X108614326Y-71938256D01*
X108614327Y-71938259D01*
X108672821Y-72118286D01*
X108672822Y-72118288D01*
X108727504Y-72213001D01*
X108743977Y-72280901D01*
X108727504Y-72336999D01*
X108672822Y-72431711D01*
X108672821Y-72431713D01*
X108623454Y-72583650D01*
X108614326Y-72611744D01*
X108594540Y-72800000D01*
X99075446Y-72800000D01*
X99055240Y-72769760D01*
X98972545Y-72714505D01*
X98972543Y-72714504D01*
X98972540Y-72714503D01*
X98899627Y-72700000D01*
X98899624Y-72700000D01*
X98850376Y-72700000D01*
X98850373Y-72700000D01*
X98777459Y-72714503D01*
X98777456Y-72714504D01*
X98718390Y-72753971D01*
X98651712Y-72774848D01*
X98584332Y-72756363D01*
X98537643Y-72704384D01*
X98526664Y-72656000D01*
X98525670Y-72656053D01*
X98525500Y-72652812D01*
X98525500Y-72652808D01*
X98510674Y-72511744D01*
X98506069Y-72497571D01*
X98500000Y-72459253D01*
X98500000Y-71821332D01*
X99250000Y-71821332D01*
X99250000Y-72575000D01*
X99774999Y-72575000D01*
X99774999Y-72443417D01*
X99768591Y-72372897D01*
X99768590Y-72372892D01*
X99718018Y-72210603D01*
X99630072Y-72065122D01*
X99509877Y-71944927D01*
X99364396Y-71856981D01*
X99364394Y-71856980D01*
X99250000Y-71821332D01*
X98500000Y-71821332D01*
X98499999Y-71821332D01*
X98385605Y-71856980D01*
X98385598Y-71856982D01*
X98243769Y-71942721D01*
X98176214Y-71960557D01*
X98109741Y-71939039D01*
X98106753Y-71936935D01*
X98077730Y-71915849D01*
X98077729Y-71915848D01*
X97904807Y-71838857D01*
X97904802Y-71838855D01*
X97759001Y-71807865D01*
X97719646Y-71799500D01*
X97530354Y-71799500D01*
X97497897Y-71806398D01*
X97345197Y-71838855D01*
X97345192Y-71838857D01*
X97172271Y-71915848D01*
X97072885Y-71988056D01*
X97007078Y-72011535D01*
X96939025Y-71995709D01*
X96927115Y-71988056D01*
X96903966Y-71971237D01*
X96827730Y-71915849D01*
X96827728Y-71915848D01*
X96827729Y-71915848D01*
X96654807Y-71838857D01*
X96654802Y-71838855D01*
X96509000Y-71807865D01*
X96469646Y-71799500D01*
X96280354Y-71799500D01*
X96247897Y-71806398D01*
X96095197Y-71838855D01*
X96095192Y-71838857D01*
X95922271Y-71915848D01*
X95822885Y-71988056D01*
X95757078Y-72011535D01*
X95689025Y-71995709D01*
X95677115Y-71988056D01*
X95653966Y-71971237D01*
X95577730Y-71915849D01*
X95577728Y-71915848D01*
X95577729Y-71915848D01*
X95404807Y-71838857D01*
X95404802Y-71838855D01*
X95259001Y-71807865D01*
X95219646Y-71799500D01*
X95030354Y-71799500D01*
X94997897Y-71806398D01*
X94845197Y-71838855D01*
X94845192Y-71838857D01*
X94672270Y-71915848D01*
X94672265Y-71915851D01*
X94519129Y-72027111D01*
X94392466Y-72167785D01*
X94297821Y-72331715D01*
X94297818Y-72331722D01*
X94243931Y-72497571D01*
X94239326Y-72511744D01*
X94224500Y-72652808D01*
X94224500Y-73247192D01*
X89242159Y-73247192D01*
X89329461Y-73084958D01*
X89498926Y-72688475D01*
X89632168Y-72278397D01*
X89728115Y-71858026D01*
X89785994Y-71430747D01*
X89805339Y-71000000D01*
X89800347Y-70888856D01*
X89795911Y-70790076D01*
X89785994Y-70569253D01*
X89728115Y-70141974D01*
X89632168Y-69721603D01*
X89498926Y-69311525D01*
X89431356Y-69153438D01*
X89329466Y-68915052D01*
X89329462Y-68915044D01*
X89250846Y-68768952D01*
X89125137Y-68535345D01*
X89015189Y-68368780D01*
X88887605Y-68175498D01*
X88887595Y-68175485D01*
X88618774Y-67838392D01*
X88618762Y-67838379D01*
X88462555Y-67675000D01*
X101544540Y-67675000D01*
X101564326Y-67863256D01*
X101564327Y-67863259D01*
X101622818Y-68043277D01*
X101622821Y-68043284D01*
X101717467Y-68207216D01*
X101799999Y-68298877D01*
X101844129Y-68347888D01*
X101997265Y-68459148D01*
X101997270Y-68459151D01*
X102170192Y-68536142D01*
X102170197Y-68536144D01*
X102355354Y-68575500D01*
X102355355Y-68575500D01*
X102544644Y-68575500D01*
X102544646Y-68575500D01*
X102729803Y-68536144D01*
X102902730Y-68459151D01*
X103055871Y-68347888D01*
X103182533Y-68207216D01*
X103277179Y-68043284D01*
X103335674Y-67863256D01*
X103355460Y-67675000D01*
X104094540Y-67675000D01*
X104114326Y-67863256D01*
X104114327Y-67863259D01*
X104172818Y-68043277D01*
X104172821Y-68043284D01*
X104267467Y-68207216D01*
X104349999Y-68298877D01*
X104394129Y-68347888D01*
X104547265Y-68459148D01*
X104547270Y-68459151D01*
X104720192Y-68536142D01*
X104720197Y-68536144D01*
X104905354Y-68575500D01*
X104905355Y-68575500D01*
X105094644Y-68575500D01*
X105094646Y-68575500D01*
X105279803Y-68536144D01*
X105452730Y-68459151D01*
X105577116Y-68368778D01*
X105642921Y-68345300D01*
X105710975Y-68361125D01*
X105722872Y-68368771D01*
X105847266Y-68459148D01*
X105847270Y-68459151D01*
X106020192Y-68536142D01*
X106020197Y-68536144D01*
X106205354Y-68575500D01*
X106205355Y-68575500D01*
X106394644Y-68575500D01*
X106394646Y-68575500D01*
X106579803Y-68536144D01*
X106752730Y-68459151D01*
X106905871Y-68347888D01*
X107032533Y-68207216D01*
X107127179Y-68043284D01*
X107185674Y-67863256D01*
X107205460Y-67675000D01*
X107185674Y-67486744D01*
X107127179Y-67306716D01*
X107032533Y-67142784D01*
X106905871Y-67002112D01*
X106905870Y-67002111D01*
X106752734Y-66890851D01*
X106752729Y-66890848D01*
X106579807Y-66813857D01*
X106579802Y-66813855D01*
X106434001Y-66782865D01*
X106394646Y-66774500D01*
X106205354Y-66774500D01*
X106172897Y-66781398D01*
X106020197Y-66813855D01*
X106020192Y-66813857D01*
X105847271Y-66890848D01*
X105722885Y-66981219D01*
X105657078Y-67004698D01*
X105589024Y-66988872D01*
X105577115Y-66981219D01*
X105504886Y-66928742D01*
X105452730Y-66890849D01*
X105452728Y-66890848D01*
X105452729Y-66890848D01*
X105279807Y-66813857D01*
X105279802Y-66813855D01*
X105134001Y-66782865D01*
X105094646Y-66774500D01*
X104905354Y-66774500D01*
X104872897Y-66781398D01*
X104720197Y-66813855D01*
X104720192Y-66813857D01*
X104547270Y-66890848D01*
X104547265Y-66890851D01*
X104394129Y-67002111D01*
X104267466Y-67142785D01*
X104172821Y-67306715D01*
X104172818Y-67306722D01*
X104114327Y-67486740D01*
X104114326Y-67486744D01*
X104094540Y-67675000D01*
X103355460Y-67675000D01*
X103335674Y-67486744D01*
X103277179Y-67306716D01*
X103182533Y-67142784D01*
X103055871Y-67002112D01*
X103055870Y-67002111D01*
X102902734Y-66890851D01*
X102902729Y-66890848D01*
X102729807Y-66813857D01*
X102729802Y-66813855D01*
X102584000Y-66782865D01*
X102544646Y-66774500D01*
X102355354Y-66774500D01*
X102322897Y-66781398D01*
X102170197Y-66813855D01*
X102170192Y-66813857D01*
X101997270Y-66890848D01*
X101997265Y-66890851D01*
X101844129Y-67002111D01*
X101717466Y-67142785D01*
X101622821Y-67306715D01*
X101622818Y-67306722D01*
X101564327Y-67486740D01*
X101564326Y-67486744D01*
X101544540Y-67675000D01*
X88462555Y-67675000D01*
X88320794Y-67526730D01*
X88320793Y-67526729D01*
X88320790Y-67526726D01*
X87996080Y-67243035D01*
X87858098Y-67142785D01*
X87647256Y-66989599D01*
X87647251Y-66989596D01*
X87647247Y-66989593D01*
X87277100Y-66768440D01*
X87277095Y-66768437D01*
X87277093Y-66768436D01*
X86888627Y-66581360D01*
X86888613Y-66581354D01*
X86484944Y-66429855D01*
X86484919Y-66429847D01*
X86083386Y-66319031D01*
X86024000Y-66282221D01*
X85993941Y-66219148D01*
X86002755Y-66149836D01*
X86047642Y-66096292D01*
X86114352Y-66075517D01*
X86116375Y-66075500D01*
X126883625Y-66075500D01*
X126950664Y-66095185D01*
G37*
%TD.AperFunction*%
%TD*%
M02*
