%TF.GenerationSoftware,KiCad,Pcbnew,7.0.7*%
%TF.CreationDate,2023-10-16T17:07:58+03:00*%
%TF.ProjectId,custom_stm_design,63757374-6f6d-45f7-9374-6d5f64657369,rev?*%
%TF.SameCoordinates,Original*%
%TF.FileFunction,Copper,L4,Bot*%
%TF.FilePolarity,Positive*%
%FSLAX46Y46*%
G04 Gerber Fmt 4.6, Leading zero omitted, Abs format (unit mm)*
G04 Created by KiCad (PCBNEW 7.0.7) date 2023-10-16 17:07:58*
%MOMM*%
%LPD*%
G01*
G04 APERTURE LIST*
G04 Aperture macros list*
%AMRoundRect*
0 Rectangle with rounded corners*
0 $1 Rounding radius*
0 $2 $3 $4 $5 $6 $7 $8 $9 X,Y pos of 4 corners*
0 Add a 4 corners polygon primitive as box body*
4,1,4,$2,$3,$4,$5,$6,$7,$8,$9,$2,$3,0*
0 Add four circle primitives for the rounded corners*
1,1,$1+$1,$2,$3*
1,1,$1+$1,$4,$5*
1,1,$1+$1,$6,$7*
1,1,$1+$1,$8,$9*
0 Add four rect primitives between the rounded corners*
20,1,$1+$1,$2,$3,$4,$5,0*
20,1,$1+$1,$4,$5,$6,$7,0*
20,1,$1+$1,$6,$7,$8,$9,0*
20,1,$1+$1,$8,$9,$2,$3,0*%
G04 Aperture macros list end*
%TA.AperFunction,ComponentPad*%
%ADD10C,0.900000*%
%TD*%
%TA.AperFunction,ComponentPad*%
%ADD11C,8.600000*%
%TD*%
%TA.AperFunction,ComponentPad*%
%ADD12RoundRect,0.200000X-0.200000X-0.450000X0.200000X-0.450000X0.200000X0.450000X-0.200000X0.450000X0*%
%TD*%
%TA.AperFunction,ComponentPad*%
%ADD13O,0.800000X1.300000*%
%TD*%
%TA.AperFunction,ComponentPad*%
%ADD14R,2.400000X2.400000*%
%TD*%
%TA.AperFunction,ComponentPad*%
%ADD15C,2.400000*%
%TD*%
%TA.AperFunction,ComponentPad*%
%ADD16RoundRect,0.200000X0.200000X0.450000X-0.200000X0.450000X-0.200000X-0.450000X0.200000X-0.450000X0*%
%TD*%
%TA.AperFunction,ViaPad*%
%ADD17C,0.800000*%
%TD*%
%TA.AperFunction,Conductor*%
%ADD18C,0.300000*%
%TD*%
G04 APERTURE END LIST*
D10*
%TO.P,H4,1,1*%
%TO.N,GND*%
X81775000Y-106000000D03*
X82719581Y-103719581D03*
X82719581Y-108280419D03*
X85000000Y-102775000D03*
D11*
X85000000Y-106000000D03*
D10*
X85000000Y-109225000D03*
X87280419Y-103719581D03*
X87280419Y-108280419D03*
X88225000Y-106000000D03*
%TD*%
%TO.P,H2,1,1*%
%TO.N,GND*%
X124775000Y-106000000D03*
X125719581Y-103719581D03*
X125719581Y-108280419D03*
X128000000Y-102775000D03*
D11*
X128000000Y-106000000D03*
D10*
X128000000Y-109225000D03*
X130280419Y-103719581D03*
X130280419Y-108280419D03*
X131225000Y-106000000D03*
%TD*%
D12*
%TO.P,J5,1,Pin_1*%
%TO.N,+3.3V*%
X95125000Y-104050000D03*
D13*
%TO.P,J5,2,Pin_2*%
%TO.N,USART3_TX*%
X96375000Y-104050000D03*
%TO.P,J5,3,Pin_3*%
%TO.N,USART3_RX*%
X97625000Y-104050000D03*
%TO.P,J5,4,Pin_4*%
%TO.N,GND*%
X98875000Y-104050000D03*
%TD*%
D10*
%TO.P,H1,1,1*%
%TO.N,GND*%
X124775000Y-71000000D03*
X125719581Y-68719581D03*
X125719581Y-73280419D03*
X128000000Y-67775000D03*
D11*
X128000000Y-71000000D03*
D10*
X128000000Y-74225000D03*
X130280419Y-68719581D03*
X130280419Y-73280419D03*
X131225000Y-71000000D03*
%TD*%
%TO.P,H3,1,1*%
%TO.N,GND*%
X81775000Y-71000000D03*
X82719581Y-68719581D03*
X82719581Y-73280419D03*
X85000000Y-67775000D03*
D11*
X85000000Y-71000000D03*
D10*
X85000000Y-74225000D03*
X87280419Y-68719581D03*
X87280419Y-73280419D03*
X88225000Y-71000000D03*
%TD*%
D14*
%TO.P,J1,1,Pin_1*%
%TO.N,+12V*%
X127300000Y-83700000D03*
D15*
%TO.P,J1,2,Pin_2*%
%TO.N,GND*%
X127300000Y-80200000D03*
%TD*%
D16*
%TO.P,J3,1,Pin_1*%
%TO.N,+3.3V*%
X98875000Y-72950000D03*
D13*
%TO.P,J3,2,Pin_2*%
%TO.N,I2C1_SCL*%
X97625000Y-72950000D03*
%TO.P,J3,3,Pin_3*%
%TO.N,I2C1_SDA*%
X96375000Y-72950000D03*
%TO.P,J3,4,Pin_4*%
%TO.N,GND*%
X95125000Y-72950000D03*
%TD*%
D17*
%TO.N,GND*%
X106300000Y-67675000D03*
X105000000Y-67675000D03*
X102450000Y-67675000D03*
%TO.N,+3.3V*%
X107525000Y-67675000D03*
%TO.N,NRST*%
X103937853Y-78812853D03*
%TO.N,+3.3V*%
X92725000Y-84775000D03*
%TO.N,GND*%
X91700000Y-84775000D03*
X97650000Y-81650000D03*
%TO.N,+3.3V*%
X95350000Y-81700000D03*
%TO.N,GND*%
X88900000Y-92000000D03*
X88025000Y-92925000D03*
X107525000Y-83200000D03*
X121225000Y-77900000D03*
X105300000Y-98175000D03*
X109925000Y-84375000D03*
X111875000Y-89000000D03*
X121925000Y-83025000D03*
X121925000Y-82175000D03*
X109850000Y-83250000D03*
X109875000Y-82050000D03*
X107850000Y-79225000D03*
X108550000Y-81900000D03*
X108550000Y-80075000D03*
X107850000Y-78400000D03*
X113050000Y-78575000D03*
X114075000Y-74775000D03*
X116075000Y-73025000D03*
X116050000Y-71975000D03*
X109500000Y-72800000D03*
X109500000Y-71750000D03*
X84850000Y-83500000D03*
X90750000Y-86000000D03*
X88050000Y-89425000D03*
X88925000Y-91100000D03*
X91450000Y-91225000D03*
X95350000Y-95000000D03*
X94425000Y-95000000D03*
X106700000Y-97975000D03*
X122325000Y-91600000D03*
X121375000Y-91625000D03*
X121375000Y-92550000D03*
X122225000Y-92525000D03*
%TO.N,+3.3V*%
X123225000Y-75100000D03*
X112225000Y-79575000D03*
X106975000Y-80075000D03*
X117775000Y-87050000D03*
X117775000Y-87975000D03*
X117775000Y-86025000D03*
X99675000Y-79500000D03*
X114975000Y-87825000D03*
X115025000Y-86950000D03*
X115025000Y-86075000D03*
X106100000Y-80975000D03*
X102500000Y-80250000D03*
X84850000Y-79075000D03*
X114450000Y-72825000D03*
X88875000Y-98800000D03*
X121000000Y-71800000D03*
X97500000Y-97550000D03*
X114450000Y-71800000D03*
X120975000Y-72625000D03*
X106675000Y-95625000D03*
X106575000Y-83200000D03*
X112900000Y-80525000D03*
X122275000Y-74300000D03*
%TO.N,Net-(D2-K)*%
X110250000Y-95000000D03*
X111750000Y-93500000D03*
%TO.N,NRST*%
X104000000Y-85000000D03*
%TD*%
D18*
%TO.N,NRST*%
X104000000Y-78875000D02*
X103937853Y-78812853D01*
X104000000Y-85000000D02*
X104000000Y-78875000D01*
%TO.N,Net-(D2-K)*%
X111750000Y-93500000D02*
X110250000Y-95000000D01*
%TD*%
M02*
