M48
; DRILL file {KiCad 7.0.7} date Mon Oct 16 17:07:45 2023
; FORMAT={3:3/ absolute / metric / suppress leading zeros}
; #@! TF.CreationDate,2023-10-16T17:07:45+03:00
; #@! TF.GenerationSoftware,Kicad,Pcbnew,7.0.7
; #@! TF.FileFunction,MixedPlating,1,4
FMAT,2
METRIC,TZ
; #@! TA.AperFunction,Plated,PTH,ViaDrill
T1C0.400
; #@! TA.AperFunction,Plated,PTH,ComponentDrill
T2C0.500
; #@! TA.AperFunction,Plated,PTH,ComponentDrill
T3C0.600
; #@! TA.AperFunction,Plated,PTH,ComponentDrill
T4C1.200
; #@! TA.AperFunction,Plated,PTH,ComponentDrill
T5C4.300
; #@! TA.AperFunction,NonPlated,NPTH,ComponentDrill
T6C0.900
; #@! TA.AperFunction,NonPlated,NPTH,ComponentDrill
T7C1.000
%
G90
G05
T1
X84850Y-79075
X84850Y-83500
X88025Y-92925
X88050Y-89425
X88875Y-98800
X88900Y-92000
X88925Y-91100
X90750Y-86000
X91450Y-91225
X91700Y-84775
X92725Y-84775
X94425Y-95000
X95350Y-81700
X95350Y-95000
X97500Y-97550
X97650Y-81650
X99675Y-79500
X102450Y-67675
X102500Y-80250
X103938Y-78813
X104000Y-85000
X105000Y-67675
X105300Y-98175
X106100Y-80975
X106300Y-67675
X106575Y-83200
X106675Y-95625
X106700Y-97975
X106975Y-80075
X107525Y-67675
X107525Y-83200
X107850Y-78400
X107850Y-79225
X108550Y-80075
X108550Y-81900
X109500Y-71750
X109500Y-72800
X109850Y-83250
X109875Y-82050
X109925Y-84375
X110250Y-95000
X111750Y-93500
X111875Y-89000
X112225Y-79575
X112900Y-80525
X113050Y-78575
X114075Y-74775
X114450Y-71800
X114450Y-72825
X114975Y-87825
X115025Y-86075
X115025Y-86950
X116050Y-71975
X116075Y-73025
X117775Y-86025
X117775Y-87050
X117775Y-87975
X120975Y-72625
X121000Y-71800
X121225Y-77900
X121375Y-91625
X121375Y-92550
X121925Y-82175
X121925Y-83025
X122225Y-92525
X122275Y-74300
X122325Y-91600
X123225Y-75100
T2
X95125Y-72950
X95125Y-104050
X96375Y-72950
X96375Y-104050
X97625Y-72950
X97625Y-104050
X98875Y-72950
X98875Y-104050
T3
X81775Y-71000
X81775Y-106000
X82720Y-68720
X82720Y-73280
X82720Y-103720
X82720Y-108280
X85000Y-67775
X85000Y-74225
X85000Y-102775
X85000Y-109225
X87280Y-68720
X87280Y-73280
X87280Y-103720
X87280Y-108280
X88225Y-71000
X88225Y-106000
X124775Y-71000
X124775Y-106000
X125720Y-68720
X125720Y-73280
X125720Y-103720
X125720Y-108280
X128000Y-67775
X128000Y-74225
X128000Y-102775
X128000Y-109225
X130280Y-68720
X130280Y-73280
X130280Y-103720
X130280Y-108280
X131225Y-71000
X131225Y-106000
T4
X127300Y-80200
X127300Y-83700
T5
X85000Y-71000
X85000Y-106000
X128000Y-71000
X128000Y-106000
T6
X81920Y-79750
X81920Y-82750
T7
X126375Y-91900
X126375Y-96300
T0
M30
