%TF.GenerationSoftware,KiCad,Pcbnew,7.0.7*%
%TF.CreationDate,2023-10-16T17:07:58+03:00*%
%TF.ProjectId,custom_stm_design,63757374-6f6d-45f7-9374-6d5f64657369,rev?*%
%TF.SameCoordinates,Original*%
%TF.FileFunction,Soldermask,Bot*%
%TF.FilePolarity,Negative*%
%FSLAX46Y46*%
G04 Gerber Fmt 4.6, Leading zero omitted, Abs format (unit mm)*
G04 Created by KiCad (PCBNEW 7.0.7) date 2023-10-16 17:07:58*
%MOMM*%
%LPD*%
G01*
G04 APERTURE LIST*
G04 Aperture macros list*
%AMRoundRect*
0 Rectangle with rounded corners*
0 $1 Rounding radius*
0 $2 $3 $4 $5 $6 $7 $8 $9 X,Y pos of 4 corners*
0 Add a 4 corners polygon primitive as box body*
4,1,4,$2,$3,$4,$5,$6,$7,$8,$9,$2,$3,0*
0 Add four circle primitives for the rounded corners*
1,1,$1+$1,$2,$3*
1,1,$1+$1,$4,$5*
1,1,$1+$1,$6,$7*
1,1,$1+$1,$8,$9*
0 Add four rect primitives between the rounded corners*
20,1,$1+$1,$2,$3,$4,$5,0*
20,1,$1+$1,$4,$5,$6,$7,0*
20,1,$1+$1,$6,$7,$8,$9,0*
20,1,$1+$1,$8,$9,$2,$3,0*%
G04 Aperture macros list end*
%ADD10C,0.900000*%
%ADD11C,8.600000*%
%ADD12RoundRect,0.200000X-0.200000X-0.450000X0.200000X-0.450000X0.200000X0.450000X-0.200000X0.450000X0*%
%ADD13O,0.800000X1.300000*%
%ADD14C,1.000000*%
%ADD15R,2.400000X2.400000*%
%ADD16C,2.400000*%
%ADD17RoundRect,0.200000X0.200000X0.450000X-0.200000X0.450000X-0.200000X-0.450000X0.200000X-0.450000X0*%
G04 APERTURE END LIST*
D10*
%TO.C,H4*%
X81775000Y-106000000D03*
X82719581Y-103719581D03*
X82719581Y-108280419D03*
X85000000Y-102775000D03*
D11*
X85000000Y-106000000D03*
D10*
X85000000Y-109225000D03*
X87280419Y-103719581D03*
X87280419Y-108280419D03*
X88225000Y-106000000D03*
%TD*%
%TO.C,H2*%
X124775000Y-106000000D03*
X125719581Y-103719581D03*
X125719581Y-108280419D03*
X128000000Y-102775000D03*
D11*
X128000000Y-106000000D03*
D10*
X128000000Y-109225000D03*
X130280419Y-103719581D03*
X130280419Y-108280419D03*
X131225000Y-106000000D03*
%TD*%
D12*
%TO.C,J5*%
X95125000Y-104050000D03*
D13*
X96375000Y-104050000D03*
X97625000Y-104050000D03*
X98875000Y-104050000D03*
%TD*%
D10*
%TO.C,SW1*%
X81920000Y-79750000D03*
X81920000Y-82750000D03*
%TD*%
D14*
%TO.C,J4*%
X126375000Y-96300000D03*
X126375000Y-91900000D03*
%TD*%
D10*
%TO.C,H1*%
X124775000Y-71000000D03*
X125719581Y-68719581D03*
X125719581Y-73280419D03*
X128000000Y-67775000D03*
D11*
X128000000Y-71000000D03*
D10*
X128000000Y-74225000D03*
X130280419Y-68719581D03*
X130280419Y-73280419D03*
X131225000Y-71000000D03*
%TD*%
%TO.C,H3*%
X81775000Y-71000000D03*
X82719581Y-68719581D03*
X82719581Y-73280419D03*
X85000000Y-67775000D03*
D11*
X85000000Y-71000000D03*
D10*
X85000000Y-74225000D03*
X87280419Y-68719581D03*
X87280419Y-73280419D03*
X88225000Y-71000000D03*
%TD*%
D15*
%TO.C,J1*%
X127300000Y-83700000D03*
D16*
X127300000Y-80200000D03*
%TD*%
D17*
%TO.C,J3*%
X98875000Y-72950000D03*
D13*
X97625000Y-72950000D03*
X96375000Y-72950000D03*
X95125000Y-72950000D03*
%TD*%
M02*
